<?xml version="1.0" encoding="UTF-8" standalone="no"?>
<!-- Created with Inkscape (http://www.inkscape.org/) -->

<svg
   xmlns:dc="http://purl.org/dc/elements/1.1/"
   xmlns:cc="http://creativecommons.org/ns#"
   xmlns:rdf="http://www.w3.org/1999/02/22-rdf-syntax-ns#"
   xmlns:svg="http://www.w3.org/2000/svg"
   xmlns="http://www.w3.org/2000/svg"
   xmlns:sodipodi="http://sodipodi.sourceforge.net/DTD/sodipodi-0.dtd"
   xmlns:inkscape="http://www.inkscape.org/namespaces/inkscape"
   width="13.39046mm"
   height="13.48382mm"
   viewBox="0 0 13.390461 13.48382"
   version="1.1"
   id="svg20953"
   inkscape:version="0.92.2 (5c3e80d, 2017-08-06)"
   sodipodi:docname="emiia63.svg"
   inkscape:export-filename="C:\Users\User1\Desktop\15 Владимир 3д макс\IoT &amp; IIoT\infografics\Соцсети\fog88.png"
   inkscape:export-xdpi="1182.2"
   inkscape:export-ydpi="1182.2">
  <defs
     id="defs20947">
    <pattern
       y="0"
       x="0"
       height="6"
       width="6"
       patternUnits="userSpaceOnUse"
       id="EMFhbasepattern" />
  </defs>
  <sodipodi:namedview
     id="base"
     pagecolor="#ffffff"
     bordercolor="#666666"
     borderopacity="1.0"
     inkscape:pageopacity="0.0"
     inkscape:pageshadow="2"
     inkscape:zoom="1.4949863"
     inkscape:cx="-100.50739"
     inkscape:cy="105.5607"
     inkscape:document-units="mm"
     inkscape:current-layer="layer1"
     showgrid="false"
     fit-margin-top="0"
     fit-margin-left="0"
     fit-margin-right="0"
     fit-margin-bottom="0"
     inkscape:window-width="1366"
     inkscape:window-height="745"
     inkscape:window-x="-8"
     inkscape:window-y="-8"
     inkscape:window-maximized="1" />
  <metadata
     id="metadata20950">
    <rdf:RDF>
      <cc:Work
         rdf:about="">
        <dc:format>image/svg+xml</dc:format>
        <dc:type
           rdf:resource="http://purl.org/dc/dcmitype/StillImage" />
        <dc:title></dc:title>
      </cc:Work>
    </rdf:RDF>
  </metadata>
  <g
     inkscape:label="Layer 1"
     inkscape:groupmode="layer"
     id="layer1"
     transform="translate(-49.304447,-134.3368)">
    <text
       xml:space="preserve"
       style="font-style:normal;font-weight:normal;font-size:4.23333311px;line-height:1.25;font-family:sans-serif;letter-spacing:0px;word-spacing:0px;fill:#000000;fill-opacity:1;stroke:none;stroke-width:0.26458332"
       x="70.045975"
       y="142.4696"
       id="text891"><tspan
         sodipodi:role="line"
         id="tspan889"
         x="70.045975"
         y="146.3318"
         style="stroke-width:0.26458332" /></text>
    <g
       style="fill:none;fill-opacity:1;stroke:#4e9bda;stroke-width:0.2835567;stroke-miterlimit:4;stroke-dasharray:none;stroke-opacity:1"
       id="g23096"
       transform="matrix(0.35266314,0,0,0.35266314,36.527589,136.47826)" />
    <g
       style="fill:none;fill-opacity:1;stroke:#4e9bda;stroke-width:0.2835567;stroke-miterlimit:4;stroke-dasharray:none;stroke-opacity:1"
       id="g23098"
       transform="matrix(0.35266314,0,0,0.35266314,36.527589,136.47826)" />
    <g
       style="fill:none;fill-opacity:1;stroke:#4e9bda;stroke-width:0.2835567;stroke-miterlimit:4;stroke-dasharray:none;stroke-opacity:1"
       id="g23100"
       transform="matrix(0.35266314,0,0,0.35266314,36.527589,136.47826)" />
    <g
       style="fill:none;fill-opacity:1;stroke:#4e9bda;stroke-width:0.2835567;stroke-miterlimit:4;stroke-dasharray:none;stroke-opacity:1"
       id="g23102"
       transform="matrix(0.35266314,0,0,0.35266314,36.527589,136.47826)" />
    <g
       style="fill:none;fill-opacity:1;stroke:#4e9bda;stroke-width:0.2835567;stroke-miterlimit:4;stroke-dasharray:none;stroke-opacity:1"
       id="g23104"
       transform="matrix(0.35266314,0,0,0.35266314,36.527589,136.47826)" />
    <g
       style="fill:none;fill-opacity:1;stroke:#4e9bda;stroke-width:0.2835567;stroke-miterlimit:4;stroke-dasharray:none;stroke-opacity:1"
       id="g23106"
       transform="matrix(0.35266314,0,0,0.35266314,36.527589,136.47826)" />
    <g
       style="fill:none;fill-opacity:1;stroke:#4e9bda;stroke-width:0.2835567;stroke-miterlimit:4;stroke-dasharray:none;stroke-opacity:1"
       id="g23108"
       transform="matrix(0.35266314,0,0,0.35266314,36.527589,136.47826)" />
    <g
       style="fill:none;fill-opacity:1;stroke:#4e9bda;stroke-width:0.2835567;stroke-miterlimit:4;stroke-dasharray:none;stroke-opacity:1"
       id="g23110"
       transform="matrix(0.35266314,0,0,0.35266314,36.527589,136.47826)" />
    <g
       style="fill:none;fill-opacity:1;stroke:#4e9bda;stroke-width:0.2835567;stroke-miterlimit:4;stroke-dasharray:none;stroke-opacity:1"
       id="g23112"
       transform="matrix(0.35266314,0,0,0.35266314,36.527589,136.47826)" />
    <g
       style="fill:none;fill-opacity:1;stroke:#4e9bda;stroke-width:0.2835567;stroke-miterlimit:4;stroke-dasharray:none;stroke-opacity:1"
       id="g23114"
       transform="matrix(0.35266314,0,0,0.35266314,36.527589,136.47826)" />
    <g
       style="fill:none;fill-opacity:1;stroke:#4e9bda;stroke-width:0.2835567;stroke-miterlimit:4;stroke-dasharray:none;stroke-opacity:1"
       id="g23116"
       transform="matrix(0.35266314,0,0,0.35266314,36.527589,136.47826)" />
    <g
       style="fill:none;fill-opacity:1;stroke:#4e9bda;stroke-width:0.2835567;stroke-miterlimit:4;stroke-dasharray:none;stroke-opacity:1"
       id="g23118"
       transform="matrix(0.35266314,0,0,0.35266314,36.527589,136.47826)" />
    <g
       style="fill:none;fill-opacity:1;stroke:#4e9bda;stroke-width:0.2835567;stroke-miterlimit:4;stroke-dasharray:none;stroke-opacity:1"
       id="g23120"
       transform="matrix(0.35266314,0,0,0.35266314,36.527589,136.47826)" />
    <g
       style="fill:none;fill-opacity:1;stroke:#4e9bda;stroke-width:0.2835567;stroke-miterlimit:4;stroke-dasharray:none;stroke-opacity:1"
       id="g23122"
       transform="matrix(0.35266314,0,0,0.35266314,36.527589,136.47826)" />
    <g
       style="fill:none;fill-opacity:1;stroke:#4e9bda;stroke-width:0.2835567;stroke-miterlimit:4;stroke-dasharray:none;stroke-opacity:1"
       id="g23124"
       transform="matrix(0.35266314,0,0,0.35266314,36.527589,136.47826)" />
    <path
       id="path12940"
       d="m 54.593346,135.05761 -0.05199,0.009 c -0.03574,0.0277 -0.03898,0.0179 -0.09422,0.0343 -0.03737,0.0114 -0.06497,0.0228 -0.09747,0.0359 -0.06497,0.0245 -0.123461,0.0391 -0.194938,0.0619 -0.128334,0.0407 -0.248545,0.1093 -0.380127,0.13377 -0.02762,0.0391 -0.105585,0.067 -0.162447,0.0587 -0.03737,0.0457 -0.02437,0.0425 -0.09747,0.0604 -0.04549,0.0375 -0.131582,0.0945 -0.207932,0.0995 -0.06822,0.067 -0.190064,0.12724 -0.282659,0.16313 l -0.341139,0.2137 c -0.01462,0.0228 -0.0098,0.0196 -0.04386,0.0261 0,0.0311 0.0098,0.0326 -0.01462,0.0179 l -0.207931,0.15006 c -0.02598,0.0425 -0.396371,0.36053 -0.440232,0.37031 -0.03086,0.075 -0.03899,0.0897 -0.118586,0.11909 -0.01137,0.0228 -0.116962,0.14682 -0.15595,0.15498 -0.02762,0.0766 -0.04549,0.10436 -0.120211,0.12723 -0.0066,0.0554 -0.0796,0.13867 -0.131582,0.15661 -0.02923,0.0799 -0.07797,0.14029 -0.139705,0.16639 -0.0098,0.0407 0.0032,0.0164 -0.03086,0.0604 -0.01949,0.0277 -0.01788,0.0293 -0.0406,0.0376 l -0.01624,0.0227 c -0.02275,0.067 -0.100717,0.19575 -0.168945,0.23653 0.01137,0.0245 0.013,0.0164 -0.01624,0.0164 l -0.0081,0.0212 c -0.02923,0.0979 -0.128332,0.26753 -0.203058,0.30994 l -0.01949,0.0702 -0.129958,0.21696 c -0.0017,-0.002 -0.0048,0.008 -0.0098,0.0114 0,0.0505 -0.01787,0.0799 -0.0406,0.12725 -0.0066,0.0131 -0.01624,0.0375 -0.02598,0.0522 -0.03086,0.0457 -0.0017,0.0245 -0.03086,0.0277 -0.0081,0.0343 -0.01299,0.0637 -0.02762,0.093 0,0 -0.01788,0.0261 -0.01949,0.0293 -0.02112,0.0261 -0.0048,0.008 -0.02923,0.0278 0.0017,0.0407 -0.0081,0.0882 -0.03574,0.10767 -0.02275,0.0945 -0.09909,0.31811 -0.15595,0.36704 0.0017,0.0604 -0.0406,0.21207 -0.0796,0.26592 0.0032,0.0586 -0.03087,0.18269 -0.06012,0.23816 -0.02112,0.2137 -0.09422,0.42577 -0.128332,0.646 -0.01949,0.13703 -0.04224,0.56933 -0.0796,0.65577 -0.02275,0.0407 -0.013,0.006 -0.01624,0.0604 v 0.5318 c 0.0032,0.0718 0.0081,0.12562 0.01624,0.13866 0.04386,0.0996 0.039,0.37194 0.05522,0.50897 0.01949,0.16314 0.04549,0.31322 0.07797,0.46982 0.03086,0.14356 0.06822,0.2969 0.10884,0.43882 0.03898,0.14029 0.103962,0.28875 0.128334,0.43555 0.04873,0.0425 0.08446,0.16477 0.07472,0.23491 0.0032,0.003 0.0066,0.008 0.0081,0.0114 0.0017,0.002 0.0066,0.006 0.0081,0.009 l 0.268036,0.56118 c 0.03411,0.044 0.06661,0.0735 0.06661,0.14681 0.0406,0.0261 0.02275,0.004 0.05359,0.0506 0.01788,0.0293 0.02437,0.0538 0.03411,0.0913 0.04224,0.0228 0.134832,0.16477 0.136454,0.23165 0.05687,0.0375 0.07311,0.0619 0.110465,0.13376 0.04549,0.0538 0.07635,0.0832 0.08123,0.14357 0.09097,0.0522 0.162448,0.1827 0.233924,0.27079 0.06173,0.0766 0.199808,0.19249 0.212805,0.28547 0.07473,0.0212 0.160822,0.12398 0.21768,0.18435 0.172193,0.18595 0.601054,0.52037 0.635168,0.58236 0.05199,0 0.06661,0.0245 0.0796,0.0571 0.06985,0.0212 0.103961,0.0522 0.155949,0.0979 l 0.03737,0.0376 c 0.05199,0.003 0.245295,0.13214 0.29078,0.18597 0.05685,0.003 0.183566,0.0816 0.204685,0.11746 0.06661,0.0164 0.08934,0.0359 0.151075,0.0685 0.04874,0.0277 0.09422,0.0391 0.129957,0.0832 l 0.0032,-0.006 c 0.06497,0.0196 0.107218,0.0425 0.168944,0.0701 l 0.14133,0.0734 c 0.0032,0.002 0.0066,0.004 0.0098,0.006 0.06661,0 0.289155,0.0832 0.354136,0.11093 0.12021,0.009 0.159197,-0.006 0.266413,-0.0179 0.04224,-0.0816 0.125083,-0.0864 0.139704,-0.24307 l -0.0048,-1.11582 c -0.113713,-0.009 -0.718016,0.1501 -1.059155,0.009 -0.08447,-0.009 -0.194937,-0.0391 -0.26479,-0.0798 l -0.06173,-0.0473 c -0.05685,0 -0.07311,-0.0179 -0.12021,-0.0457 -0.0032,-0.002 -0.04874,-0.0293 -0.05035,-0.0293 -0.03249,-0.0261 -0.02275,-0.0114 -0.02923,-0.0407 -0.07797,-0.0228 -0.04874,-0.004 -0.07311,-0.0604 -0.07311,-0.0114 -0.203058,-0.14683 -0.212806,-0.2235 -0.05035,-0.0326 -0.03249,-0.004 -0.05522,-0.0701 -0.03737,-0.0212 -0.103961,-0.11094 -0.09259,-0.17783 l -0.06011,-0.0798 c -0.09423,-0.22675 -0.211181,-0.41599 -0.26479,-0.55464 -0.03899,-0.004 -0.02923,-0.0114 -0.08934,-0.0881 l -0.264788,-0.28223 c -0.100717,-0.0376 -0.186814,-0.0914 -0.224176,-0.1778 -0.09747,-0.0164 -0.125086,-0.20229 0,-0.20391 0.02598,-0.0212 -0.0048,-0.003 0.03574,-0.0179 0.09585,-0.0359 0.321646,-0.0245 0.432109,0.0425 0.03086,0.0164 0.03249,0.0227 0.04712,0.0391 0.09097,-0.008 0.178693,0.075 0.224176,0.11744 0.05199,0.0261 0.02437,0.002 0.04386,0.049 0.08446,0.0131 0.194936,0.15497 0.248544,0.22675 0.04549,0.0604 0.167319,0.21697 0.167319,0.29038 0.02598,0.0179 0.0098,0.004 0.03087,0.0245 0.0032,0.003 0.01462,0.0147 0.01788,0.0179 0.04224,0.0457 0.06497,0.0718 0.0861,0.1305 0.02112,0.008 0.0048,-0.003 0.03574,0.0212 0.01137,0.009 0.01949,0.0212 0.03086,0.0326 l 0.05362,0.0619 c 0.07797,0.0293 0.128333,0.067 0.164072,0.12888 0.0796,0.008 0.170568,0.0571 0.232298,0.0945 l -0.0017,0.002 c 0.409367,0.0555 0.449979,0.0407 0.847975,-0.0114 0.04874,-0.0375 0.1592,-0.0735 0.225802,-0.0702 0.02762,-0.0864 0.03411,-0.21207 0.08446,-0.27895 -0.0048,-0.0491 -0.0081,-0.0718 0.02598,-0.0995 0.01949,-0.0913 0.06822,-0.21207 0.12021,-0.28386 l 0.05361,-0.0538 c 0.03411,-0.093 0.07797,-0.0849 0.09585,-0.16313 -0.02598,-0.008 -0.03574,-0.004 -0.06012,-0.0114 l -0.06822,-0.0245 c -0.05685,0.008 -0.407743,-0.0505 -0.461349,-0.075 -0.13808,-0.0164 -0.307026,-0.0457 -0.397996,-0.12072 -0.08773,0.003 -0.406118,-0.14356 -0.445107,-0.18271 l -0.0081,-0.004 c -0.207932,-0.0849 -0.466223,-0.30015 -0.597805,-0.44696 -0.14133,-0.15825 -0.336266,-0.34911 -0.415866,-0.61664 -0.02437,-0.0114 -0.0081,0.002 -0.02924,-0.0327 -0.0081,-0.0131 -0.01462,-0.0261 -0.02112,-0.0425 -0.02112,-0.0473 -0.02437,-0.0505 -0.02112,-0.10435 -0.03737,-0.0407 -0.04224,-0.0604 -0.05685,-0.12724 -0.03411,-0.0261 -0.04711,-0.11745 -0.0406,-0.17293 l -0.04386,-0.0766 c -0.0081,-0.0293 -0.013,-0.0604 -0.01949,-0.0913 -0.03411,-0.17781 -0.0861,-0.42087 -0.0861,-0.59379 0,-0.14519 -0.03737,-0.75855 0.02437,-0.83033 l -0.0066,-0.008 c 0.0098,-0.0849 0.04711,-0.35236 0.116962,-0.41761 -0.0098,-0.0995 0.02924,-0.14846 0.06497,-0.22186 l 0.04711,-0.067 c 0,-0.0587 0.0098,-0.075 0.03574,-0.12235 0.0098,-0.0164 0.02437,-0.0391 0.03086,-0.0489 l 0.0406,-0.0326 c 0.01624,-0.0636 0.03574,-0.0882 0.06497,-0.13703 0.03898,-0.062 0.03411,-0.075 0.100717,-0.10276 0.0098,-0.0685 -0.0032,-0.0391 0.0406,-0.0505 0.07471,-0.1925 0.04711,-0.0685 0.0081,-0.28058 l -0.0098,-0.0343 c -0.03737,-0.0604 -0.02923,-0.1566 -0.039,-0.23818 -0.02112,-0.0816 -0.06985,-0.38661 0.0017,-0.46329 l -0.0098,-0.0407 c 0.0048,-0.10436 0.0066,-0.30179 0.07635,-0.36216 -0.0048,-0.0718 0.0048,-0.18921 0.05035,-0.21695 0.01624,-0.10931 0.03086,-0.16313 0.147826,-0.16803 l 0.207932,0.0197 c 0.039,0.0131 0.02598,0.006 0.0406,0.0261 0.157574,-0.0164 0.5377,0.12561 0.617298,0.20881 0.07471,-0.002 0.167322,0.0619 0.212808,0.10112 0.06822,0.0228 0.06173,0.0163 0.09096,0.0619 0.03737,0.008 0.06011,0.0114 0.102342,0.0376 0.01137,0.006 0.03411,0.0227 0.04549,0.0326 0.039,0.0359 0.01462,0.0131 0.02437,0.0311 0.107219,0.0326 0.134831,0.0882 0.219304,0.12889 0.100717,0.0457 0.159197,-0.0228 0.26154,-0.0212 0.03411,-0.0311 0.02598,-0.0131 0.08446,-0.0277 0.03249,-0.008 0.05036,-0.0163 0.08934,-0.0245 0.06497,-0.0147 0.136455,-0.0245 0.203058,-0.0326 l 0.01624,-0.002 0.162446,-0.0114 c 0.0081,-0.006 -0.0032,-0.0179 0.0796,-0.0343 0.152699,-0.0293 0.526329,-0.0147 0.688776,-0.0164 0.09422,-0.002 0.687152,-0.0228 0.768375,0.0505 0.07148,-0.008 0.113714,-0.008 0.178692,0.0114 0.160823,0.0212 0.33789,0.0587 0.490591,0.10277 0.190065,0.0554 0.225802,-0.075 0.393122,-0.13704 0.0065,-0.0311 0.0048,-0.0261 0.04549,-0.049 0.0406,-0.0245 0.03574,-0.0245 0.0861,-0.0227 0.03086,-0.0554 0.03899,-0.0619 0.113713,-0.0766 0.05035,-0.0554 0.160822,-0.11419 0.251793,-0.11907 l 0.248543,-0.12724 c 0.23555,-0.0391 0.35576,-0.13378 0.659536,-0.0963 0.01625,0.0293 0.03412,0.0718 0.04874,0.11746 0.02598,0.0359 0.05035,0.0799 0.04874,0.15006 l 0.06336,0.23003 c 0.02437,0.12397 0.09097,0.70473 0,0.79444 0.0098,0.0604 0.0098,0.13703 -0.02112,0.18272 -0.01137,0.0652 -0.04224,0.13703 -0.04712,0.18269 -0.0065,0.0637 0.03086,0.0864 0.05849,0.1403 0.04874,0.009 0.03249,0.002 0.04386,0.0571 0.06011,0.0293 0.01949,-0.002 0.05848,0.0505 0.01463,0.0179 0.02112,0.0326 0.03086,0.0489 0.03249,0.0506 0.04386,0.0586 0.06173,0.124 0.01137,0.006 0.0048,0 0.02275,0.0179 l 0.05035,0.0784 c 0.02437,0.0473 0.03574,0.0637 0.03249,0.11583 0.03574,0.0245 0,-0.009 0.039,0.0359 0.0098,0.0114 0.01137,0.0179 0.01949,0.0311 0.06822,0.11909 0.142953,0.43394 0.157573,0.5677 l 0.0098,0.0131 -0.0032,0.10112 c 0.03411,0.0391 0.02923,0.0734 0.03411,0.13539 0.01137,0.14355 0.01137,0.89723 -0.06497,0.99673 l -0.0065,0.0881 c -0.0098,0.14682 -0.09097,0.52854 -0.172192,0.60847 0.0017,0.0718 -0.03737,0.17781 -0.08772,0.20717 -0.01463,0.0816 -0.03249,0.0996 -0.07148,0.1664 -0.013,0.0212 -0.02598,0.0473 -0.04224,0.0718 -0.02598,0.0407 -0.0081,0.0375 -0.04874,0.0473 -0.03086,0.0881 -0.167319,0.27405 -0.24692,0.30505 l -0.0065,0.0132 c -0.05361,0.10931 -0.427237,0.39966 -0.584811,0.44372 -0.05522,0.067 -0.368755,0.20228 -0.488965,0.20065 l -0.318398,0.1093 -0.175443,0.0212 c -0.01462,0.0114 -0.0098,0.009 -0.03574,0.0212 -0.0048,0.002 -0.02112,0.006 -0.02598,0.008 -0.02598,0.006 -0.05685,0.006 -0.08123,0.009 -0.05687,0.0179 -0.108841,0.0261 -0.165697,0.008 -0.04549,0.0425 -0.100717,0.0391 -0.172194,0.0457 0.01624,0.0652 0.2258,0.23165 0.281032,0.50734 0.03737,0.0293 0.0406,0.10608 0.0406,0.1615 0.01788,0.0164 0.0098,0.003 0.02275,0.0293 l 0.02275,0.10609 c 0.07311,0.61173 -0.01137,2.00977 0.03899,2.22346 0.03411,0.14845 0.09423,0.12724 0.131582,0.18433 0.09096,0.0212 0.131582,0.0376 0.233925,0.0278 0.105595,-0.0245 0.27291,-0.11746 0.380125,-0.11256 0.04549,-0.0652 0.259916,-0.14519 0.349261,-0.17128 0.02112,-0.0359 0.198187,-0.1142 0.26479,-0.13052 0.0081,-0.0114 0.0081,-0.0147 0.03411,-0.0343 0.02437,-0.0163 0.04224,-0.0245 0.06173,-0.0359 0.04549,-0.0261 0.06661,-0.0457 0.121836,-0.0473 0.03737,-0.0637 0.06497,-0.0652 0.126708,-0.10435 0.05035,-0.0326 0.08772,-0.0702 0.141329,-0.0766 l 0.220928,-0.17291 c 0.0861,-0.0652 0.14133,-0.10767 0.21443,-0.17129 0.07311,-0.062 0.133207,-0.10608 0.211182,-0.17455 0.251792,-0.22186 0.555571,-0.52529 0.750507,-0.79608 0.05523,-0.075 0.110464,-0.16965 0.185188,-0.2088 0,-0.0604 0.05686,-0.11421 0.08772,-0.13214 0.01949,-0.0766 0.05199,-0.11583 0.105585,-0.15172 0.0081,-0.067 0.0536,-0.12887 0.08772,-0.18271 0.0406,-0.0685 0.06336,-0.12397 0.120211,-0.16149 0.0032,-0.0586 0.03411,-0.13213 0.07311,-0.14355 l 0.01137,-0.0391 c 0.03086,-0.0555 0.04711,-0.0945 0.07148,-0.15172 0.03249,-0.0701 0.03249,-0.0881 0.08446,-0.12887 l -0.0032,-0.0179 c 0.01625,-0.0571 0.07635,-0.23817 0.129959,-0.28059 -0.013,-0.0735 0.03737,-0.17619 0.07311,-0.23166 0.01949,-0.14028 0.08934,-0.29853 0.131582,-0.44208 0.08934,-0.31647 0.144579,-0.61174 0.185189,-0.93636 0.01625,-0.12562 0.0065,-0.39641 0.05522,-0.49593 v -0.69819 c -0.04386,-0.0766 -0.07148,-0.58074 -0.09423,-0.72103 -0.03737,-0.23491 -0.116959,-0.46003 -0.146201,-0.67537 -0.03574,-0.0636 -0.12996,-0.35888 -0.121835,-0.43555 -0.03737,-0.0293 -0.02762,-0.0179 -0.05199,-0.0685 -0.01463,-0.0311 -0.01949,-0.0505 -0.03086,-0.0816 -0.02275,-0.0604 -0.0406,-0.10276 -0.05035,-0.16803 -0.03899,-0.0293 -0.04549,-0.0636 -0.04224,-0.1207 -0.05036,-0.0311 -0.06336,-0.0784 -0.0796,-0.14845 -0.0017,0 -0.0048,0 -0.01949,-0.0164 -0.04386,-0.0473 -0.06985,-0.13376 -0.09098,-0.19738 l -0.136455,-0.23164 -0.01137,-0.067 c -0.06661,-0.0457 -0.178692,-0.23001 -0.212806,-0.31974 l 0.0048,-0.003 c -0.02598,-0.009 -0.02112,0.009 -0.01788,-0.0245 -0.05522,-0.0277 -0.01949,0 -0.05848,-0.049 -0.01137,-0.0132 -0.02599,-0.0359 -0.03899,-0.0555 -0.03411,-0.0473 -0.05361,-0.0718 -0.07635,-0.13214 -0.0065,-0.003 -0.0017,0.006 -0.03086,-0.0197 -0.0081,-0.006 -0.01625,-0.0164 -0.02275,-0.0245 -0.02762,-0.0343 -0.02923,-0.0311 -0.03087,-0.075 l -0.07635,-0.0766 c -0.02437,-0.0293 -0.03899,-0.0522 -0.06173,-0.093 -0.04386,-0.008 -0.129958,-0.0979 -0.133206,-0.15498 -0.06336,-0.0261 -0.09747,-0.0637 -0.115338,-0.12562 -0.04874,-0.0212 -0.149451,-0.11582 -0.168945,-0.16639 -0.05848,-0.0196 -0.0861,-0.0473 -0.103972,-0.10767 -0.02437,-0.008 -0.428861,-0.31484 -0.445105,-0.37195 l -0.0066,-0.003 c -0.06336,-0.0245 -0.06985,-0.0359 -0.121835,-0.0718 -0.01788,-0.0131 -0.03248,-0.0212 -0.04711,-0.0326 -0.03249,-0.0311 -0.02275,-0.0261 -0.03737,-0.0522 l -0.013,-0.0164 -0.04386,-0.0212 -0.02112,-0.009 c -0.05848,-0.0197 -0.268037,-0.14356 -0.30215,-0.20718 -0.0861,0 -0.246921,-0.1142 -0.295655,-0.15987 -0.06336,-0.004 -0.110463,-0.0359 -0.17057,-0.067 -0.02598,-0.013 -0.04712,-0.0228 -0.07311,-0.0375 -0.01949,-0.009 -0.01949,-0.009 -0.0406,-0.0261 -0.02275,-0.0197 -0.0081,-0.006 -0.02598,-0.0293 -0.06336,0.008 -0.136456,-0.0293 -0.172194,-0.0637 -0.03737,-0.008 -0.620548,-0.19901 -0.662785,-0.24305 l -0.125085,-0.0245 c -0.209557,-0.0228 -0.433733,-0.0996 -0.659536,-0.12887 -0.116962,-0.0147 -0.605927,-0.044 -0.666033,-0.0832 h -0.589665 c -0.06009,0.0619 -0.488965,0.07 -0.610801,0.0897 -0.198186,0.0343 -0.391499,0.0798 -0.586434,0.11908 z"
       style="fill:none;stroke:#4e9bda;stroke-width:0.30860093;stroke-linecap:butt;stroke-linejoin:miter;stroke-miterlimit:4;stroke-dasharray:none;stroke-opacity:1"
       inkscape:connector-curvature="0" />
  </g>
</svg>
