<?xml version="1.0" encoding="UTF-8" standalone="no"?>
<!-- Generator: Adobe Illustrator 20.0.0, SVG Export Plug-In . SVG Version: 6.00 Build 0)  -->

<svg
   xmlns:dc="http://purl.org/dc/elements/1.1/"
   xmlns:cc="http://creativecommons.org/ns#"
   xmlns:rdf="http://www.w3.org/1999/02/22-rdf-syntax-ns#"
   xmlns:svg="http://www.w3.org/2000/svg"
   xmlns="http://www.w3.org/2000/svg"
   xmlns:sodipodi="http://sodipodi.sourceforge.net/DTD/sodipodi-0.dtd"
   xmlns:inkscape="http://www.inkscape.org/namespaces/inkscape"
   version="1.1"
   id="Layer_1"
   x="0px"
   y="0px"
   viewBox="0 0 117 133.99974"
   xml:space="preserve"
   sodipodi:docname="metall.svg"
   width="117"
   height="133.99974"
   inkscape:version="0.92.2 (5c3e80d, 2017-08-06)"><metadata
     id="metadata9399"><rdf:RDF><cc:Work
         rdf:about=""><dc:format>image/svg+xml</dc:format><dc:type
           rdf:resource="http://purl.org/dc/dcmitype/StillImage" /><dc:title /></cc:Work></rdf:RDF></metadata><defs
     id="defs9397"><marker
       inkscape:stockid="Arrow1Lend"
       orient="auto"
       refY="0.0"
       refX="0.0"
       id="marker4370"
       style="overflow:visible;"
       inkscape:isstock="true"><path
         id="path4110"
         d="M 0.0,0.0 L 5.0,-5.0 L -12.5,0.0 L 5.0,5.0 L 0.0,0.0 z "
         style="fill-rule:evenodd;stroke:#000000;stroke-width:1pt;stroke-opacity:1;fill:#000000;fill-opacity:1"
         transform="scale(0.8) rotate(180) translate(12.5,0)" /></marker><marker
       inkscape:stockid="Arrow1Lend"
       orient="auto"
       refY="0"
       refX="0"
       id="marker14693"
       style="overflow:visible"
       inkscape:isstock="true"><path
         id="path14691"
         d="M 0,0 5,-5 -12.5,0 5,5 Z"
         style="fill:#000000;fill-opacity:1;fill-rule:evenodd;stroke:#000000;stroke-width:1.00000003pt;stroke-opacity:1"
         transform="matrix(-0.8,0,0,-0.8,-10,0)"
         inkscape:connector-curvature="0" /></marker><marker
       inkscape:stockid="Arrow1Lend"
       orient="auto"
       refY="0"
       refX="0"
       id="Arrow1Lend"
       style="overflow:visible"
       inkscape:isstock="true"><path
         id="path14156"
         d="M 0,0 5,-5 -12.5,0 5,5 Z"
         style="fill:#000000;fill-opacity:1;fill-rule:evenodd;stroke:#000000;stroke-width:1.00000003pt;stroke-opacity:1"
         transform="matrix(-0.8,0,0,-0.8,-10,0)"
         inkscape:connector-curvature="0" /></marker><marker
       inkscape:stockid="TriangleOutL"
       orient="auto"
       refY="0"
       refX="0"
       id="TriangleOutL"
       style="overflow:visible"
       inkscape:isstock="true"><path
         id="path14295"
         d="M 5.77,0 -2.88,5 V -5 Z"
         style="fill:#000000;fill-opacity:1;fill-rule:evenodd;stroke:#000000;stroke-width:1.00000003pt;stroke-opacity:1"
         transform="scale(0.8)"
         inkscape:connector-curvature="0" /></marker><marker
       inkscape:stockid="Arrow2Lend"
       orient="auto"
       refY="0"
       refX="0"
       id="Arrow2Lend"
       style="overflow:visible"
       inkscape:isstock="true"><path
         id="path14174"
         style="fill:#000000;fill-opacity:1;fill-rule:evenodd;stroke:#000000;stroke-width:0.625;stroke-linejoin:round;stroke-opacity:1"
         d="M 8.7185878,4.0337352 -2.2072895,0.01601326 8.7185884,-4.0017078 c -1.7454984,2.3720609 -1.7354408,5.6174519 -6e-7,8.035443 z"
         transform="matrix(-1.1,0,0,-1.1,-1.1,0)"
         inkscape:connector-curvature="0" /></marker><marker
       inkscape:stockid="Arrow1Lend"
       orient="auto"
       refY="0"
       refX="0"
       id="marker14693-8"
       style="overflow:visible"
       inkscape:isstock="true"><path
         id="path14691-4"
         d="M 0,0 5,-5 -12.5,0 5,5 Z"
         style="fill:#000000;fill-opacity:1;fill-rule:evenodd;stroke:#000000;stroke-width:1.00000003pt;stroke-opacity:1"
         transform="matrix(-0.8,0,0,-0.8,-10,0)"
         inkscape:connector-curvature="0" /></marker><marker
       inkscape:stockid="Arrow1Lend"
       orient="auto"
       refY="0"
       refX="0"
       id="Arrow1Lend-3"
       style="overflow:visible"
       inkscape:isstock="true"><path
         id="path14156-3"
         d="M 0,0 5,-5 -12.5,0 5,5 Z"
         style="fill:#000000;fill-opacity:1;fill-rule:evenodd;stroke:#000000;stroke-width:1.00000003pt;stroke-opacity:1"
         transform="matrix(-0.8,0,0,-0.8,-10,0)"
         inkscape:connector-curvature="0" /></marker></defs><sodipodi:namedview
     pagecolor="#ffffff"
     bordercolor="#666666"
     borderopacity="1"
     objecttolerance="10"
     gridtolerance="10"
     guidetolerance="10"
     inkscape:pageopacity="0"
     inkscape:pageshadow="2"
     inkscape:window-width="1366"
     inkscape:window-height="705"
     id="namedview9395"
     showgrid="false"
     fit-margin-top="0"
     fit-margin-left="0"
     fit-margin-right="0"
     fit-margin-bottom="0"
     inkscape:zoom="1.4142136"
     inkscape:cx="-19.77562"
     inkscape:cy="103.99952"
     inkscape:window-x="-8"
     inkscape:window-y="-8"
     inkscape:window-maximized="1"
     inkscape:current-layer="Layer_1" /><style
     type="text/css"
     id="style9386">
	.st0{fill:none;stroke:#000000;stroke-width:3.4676;stroke-linecap:round;stroke-linejoin:round;stroke-miterlimit:10;}
</style><g
     id="g30737"><path
       style="color:#000000;font-style:normal;font-variant:normal;font-weight:normal;font-stretch:normal;font-size:medium;line-height:normal;font-family:sans-serif;font-variant-ligatures:normal;font-variant-position:normal;font-variant-caps:normal;font-variant-numeric:normal;font-variant-alternates:normal;font-feature-settings:normal;text-indent:0;text-align:start;text-decoration:none;text-decoration-line:none;text-decoration-style:solid;text-decoration-color:#000000;letter-spacing:normal;word-spacing:normal;text-transform:none;writing-mode:lr-tb;direction:ltr;text-orientation:mixed;dominant-baseline:auto;baseline-shift:baseline;text-anchor:start;white-space:normal;shape-padding:0;clip-rule:nonzero;display:inline;overflow:visible;visibility:visible;opacity:1;isolation:auto;mix-blend-mode:normal;color-interpolation:sRGB;color-interpolation-filters:linearRGB;solid-color:#000000;solid-opacity:1;vector-effect:none;fill:#000000;fill-opacity:1;fill-rule:nonzero;stroke:none;stroke-width:0.5;stroke-linecap:round;stroke-linejoin:round;stroke-miterlimit:10;stroke-dasharray:none;stroke-dashoffset:0;stroke-opacity:1;color-rendering:auto;image-rendering:auto;shape-rendering:auto;text-rendering:auto;enable-background:accumulate"
       d="M 58.550781,9.6992188 C 26.215688,9.6992187 0,35.914907 0,68.25 c 0,24.803914 15.464841,46.09646 37.259766,54.5332 a 0.25009014,0.25009014 0 1 0 0.179687,-0.46679 C 15.834378,113.95315 0.5,92.846086 0.5,68.25 0.5,36.185093 26.485874,10.199219 58.550781,10.199219 a 0.250025,0.250025 0 1 0 0,-0.5000002 z"
       id="path9390"
       inkscape:connector-curvature="0" /><path
       style="fill:#000000;fill-opacity:1;fill-rule:evenodd;stroke:#000000;stroke-width:0.40000002pt;stroke-opacity:1"
       d="m 53.55,9.949866 -2,2 7,-2 -7,-2 z"
       id="path30743"
       inkscape:connector-curvature="0" /></g><g
     id="g30799"><path
       style="color:#000000;font-style:normal;font-variant:normal;font-weight:normal;font-stretch:normal;font-size:medium;line-height:normal;font-family:sans-serif;font-variant-ligatures:normal;font-variant-position:normal;font-variant-caps:normal;font-variant-numeric:normal;font-variant-alternates:normal;font-feature-settings:normal;text-indent:0;text-align:start;text-decoration:none;text-decoration-line:none;text-decoration-style:solid;text-decoration-color:#000000;letter-spacing:normal;word-spacing:normal;text-transform:none;writing-mode:lr-tb;direction:ltr;text-orientation:mixed;dominant-baseline:auto;baseline-shift:baseline;text-anchor:start;white-space:normal;shape-padding:0;clip-rule:nonzero;display:inline;overflow:visible;visibility:visible;opacity:1;isolation:auto;mix-blend-mode:normal;color-interpolation:sRGB;color-interpolation-filters:linearRGB;solid-color:#000000;solid-opacity:1;vector-effect:none;fill:#000000;fill-opacity:1;fill-rule:nonzero;stroke:none;stroke-width:0.5;stroke-linecap:round;stroke-linejoin:round;stroke-miterlimit:10;stroke-dasharray:none;stroke-dashoffset:0;stroke-opacity:1;color-rendering:auto;image-rendering:auto;shape-rendering:auto;text-rendering:auto;enable-background:accumulate"
       d="m 81.125,14.298828 a 0.250025,0.250025 0 0 0 -0.07227,0.482422 C 101.86152,23.542845 116.5,44.25166 116.5,68.25 c 0,32.06491 -25.985874,58.05078 -58.050781,58.05078 a 0.250025,0.250025 0 1 0 0,0.5 C 90.784312,126.80078 117,100.5851 117,68.25 117,44.04834 102.2373,23.158717 81.246094,14.320312 A 0.250025,0.250025 0 0 0 81.125,14.298828 Z"
       id="path9392"
       inkscape:connector-curvature="0" /><path
       inkscape:connector-curvature="0"
       style="fill:#000000;fill-opacity:1;fill-rule:evenodd;stroke:#000000;stroke-width:0.40000002pt;stroke-opacity:1"
       d="m 63.45,126.54987 2,-2 -7,2 7,2 z"
       id="path30805" /></g><g
     transform="translate(0.58057321,-8.2886382)"
     aria-label="Al"
     style="font-style:normal;font-weight:normal;font-size:14.66666698px;line-height:1.25;font-family:sans-serif;letter-spacing:0px;word-spacing:0px;fill:#000000;fill-opacity:1;stroke:none"
     id="text16800"><path
       inkscape:connector-curvature="0"
       d="M 17.839844,74.999741 H 16.328776 L 15.283203,72.027735 H 10.671224 L 9.6256511,74.999741 H 8.1861979 L 12.067708,64.336329 h 1.890625 z m -2.99349,-4.189454 -1.86914,-5.235026 -1.876302,5.235026 z"
       id="path4458" /><path
       inkscape:connector-curvature="0"
       d="m 20.711589,74.999741 h -1.346354 v -11.14323 h 1.346354 z"
       id="path4460" /></g><g
     transform="translate(0.58057321,-8.2886382)"
     aria-label="13"
     style="font-style:normal;font-weight:normal;font-size:8px;line-height:1.25;font-family:sans-serif;letter-spacing:0px;word-spacing:0px;fill:#000000;fill-opacity:1;stroke:none"
     id="text16804"><path
       inkscape:connector-curvature="0"
       d="M 9.9510307,62.814194 H 9.2479057 V 58.333725 Q 8.9939995,58.575912 8.579937,58.8181 8.1697807,59.060287 7.8416557,59.181381 v -0.679687 q 0.5898438,-0.277344 1.03125,-0.671875 0.4414063,-0.394532 0.625,-0.765625 h 0.453125 z"
       style="font-style:normal;font-variant:normal;font-weight:normal;font-stretch:normal;font-family:Arial;-inkscape-font-specification:Arial"
       id="path4502" /><path
       inkscape:connector-curvature="0"
       d="m 11.759624,61.302475 0.703125,-0.09375 q 0.121094,0.597656 0.410157,0.863281 0.292968,0.261719 0.710937,0.261719 0.496094,0 0.835938,-0.34375 0.34375,-0.34375 0.34375,-0.851563 0,-0.484375 -0.316407,-0.796875 -0.316406,-0.316406 -0.804687,-0.316406 -0.199219,0 -0.496094,0.07813 l 0.07813,-0.617187 q 0.07031,0.0078 0.113281,0.0078 0.449219,0 0.808594,-0.234375 0.359375,-0.234375 0.359375,-0.722656 0,-0.386719 -0.261719,-0.640625 -0.261718,-0.253906 -0.675781,-0.253906 -0.410156,0 -0.683594,0.257812 -0.273437,0.257813 -0.351562,0.773438 l -0.703125,-0.125 q 0.128906,-0.707032 0.585937,-1.09375 0.457032,-0.390625 1.136719,-0.390625 0.46875,0 0.863281,0.203125 0.394532,0.199218 0.601563,0.546875 0.210937,0.347656 0.210937,0.738281 0,0.371094 -0.199218,0.675781 -0.199219,0.304688 -0.589844,0.484375 0.507812,0.117188 0.789062,0.488281 0.28125,0.367188 0.28125,0.921875 0,0.75 -0.546875,1.273438 -0.546875,0.519531 -1.382812,0.519531 -0.753906,0 -1.253906,-0.449219 -0.496094,-0.449218 -0.566407,-1.164062 z"
       style="font-style:normal;font-variant:normal;font-weight:normal;font-stretch:normal;font-family:Arial;-inkscape-font-specification:Arial"
       id="path4504" /></g><g
     transform="translate(0.58057321,-8.2886382)"
     aria-label="26,9816"
     style="font-style:normal;font-weight:normal;font-size:14.66666698px;line-height:1.25;font-family:sans-serif;letter-spacing:0px;word-spacing:0px;fill:#000000;fill-opacity:1;stroke:none"
     id="text16808"><path
       inkscape:connector-curvature="0"
       d="m 26.665171,73.926987 v 0.675781 h -3.785157 q -0.0078,-0.253906 0.08203,-0.488281 0.144531,-0.386719 0.460937,-0.761719 0.320313,-0.375 0.921875,-0.867188 0.933594,-0.765625 1.261719,-1.210937 0.328125,-0.449219 0.328125,-0.847656 0,-0.417969 -0.300781,-0.703125 -0.296875,-0.289063 -0.777344,-0.289063 -0.507813,0 -0.8125,0.304688 -0.304688,0.304687 -0.308594,0.84375 l -0.722656,-0.07422 q 0.07422,-0.808594 0.558594,-1.230469 0.484375,-0.425781 1.300781,-0.425781 0.824219,0 1.304687,0.457031 0.480469,0.457031 0.480469,1.132813 0,0.34375 -0.140625,0.675781 -0.140625,0.332031 -0.46875,0.699219 -0.324219,0.367187 -1.082031,1.007812 -0.632813,0.53125 -0.8125,0.722656 -0.179688,0.1875 -0.296875,0.378907 z"
       style="font-style:normal;font-variant:normal;font-weight:normal;font-stretch:normal;font-size:8px;font-family:Arial;-inkscape-font-specification:Arial"
       id="path4487" /><path
       inkscape:connector-curvature="0"
       d="m 31.071421,70.278549 -0.699219,0.05469 q -0.09375,-0.414063 -0.265625,-0.601563 -0.285156,-0.300781 -0.703125,-0.300781 -0.335938,0 -0.589844,0.1875 -0.332031,0.242187 -0.523437,0.707031 -0.191407,0.464844 -0.199219,1.324219 0.253906,-0.386719 0.621094,-0.574219 0.367187,-0.1875 0.769531,-0.1875 0.703125,0 1.195312,0.519531 0.496094,0.515625 0.496094,1.335938 0,0.539062 -0.234375,1.003906 -0.230469,0.460938 -0.636719,0.707031 -0.40625,0.246094 -0.921875,0.246094 -0.878906,0 -1.433593,-0.644531 -0.554688,-0.648438 -0.554688,-2.132813 0,-1.660156 0.613281,-2.414062 0.535157,-0.65625 1.441407,-0.65625 0.675781,0 1.105468,0.378906 0.433594,0.378906 0.519532,1.046875 z m -2.871094,2.46875 q 0,0.363281 0.152344,0.695313 0.15625,0.332031 0.433593,0.507812 0.277344,0.171875 0.582032,0.171875 0.445312,0 0.765625,-0.359375 0.320312,-0.359375 0.320312,-0.976562 0,-0.59375 -0.316406,-0.933594 -0.316406,-0.34375 -0.796875,-0.34375 -0.476563,0 -0.808594,0.34375 -0.332031,0.339844 -0.332031,0.894531 z"
       style="font-style:normal;font-variant:normal;font-weight:normal;font-stretch:normal;font-size:8px;font-family:Arial;-inkscape-font-specification:Arial"
       id="path4489" /><path
       inkscape:connector-curvature="0"
       d="m 32.255014,74.602768 v -0.800781 h 0.800782 v 0.800781 q 0,0.441406 -0.15625,0.710937 -0.15625,0.273438 -0.496094,0.421875 l -0.195313,-0.300781 q 0.222657,-0.09766 0.328125,-0.289062 0.105469,-0.1875 0.117188,-0.542969 z"
       style="font-style:normal;font-variant:normal;font-weight:normal;font-stretch:normal;font-size:8px;font-family:Arial;-inkscape-font-specification:Arial"
       id="path4491" /><path
       inkscape:connector-curvature="0"
       d="m 34.200327,73.278549 0.675781,-0.0625 q 0.08594,0.476563 0.328125,0.691406 0.242188,0.214844 0.621094,0.214844 0.324219,0 0.566406,-0.148437 0.246094,-0.148438 0.402344,-0.394532 0.15625,-0.25 0.261719,-0.671875 0.105468,-0.421875 0.105468,-0.859375 0,-0.04687 -0.0039,-0.140625 -0.210937,0.335938 -0.578125,0.546875 -0.363281,0.207032 -0.789062,0.207032 -0.710938,0 -1.203125,-0.515625 -0.492188,-0.515625 -0.492188,-1.359375 0,-0.871094 0.511719,-1.402344 0.515625,-0.53125 1.289062,-0.53125 0.558594,0 1.019532,0.300781 0.464843,0.300781 0.703125,0.859375 0.242187,0.554688 0.242187,1.609375 0,1.097656 -0.238281,1.75 -0.238281,0.648438 -0.710938,0.988281 -0.46875,0.339844 -1.101562,0.339844 -0.671875,0 -1.097656,-0.371094 -0.425782,-0.375 -0.511719,-1.050781 z m 2.878906,-2.527344 q 0,-0.605468 -0.324219,-0.960937 -0.320312,-0.355469 -0.773437,-0.355469 -0.46875,0 -0.816406,0.382813 -0.347657,0.382812 -0.347657,0.992187 0,0.546875 0.328125,0.890625 0.332032,0.339844 0.816407,0.339844 0.488281,0 0.800781,-0.339844 0.316406,-0.34375 0.316406,-0.949219 z"
       style="font-style:normal;font-variant:normal;font-weight:normal;font-stretch:normal;font-size:8px;font-family:Arial;-inkscape-font-specification:Arial"
       id="path4493" /><path
       inkscape:connector-curvature="0"
       d="m 39.630014,71.497299 q -0.4375,-0.160156 -0.648437,-0.457031 -0.210938,-0.296875 -0.210938,-0.710938 0,-0.625 0.449219,-1.050781 0.449219,-0.425781 1.195313,-0.425781 0.75,0 1.207031,0.4375 0.457031,0.433594 0.457031,1.058594 0,0.398437 -0.210937,0.695312 -0.207032,0.292969 -0.632813,0.453125 0.527344,0.171875 0.800781,0.554688 0.277344,0.382812 0.277344,0.914062 0,0.734375 -0.519531,1.234375 -0.519531,0.5 -1.367188,0.5 -0.847656,0 -1.367187,-0.5 -0.519531,-0.503906 -0.519531,-1.253906 0,-0.558594 0.28125,-0.933594 0.285156,-0.378906 0.808593,-0.515625 z m -0.140625,-1.191406 q 0,0.40625 0.261719,0.664062 0.261719,0.257813 0.679688,0.257813 0.40625,0 0.664062,-0.253906 0.261719,-0.257813 0.261719,-0.628907 0,-0.386718 -0.269531,-0.648437 -0.265625,-0.265625 -0.664063,-0.265625 -0.402344,0 -0.667969,0.257812 -0.265625,0.257813 -0.265625,0.617188 z m -0.226562,2.644531 q 0,0.300781 0.140625,0.582031 0.144531,0.28125 0.425781,0.4375 0.28125,0.152344 0.605469,0.152344 0.503906,0 0.832031,-0.324219 0.328125,-0.324218 0.328125,-0.824218 0,-0.507813 -0.339844,-0.839844 -0.335937,-0.332031 -0.84375,-0.332031 -0.496093,0 -0.824218,0.328125 -0.324219,0.328125 -0.324219,0.820312 z"
       style="font-style:normal;font-variant:normal;font-weight:normal;font-stretch:normal;font-size:8px;font-family:Arial;-inkscape-font-specification:Arial"
       id="path4495" /><path
       inkscape:connector-curvature="0"
       d="m 45.649546,74.602768 h -0.703125 v -4.480469 q -0.253907,0.242188 -0.667969,0.484375 -0.410156,0.242188 -0.738281,0.363281 v -0.679687 q 0.589843,-0.277344 1.03125,-0.671875 0.441406,-0.394531 0.625,-0.765625 h 0.453125 z"
       style="font-style:normal;font-variant:normal;font-weight:normal;font-stretch:normal;font-size:8px;font-family:Arial;-inkscape-font-specification:Arial"
       id="path4497" /><path
       inkscape:connector-curvature="0"
       d="m 51.102671,70.278549 -0.699219,0.05469 q -0.09375,-0.414063 -0.265625,-0.601563 -0.285156,-0.300781 -0.703125,-0.300781 -0.335938,0 -0.589844,0.1875 -0.332031,0.242187 -0.523437,0.707031 -0.191407,0.464844 -0.199219,1.324219 0.253906,-0.386719 0.621094,-0.574219 0.367187,-0.1875 0.769531,-0.1875 0.703125,0 1.195312,0.519531 0.496094,0.515625 0.496094,1.335938 0,0.539062 -0.234375,1.003906 -0.230469,0.460938 -0.636719,0.707031 -0.40625,0.246094 -0.921875,0.246094 -0.878906,0 -1.433593,-0.644531 -0.554688,-0.648438 -0.554688,-2.132813 0,-1.660156 0.613281,-2.414062 0.535157,-0.65625 1.441407,-0.65625 0.675781,0 1.105468,0.378906 0.433594,0.378906 0.519532,1.046875 z m -2.871094,2.46875 q 0,0.363281 0.152344,0.695313 0.15625,0.332031 0.433593,0.507812 0.277344,0.171875 0.582032,0.171875 0.445312,0 0.765625,-0.359375 0.320312,-0.359375 0.320312,-0.976562 0,-0.59375 -0.316406,-0.933594 -0.316406,-0.34375 -0.796875,-0.34375 -0.476563,0 -0.808594,0.34375 -0.332031,0.339844 -0.332031,0.894531 z"
       style="font-style:normal;font-variant:normal;font-weight:normal;font-stretch:normal;font-size:8px;font-family:Arial;-inkscape-font-specification:Arial"
       id="path4499" /></g><g
     transform="translate(0.58057321,-8.2886382)"
     aria-label="Ba"
     style="font-style:normal;font-weight:normal;font-size:14.66666698px;line-height:1.25;font-family:sans-serif;letter-spacing:0px;word-spacing:0px;fill:#000000;fill-opacity:1;stroke:none"
     id="text16812"><path
       inkscape:connector-curvature="0"
       d="M 65.791733,74.956322 V 64.457624 h 3.938802 q 1.203125,0 1.926432,0.322265 0.730469,0.315104 1.138672,0.98112 0.415365,0.658854 0.415365,1.382162 0,0.673177 -0.365235,1.267578 -0.365234,0.594401 -1.102864,0.959635 0.952474,0.279297 1.460937,0.952474 0.515625,0.673177 0.515625,1.589844 0,0.73763 -0.315104,1.375 -0.307943,0.630208 -0.766276,0.973958 -0.458333,0.34375 -1.152995,0.522787 -0.6875,0.171875 -1.690104,0.171875 z m 1.389323,-6.08724 h 2.270182 q 0.923828,0 1.32487,-0.121745 0.529948,-0.157552 0.794922,-0.522786 0.272135,-0.365235 0.272135,-0.916667 0,-0.522786 -0.250651,-0.916667 -0.250651,-0.401041 -0.716146,-0.54427 -0.465494,-0.150391 -1.597005,-0.150391 h -2.098307 z m 0,4.848307 h 2.613932 q 0.673177,0 0.945313,-0.05013 0.479817,-0.08594 0.802083,-0.286458 0.322266,-0.200521 0.529948,-0.580078 0.207682,-0.386719 0.207682,-0.888021 0,-0.58724 -0.300781,-1.016927 -0.300781,-0.436849 -0.837891,-0.608724 -0.529948,-0.179037 -1.532552,-0.179037 h -2.427734 z"
       style="font-style:normal;font-variant:normal;font-weight:normal;font-stretch:normal;font-family:Arial;-inkscape-font-specification:Arial"
       id="path4512" /><path
       inkscape:connector-curvature="0"
       d="m 80.444077,74.018171 q -0.716146,0.608724 -1.382162,0.859375 -0.658854,0.250651 -1.417969,0.250651 -1.253255,0 -1.926432,-0.608724 -0.673177,-0.615886 -0.673177,-1.56836 0,-0.558593 0.250651,-1.016927 0.257813,-0.465495 0.666016,-0.744791 0.415364,-0.279297 0.930989,-0.422526 0.379558,-0.100261 1.145834,-0.19336 1.561198,-0.186198 2.298828,-0.44401 0.0072,-0.264974 0.0072,-0.336589 0,-0.78776 -0.365234,-1.110026 -0.494141,-0.436849 -1.468099,-0.436849 -0.909505,0 -1.346354,0.322266 -0.429688,0.315104 -0.63737,1.124349 l -1.260417,-0.171875 q 0.171875,-0.809245 0.565755,-1.303386 0.393881,-0.501302 1.138672,-0.766276 0.744792,-0.272135 1.725912,-0.272135 0.973958,0 1.582682,0.229166 0.608724,0.229167 0.895182,0.580079 0.286459,0.34375 0.401042,0.873698 0.06445,0.329427 0.06445,1.188802 v 1.71875 q 0,1.797526 0.07878,2.277343 0.08594,0.472657 0.329427,0.909506 H 80.701889 Q 80.501368,74.55528 80.444077,74.018171 Z m -0.107422,-2.878907 q -0.701823,0.286459 -2.105469,0.48698 -0.794922,0.114583 -1.124349,0.257812 -0.329427,0.143229 -0.508464,0.422526 -0.179036,0.272135 -0.179036,0.608724 0,0.515625 0.386719,0.859375 0.39388,0.34375 1.145833,0.34375 0.744792,0 1.32487,-0.322266 0.580078,-0.329427 0.852213,-0.895182 0.207683,-0.436849 0.207683,-1.289062 z"
       style="font-style:normal;font-variant:normal;font-weight:normal;font-stretch:normal;font-family:Arial;-inkscape-font-specification:Arial"
       id="path4514" /></g><g
     transform="translate(0.58057321,-8.2886382)"
     aria-label="56"
     style="font-style:normal;font-weight:normal;font-size:8px;line-height:1.25;font-family:sans-serif;letter-spacing:0px;word-spacing:0px;fill:#000000;fill-opacity:1;stroke:none"
     id="text16804-0"><path
       inkscape:connector-curvature="0"
       d="m 65.051575,61.431301 0.738281,-0.0625 q 0.08203,0.539063 0.378906,0.8125 0.300781,0.269531 0.722656,0.269531 0.507813,0 0.859375,-0.382812 0.351563,-0.382813 0.351563,-1.015625 0,-0.601563 -0.339844,-0.949219 -0.335937,-0.347656 -0.882812,-0.347656 -0.339844,0 -0.613282,0.15625 -0.273437,0.152344 -0.429687,0.398437 l -0.660156,-0.08594 0.554687,-2.941406 h 2.847656 v 0.671875 h -2.285156 l -0.308594,1.539062 q 0.515625,-0.359375 1.082032,-0.359375 0.75,0 1.265625,0.519531 0.515625,0.519532 0.515625,1.335938 0,0.777344 -0.453125,1.34375 -0.550782,0.695312 -1.503907,0.695312 -0.78125,0 -1.277343,-0.4375 -0.492188,-0.4375 -0.5625,-1.160156 z"
       style="font-style:normal;font-variant:normal;font-weight:normal;font-stretch:normal;font-family:Arial;-inkscape-font-specification:Arial"
       id="path4507" /><path
       inkscape:connector-curvature="0"
       d="m 73.153137,58.607082 -0.699219,0.05469 q -0.09375,-0.414063 -0.265625,-0.601563 -0.285156,-0.300781 -0.703125,-0.300781 -0.335937,0 -0.589843,0.1875 -0.332032,0.242188 -0.523438,0.707031 -0.191406,0.464844 -0.199219,1.324219 0.253907,-0.386719 0.621094,-0.574219 0.367188,-0.1875 0.769531,-0.1875 0.703125,0 1.195313,0.519532 0.496094,0.515625 0.496094,1.335937 0,0.539063 -0.234375,1.003906 -0.230469,0.460938 -0.636719,0.707032 -0.40625,0.246093 -0.921875,0.246093 -0.878906,0 -1.433594,-0.644531 -0.554687,-0.648437 -0.554687,-2.132812 0,-1.660157 0.613281,-2.414063 0.535156,-0.65625 1.441406,-0.65625 0.675781,0 1.105469,0.378906 0.433594,0.378907 0.519531,1.046875 z m -2.871094,2.46875 q 0,0.363282 0.152344,0.695313 0.15625,0.332031 0.433594,0.507812 0.277344,0.171875 0.582031,0.171875 0.445313,0 0.765625,-0.359375 0.320313,-0.359375 0.320313,-0.976562 0,-0.59375 -0.316407,-0.933594 -0.316406,-0.34375 -0.796875,-0.34375 -0.476562,0 -0.808593,0.34375 -0.332032,0.339844 -0.332032,0.894531 z"
       style="font-style:normal;font-variant:normal;font-weight:normal;font-stretch:normal;font-family:Arial;-inkscape-font-specification:Arial"
       id="path4509" /></g><g
     transform="translate(0.58057321,-8.2886382)"
     aria-label="137,327"
     style="font-style:normal;font-weight:normal;font-size:8px;line-height:1.25;font-family:sans-serif;letter-spacing:0px;word-spacing:0px;fill:#000000;fill-opacity:1;stroke:none"
     id="text16804-8"><path
       inkscape:connector-curvature="0"
       d="m 85.703583,74.24501 h -0.703125 v -4.480468 q -0.253906,0.242187 -0.667969,0.484375 -0.410156,0.242187 -0.738281,0.363281 V 69.93251 q 0.589844,-0.277343 1.03125,-0.671875 0.441406,-0.394531 0.625,-0.765625 h 0.453125 z"
       style="font-style:normal;font-variant:normal;font-weight:normal;font-stretch:normal;font-family:Arial;-inkscape-font-specification:Arial"
       id="path4517" /><path
       inkscape:connector-curvature="0"
       d="m 87.512177,72.733292 0.703125,-0.09375 q 0.121093,0.597656 0.410156,0.863281 0.292969,0.261719 0.710937,0.261719 0.496094,0 0.835938,-0.34375 0.34375,-0.34375 0.34375,-0.851563 0,-0.484375 -0.316406,-0.796875 -0.316407,-0.316406 -0.804688,-0.316406 -0.199219,0 -0.496094,0.07813 l 0.07813,-0.617188 q 0.07031,0.0078 0.113282,0.0078 0.449218,0 0.808593,-0.234375 0.359375,-0.234375 0.359375,-0.722656 0,-0.386719 -0.261718,-0.640625 -0.261719,-0.253907 -0.675782,-0.253907 -0.410156,0 -0.683593,0.257813 -0.273438,0.257812 -0.351563,0.773437 l -0.703125,-0.125 q 0.128906,-0.707031 0.585938,-1.09375 0.457031,-0.390625 1.136718,-0.390625 0.46875,0 0.863282,0.203125 0.394531,0.199219 0.601562,0.546875 0.210938,0.347657 0.210938,0.738282 0,0.371093 -0.199219,0.675781 -0.199219,0.304687 -0.589844,0.484375 0.507813,0.117187 0.789063,0.488281 0.28125,0.367188 0.28125,0.921875 0,0.75 -0.546875,1.273438 -0.546875,0.519531 -1.382813,0.519531 -0.753906,0 -1.253906,-0.449219 -0.496094,-0.449219 -0.566406,-1.164062 z"
       style="font-style:normal;font-variant:normal;font-weight:normal;font-stretch:normal;font-family:Arial;-inkscape-font-specification:Arial"
       id="path4519" /><path
       inkscape:connector-curvature="0"
       d="m 92.00827,69.268448 v -0.675781 h 3.707032 v 0.546875 q -0.546875,0.582031 -1.085938,1.546875 -0.535156,0.964843 -0.828125,1.984375 -0.210937,0.71875 -0.269531,1.574218 h -0.722656 q 0.01172,-0.675781 0.265625,-1.632812 0.253906,-0.957031 0.726562,-1.84375 0.476563,-0.890625 1.011719,-1.5 z"
       style="font-style:normal;font-variant:normal;font-weight:normal;font-stretch:normal;font-family:Arial;-inkscape-font-specification:Arial"
       id="path4521" /><path
       inkscape:connector-curvature="0"
       d="m 96.793427,74.24501 v -0.800781 h 0.800781 v 0.800781 q 0,0.441407 -0.15625,0.710938 -0.15625,0.273437 -0.496094,0.421875 l -0.195312,-0.300781 q 0.222656,-0.09766 0.328125,-0.289063 0.105468,-0.1875 0.117187,-0.542969 z"
       style="font-style:normal;font-variant:normal;font-weight:normal;font-stretch:normal;font-family:Arial;-inkscape-font-specification:Arial"
       id="path4523" /><path
       inkscape:connector-curvature="0"
       d="m 98.637177,72.733292 0.703125,-0.09375 q 0.121093,0.597656 0.410156,0.863281 0.292972,0.261719 0.710942,0.261719 0.49609,0 0.83593,-0.34375 0.34375,-0.34375 0.34375,-0.851563 0,-0.484375 -0.3164,-0.796875 -0.31641,-0.316406 -0.80469,-0.316406 -0.19922,0 -0.49609,0.07813 l 0.0781,-0.617188 q 0.0703,0.0078 0.11328,0.0078 0.44922,0 0.8086,-0.234375 0.35937,-0.234375 0.35937,-0.722656 0,-0.386719 -0.26172,-0.640625 -0.26172,-0.253907 -0.67578,-0.253907 -0.41016,0 -0.683593,0.257813 -0.273438,0.257812 -0.351563,0.773437 l -0.703125,-0.125 q 0.128906,-0.707031 0.585938,-1.09375 0.457031,-0.390625 1.136723,-0.390625 0.46875,0 0.86328,0.203125 0.39453,0.199219 0.60156,0.546875 0.21094,0.347657 0.21094,0.738282 0,0.371093 -0.19922,0.675781 -0.19922,0.304687 -0.58985,0.484375 0.50782,0.117187 0.78907,0.488281 0.28125,0.367188 0.28125,0.921875 0,0.75 -0.54688,1.273438 -0.54687,0.519531 -1.38281,0.519531 -0.753907,0 -1.253907,-0.449219 -0.496094,-0.449219 -0.566406,-1.164062 z"
       style="font-style:normal;font-variant:normal;font-weight:normal;font-stretch:normal;font-family:Arial;-inkscape-font-specification:Arial"
       id="path4525" /><path
       inkscape:connector-curvature="0"
       d="m 106.78171,73.569229 v 0.675781 h -3.78516 q -0.008,-0.253906 0.082,-0.488281 0.14453,-0.386719 0.46094,-0.761719 0.32031,-0.375 0.92188,-0.867187 0.93359,-0.765625 1.26171,-1.210938 0.32813,-0.449218 0.32813,-0.847656 0,-0.417969 -0.30078,-0.703125 -0.29688,-0.289062 -0.77735,-0.289062 -0.50781,0 -0.8125,0.304687 -0.30468,0.304688 -0.30859,0.84375 l -0.72266,-0.07422 q 0.0742,-0.808593 0.5586,-1.230468 0.48437,-0.425782 1.30078,-0.425782 0.82422,0 1.30469,0.457032 0.48047,0.457031 0.48047,1.132812 0,0.34375 -0.14063,0.675781 -0.14062,0.332032 -0.46875,0.699219 -0.32422,0.367188 -1.08203,1.007813 -0.63281,0.53125 -0.8125,0.722656 -0.17969,0.1875 -0.29688,0.378906 z"
       style="font-style:normal;font-variant:normal;font-weight:normal;font-stretch:normal;font-family:Arial;-inkscape-font-specification:Arial"
       id="path4527" /><path
       inkscape:connector-curvature="0"
       d="m 107.5864,69.268448 v -0.675781 h 3.70703 v 0.546875 q -0.54688,0.582031 -1.08594,1.546875 -0.53516,0.964843 -0.82813,1.984375 -0.21093,0.71875 -0.26953,1.574218 h -0.72265 q 0.0117,-0.675781 0.26562,-1.632812 0.25391,-0.957031 0.72656,-1.84375 0.47657,-0.890625 1.01172,-1.5 z"
       style="font-style:normal;font-variant:normal;font-weight:normal;font-stretch:normal;font-family:Arial;-inkscape-font-specification:Arial"
       id="path4529" /></g><g
     transform="translate(0.58057321,-8.2886382)"
     aria-label="Os"
     style="font-style:normal;font-weight:normal;font-size:14.66666698px;line-height:1.25;font-family:sans-serif;letter-spacing:0px;word-spacing:0px;fill:#000000;fill-opacity:1;stroke:none"
     id="text16800-8"><path
       inkscape:connector-curvature="0"
       d="m 51.767979,104.75959 q 0,-2.61393 1.403646,-4.08919 1.403645,-1.482425 3.623698,-1.482425 1.453776,0 2.621093,0.694662 1.167318,0.694663 1.776042,1.940753 0.615885,1.23893 0.615885,2.81446 0,1.597 -0.644531,2.85742 -0.644531,1.26041 -1.826172,1.91211 -1.18164,0.64453 -2.549479,0.64453 -1.482422,0 -2.64974,-0.71615 -1.167317,-0.71614 -1.76888,-1.95508 -0.601562,-1.23893 -0.601562,-2.62109 z m 1.432291,0.0215 q 0,1.89779 1.016927,2.99349 1.024089,1.08855 2.563803,1.08855 1.568359,0 2.578125,-1.10287 1.016927,-1.10286 1.016927,-3.12956 0,-1.2819 -0.436849,-2.23437 -0.429688,-0.95964 -1.267578,-1.48242 -0.83073,-0.52995 -1.869141,-0.52995 -1.47526,0 -2.542318,1.01693 -1.059896,1.00976 -1.059896,3.3802 z"
       style="font-style:normal;font-variant:normal;font-weight:normal;font-stretch:normal;font-family:Arial;-inkscape-font-specification:Arial"
       id="path4537" /><path
       inkscape:connector-curvature="0"
       d="m 62.911208,107.60269 1.27474,-0.20052 q 0.107422,0.76627 0.594401,1.17448 0.49414,0.4082 1.375,0.4082 0.888021,0 1.317708,-0.35807 0.429688,-0.36524 0.429688,-0.85222 0,-0.43684 -0.379558,-0.6875 -0.264974,-0.17187 -1.317708,-0.43684 -1.417969,-0.35808 -1.969401,-0.61589 -0.544271,-0.26497 -0.830729,-0.72331 -0.279297,-0.46549 -0.279297,-1.02409 0,-0.50846 0.229167,-0.93815 0.236328,-0.43685 0.637369,-0.7233 0.300782,-0.22201 0.816407,-0.3724 0.522786,-0.15755 1.117187,-0.15755 0.895182,0 1.56836,0.25781 0.680338,0.25781 1.002604,0.70182 0.322265,0.43685 0.44401,1.17448 l -1.260416,0.17188 q -0.08594,-0.58724 -0.501303,-0.91667 -0.408203,-0.32943 -1.160156,-0.32943 -0.888021,0 -1.267578,0.29362 -0.379557,0.29362 -0.379557,0.6875 0,0.25065 0.157552,0.45118 0.157552,0.20768 0.49414,0.34375 0.19336,0.0716 1.138672,0.32942 1.367839,0.36524 1.904948,0.60156 0.544271,0.22917 0.852214,0.67318 0.307943,0.44401 0.307943,1.10287 0,0.64453 -0.379558,1.21744 -0.372396,0.56576 -1.08138,0.88086 -0.708984,0.30795 -1.604167,0.30795 -1.482422,0 -2.263021,-0.61589 -0.773437,-0.61588 -0.988281,-1.82617 z"
       style="font-style:normal;font-variant:normal;font-weight:normal;font-stretch:normal;font-family:Arial;-inkscape-font-specification:Arial"
       id="path4539" /></g><g
     transform="translate(0.58057321,-8.2886382)"
     aria-label="76"
     style="font-style:normal;font-weight:normal;font-size:8px;line-height:1.25;font-family:sans-serif;letter-spacing:0px;word-spacing:0px;fill:#000000;fill-opacity:1;stroke:none"
     id="text16804-06"><path
       inkscape:connector-curvature="0"
       d="m 51.413948,92.602974 v -0.675781 h 3.707031 v 0.546875 q -0.546875,0.582031 -1.085937,1.546875 -0.535156,0.964843 -0.828125,1.984375 -0.210938,0.71875 -0.269531,1.574218 h -0.722657 q 0.01172,-0.675781 0.265625,-1.632812 0.253907,-0.957031 0.726563,-1.84375 0.476562,-0.890625 1.011719,-1.5 z"
       style="font-style:normal;font-variant:normal;font-weight:normal;font-stretch:normal;font-family:Arial;-inkscape-font-specification:Arial"
       id="path4532" /><path
       inkscape:connector-curvature="0"
       d="m 59.468636,93.255318 -0.699219,0.05469 q -0.09375,-0.414062 -0.265625,-0.601562 -0.285156,-0.300782 -0.703125,-0.300782 -0.335938,0 -0.589844,0.1875 -0.332031,0.242188 -0.523437,0.707032 -0.191407,0.464843 -0.199219,1.324218 0.253906,-0.386718 0.621094,-0.574218 0.367187,-0.1875 0.769531,-0.1875 0.703125,0 1.195312,0.519531 0.496094,0.515625 0.496094,1.335937 0,0.539063 -0.234375,1.003907 -0.230469,0.460937 -0.636719,0.707031 -0.40625,0.246094 -0.921875,0.246094 -0.878906,0 -1.433593,-0.644532 -0.554688,-0.648437 -0.554688,-2.132812 0,-1.660156 0.613281,-2.414063 0.535157,-0.65625 1.441407,-0.65625 0.675781,0 1.105468,0.378907 0.433594,0.378906 0.519532,1.046875 z m -2.871094,2.46875 q 0,0.363281 0.152344,0.695312 0.15625,0.332031 0.433593,0.507813 0.277344,0.171875 0.582032,0.171875 0.445312,0 0.765625,-0.359375 0.320312,-0.359375 0.320312,-0.976563 0,-0.59375 -0.316406,-0.933594 -0.316406,-0.34375 -0.796875,-0.34375 -0.476563,0 -0.808594,0.34375 -0.332031,0.339844 -0.332031,0.894532 z"
       style="font-style:normal;font-variant:normal;font-weight:normal;font-stretch:normal;font-family:Arial;-inkscape-font-specification:Arial"
       id="path4534" /></g><g
     transform="translate(0.58057321,-8.2886382)"
     aria-label="190,23"
     style="font-style:normal;font-weight:normal;font-size:8px;line-height:1.25;font-family:sans-serif;letter-spacing:0px;word-spacing:0px;fill:#000000;fill-opacity:1;stroke:none"
     id="text16804-1"><path
       inkscape:connector-curvature="0"
       d="M 73.804085,109.9539 H 73.10096 v -4.48047 q -0.253906,0.24219 -0.667969,0.48438 -0.410156,0.24219 -0.738281,0.36328 v -0.67969 q 0.589844,-0.27734 1.03125,-0.67187 0.441406,-0.39453 0.625,-0.76563 h 0.453125 z"
       style="font-style:normal;font-variant:normal;font-weight:normal;font-stretch:normal;font-family:Arial;-inkscape-font-specification:Arial"
       id="path4542" /><path
       inkscape:connector-curvature="0"
       d="m 75.714241,108.62968 0.675781,-0.0625 q 0.08594,0.47657 0.328125,0.69141 0.242188,0.21484 0.621094,0.21484 0.324219,0 0.566406,-0.14843 0.246094,-0.14844 0.402344,-0.39453 0.15625,-0.25 0.261719,-0.67188 0.105469,-0.42187 0.105469,-0.85937 0,-0.0469 -0.0039,-0.14063 -0.210937,0.33594 -0.578125,0.54688 -0.363281,0.20703 -0.789062,0.20703 -0.710938,0 -1.203125,-0.51563 -0.492188,-0.51562 -0.492188,-1.35937 0,-0.8711 0.511719,-1.40235 0.515625,-0.53125 1.289063,-0.53125 0.558593,0 1.019531,0.30078 0.464844,0.30079 0.703125,0.85938 0.242187,0.55469 0.242187,1.60937 0,1.09766 -0.238281,1.75 -0.238281,0.64844 -0.710937,0.98829 -0.46875,0.33984 -1.101563,0.33984 -0.671875,0 -1.097656,-0.37109 -0.425781,-0.375 -0.511719,-1.05079 z m 2.878906,-2.52734 q 0,-0.60547 -0.324218,-0.96094 -0.320313,-0.35547 -0.773438,-0.35547 -0.46875,0 -0.816406,0.38282 -0.347656,0.38281 -0.347656,0.99218 0,0.54688 0.328125,0.89063 0.332031,0.33984 0.816406,0.33984 0.488281,0 0.800781,-0.33984 0.316406,-0.34375 0.316406,-0.94922 z"
       style="font-style:normal;font-variant:normal;font-weight:normal;font-stretch:normal;font-family:Arial;-inkscape-font-specification:Arial"
       id="path4544" /><path
       inkscape:connector-curvature="0"
       d="m 80.061897,107.12968 q 0,-1.01562 0.207032,-1.63281 0.210937,-0.62109 0.621093,-0.95703 0.414063,-0.33594 1.039063,-0.33594 0.460937,0 0.808594,0.1875 0.347656,0.1836 0.574218,0.53516 0.226563,0.34766 0.355469,0.85156 0.128906,0.5 0.128906,1.35156 0,1.00782 -0.207031,1.62891 -0.207031,0.61719 -0.621094,0.95703 -0.410156,0.33594 -1.039062,0.33594 -0.828125,0 -1.300781,-0.59375 -0.566407,-0.71484 -0.566407,-2.32813 z m 0.722657,0 q 0,1.41016 0.328125,1.87891 0.332031,0.46484 0.816406,0.46484 0.484375,0 0.8125,-0.46875 0.332031,-0.46875 0.332031,-1.875 0,-1.41406 -0.332031,-1.8789 -0.328125,-0.46485 -0.820313,-0.46485 -0.484375,0 -0.773437,0.41016 -0.363281,0.52344 -0.363281,1.93359 z"
       style="font-style:normal;font-variant:normal;font-weight:normal;font-stretch:normal;font-family:Arial;-inkscape-font-specification:Arial"
       id="path4546" /><path
       inkscape:connector-curvature="0"
       d="m 84.893929,109.9539 v -0.80078 h 0.800781 v 0.80078 q 0,0.44141 -0.15625,0.71094 -0.15625,0.27344 -0.496094,0.42188 l -0.195312,-0.30079 q 0.222656,-0.0976 0.328125,-0.28906 0.105468,-0.1875 0.117187,-0.54297 z"
       style="font-style:normal;font-variant:normal;font-weight:normal;font-stretch:normal;font-family:Arial;-inkscape-font-specification:Arial"
       id="path4548" /><path
       inkscape:connector-curvature="0"
       d="m 90.429085,109.27812 v 0.67578 h -3.785156 q -0.0078,-0.2539 0.08203,-0.48828 0.144531,-0.38672 0.460937,-0.76172 0.320313,-0.375 0.921875,-0.86718 0.933594,-0.76563 1.261719,-1.21094 0.328125,-0.44922 0.328125,-0.84766 0,-0.41797 -0.300781,-0.70312 -0.296875,-0.28907 -0.777344,-0.28907 -0.507812,0 -0.8125,0.30469 -0.304687,0.30469 -0.308594,0.84375 l -0.722656,-0.0742 q 0.07422,-0.80859 0.558594,-1.23047 0.484375,-0.42578 1.300781,-0.42578 0.824219,0 1.304688,0.45703 0.480468,0.45704 0.480468,1.13282 0,0.34375 -0.140625,0.67578 -0.140625,0.33203 -0.46875,0.69922 -0.324218,0.36718 -1.082031,1.00781 -0.632812,0.53125 -0.8125,0.72266 -0.179687,0.1875 -0.296875,0.3789 z"
       style="font-style:normal;font-variant:normal;font-weight:normal;font-stretch:normal;font-family:Arial;-inkscape-font-specification:Arial"
       id="path4550" /><path
       inkscape:connector-curvature="0"
       d="m 91.190804,108.44218 0.703125,-0.0937 q 0.121093,0.59766 0.410156,0.86329 0.292969,0.26171 0.710937,0.26171 0.496094,0 0.835938,-0.34375 0.34375,-0.34375 0.34375,-0.85156 0,-0.48437 -0.316406,-0.79687 -0.316407,-0.31641 -0.804688,-0.31641 -0.199219,0 -0.496094,0.0781 l 0.07813,-0.61719 q 0.07031,0.008 0.113282,0.008 0.449218,0 0.808593,-0.23437 0.359375,-0.23438 0.359375,-0.72266 0,-0.38672 -0.261718,-0.64063 -0.261719,-0.2539 -0.675782,-0.2539 -0.410156,0 -0.683593,0.25781 -0.273438,0.25781 -0.351563,0.77344 l -0.703125,-0.125 q 0.128906,-0.70703 0.585938,-1.09375 0.457031,-0.39063 1.136718,-0.39063 0.46875,0 0.863282,0.20313 0.394531,0.19922 0.601562,0.54687 0.210938,0.34766 0.210938,0.73828 0,0.3711 -0.199219,0.67579 -0.199219,0.30468 -0.589844,0.48437 0.507813,0.11719 0.789063,0.48828 0.28125,0.36719 0.28125,0.92188 0,0.75 -0.546875,1.27343 -0.546875,0.51954 -1.382813,0.51954 -0.753906,0 -1.253906,-0.44922 -0.496094,-0.44922 -0.566406,-1.16407 z"
       style="font-style:normal;font-variant:normal;font-weight:normal;font-stretch:normal;font-family:Arial;-inkscape-font-specification:Arial"
       id="path4552" /></g></svg>