<?xml version="1.0" encoding="UTF-8" standalone="no"?>
<!-- Generator: Adobe Illustrator 20.0.0, SVG Export Plug-In . SVG Version: 6.00 Build 0)  -->

<svg
   xmlns:dc="http://purl.org/dc/elements/1.1/"
   xmlns:cc="http://creativecommons.org/ns#"
   xmlns:rdf="http://www.w3.org/1999/02/22-rdf-syntax-ns#"
   xmlns:svg="http://www.w3.org/2000/svg"
   xmlns="http://www.w3.org/2000/svg"
   xmlns:sodipodi="http://sodipodi.sourceforge.net/DTD/sodipodi-0.dtd"
   xmlns:inkscape="http://www.inkscape.org/namespaces/inkscape"
   version="1.1"
   id="Layer_1"
   x="0px"
   y="0px"
   viewBox="0 0 117 133.99974"
   xml:space="preserve"
   sodipodi:docname="INTELLECTUAL PROPERTY.svg"
   width="117"
   height="133.99974"
   inkscape:version="0.92.2 (5c3e80d, 2017-08-06)"><metadata
     id="metadata9399"><rdf:RDF><cc:Work
         rdf:about=""><dc:format>image/svg+xml</dc:format><dc:type
           rdf:resource="http://purl.org/dc/dcmitype/StillImage" /><dc:title /></cc:Work></rdf:RDF></metadata><defs
     id="defs9397"><marker
       inkscape:stockid="Arrow1Lend"
       orient="auto"
       refY="0.0"
       refX="0.0"
       id="marker4370"
       style="overflow:visible;"
       inkscape:isstock="true"><path
         id="path4110"
         d="M 0.0,0.0 L 5.0,-5.0 L -12.5,0.0 L 5.0,5.0 L 0.0,0.0 z "
         style="fill-rule:evenodd;stroke:#000000;stroke-width:1pt;stroke-opacity:1;fill:#000000;fill-opacity:1"
         transform="scale(0.8) rotate(180) translate(12.5,0)" /></marker><marker
       inkscape:stockid="Arrow1Lend"
       orient="auto"
       refY="0"
       refX="0"
       id="marker14693"
       style="overflow:visible"
       inkscape:isstock="true"><path
         id="path14691"
         d="M 0,0 5,-5 -12.5,0 5,5 Z"
         style="fill:#000000;fill-opacity:1;fill-rule:evenodd;stroke:#000000;stroke-width:1.00000003pt;stroke-opacity:1"
         transform="matrix(-0.8,0,0,-0.8,-10,0)"
         inkscape:connector-curvature="0" /></marker><marker
       inkscape:stockid="Arrow1Lend"
       orient="auto"
       refY="0"
       refX="0"
       id="Arrow1Lend"
       style="overflow:visible"
       inkscape:isstock="true"><path
         id="path14156"
         d="M 0,0 5,-5 -12.5,0 5,5 Z"
         style="fill:#000000;fill-opacity:1;fill-rule:evenodd;stroke:#000000;stroke-width:1.00000003pt;stroke-opacity:1"
         transform="matrix(-0.8,0,0,-0.8,-10,0)"
         inkscape:connector-curvature="0" /></marker><marker
       inkscape:stockid="TriangleOutL"
       orient="auto"
       refY="0"
       refX="0"
       id="TriangleOutL"
       style="overflow:visible"
       inkscape:isstock="true"><path
         id="path14295"
         d="M 5.77,0 -2.88,5 V -5 Z"
         style="fill:#000000;fill-opacity:1;fill-rule:evenodd;stroke:#000000;stroke-width:1.00000003pt;stroke-opacity:1"
         transform="scale(0.8)"
         inkscape:connector-curvature="0" /></marker><marker
       inkscape:stockid="Arrow2Lend"
       orient="auto"
       refY="0"
       refX="0"
       id="Arrow2Lend"
       style="overflow:visible"
       inkscape:isstock="true"><path
         id="path14174"
         style="fill:#000000;fill-opacity:1;fill-rule:evenodd;stroke:#000000;stroke-width:0.625;stroke-linejoin:round;stroke-opacity:1"
         d="M 8.7185878,4.0337352 -2.2072895,0.01601326 8.7185884,-4.0017078 c -1.7454984,2.3720609 -1.7354408,5.6174519 -6e-7,8.035443 z"
         transform="matrix(-1.1,0,0,-1.1,-1.1,0)"
         inkscape:connector-curvature="0" /></marker></defs><sodipodi:namedview
     pagecolor="#ffffff"
     bordercolor="#666666"
     borderopacity="1"
     objecttolerance="10"
     gridtolerance="10"
     guidetolerance="10"
     inkscape:pageopacity="0"
     inkscape:pageshadow="2"
     inkscape:window-width="1366"
     inkscape:window-height="705"
     id="namedview9395"
     showgrid="false"
     fit-margin-top="0"
     fit-margin-left="0"
     fit-margin-right="0"
     fit-margin-bottom="0"
     inkscape:zoom="2.8284271"
     inkscape:cx="-22.679764"
     inkscape:cy="51.652215"
     inkscape:window-x="-8"
     inkscape:window-y="-8"
     inkscape:window-maximized="1"
     inkscape:current-layer="Layer_1" /><style
     type="text/css"
     id="style9386">
	.st0{fill:none;stroke:#000000;stroke-width:3.4676;stroke-linecap:round;stroke-linejoin:round;stroke-miterlimit:10;}
</style><g
     id="g30020"><path
       style="color:#000000;font-style:normal;font-variant:normal;font-weight:normal;font-stretch:normal;font-size:medium;line-height:normal;font-family:sans-serif;font-variant-ligatures:normal;font-variant-position:normal;font-variant-caps:normal;font-variant-numeric:normal;font-variant-alternates:normal;font-feature-settings:normal;text-indent:0;text-align:start;text-decoration:none;text-decoration-line:none;text-decoration-style:solid;text-decoration-color:#000000;letter-spacing:normal;word-spacing:normal;text-transform:none;writing-mode:lr-tb;direction:ltr;text-orientation:mixed;dominant-baseline:auto;baseline-shift:baseline;text-anchor:start;white-space:normal;shape-padding:0;clip-rule:nonzero;display:inline;overflow:visible;visibility:visible;opacity:1;isolation:auto;mix-blend-mode:normal;color-interpolation:sRGB;color-interpolation-filters:linearRGB;solid-color:#000000;solid-opacity:1;vector-effect:none;fill:#000000;fill-opacity:1;fill-rule:nonzero;stroke:none;stroke-width:0.5;stroke-linecap:round;stroke-linejoin:round;stroke-miterlimit:10;stroke-dasharray:none;stroke-dashoffset:0;stroke-opacity:1;color-rendering:auto;image-rendering:auto;shape-rendering:auto;text-rendering:auto;enable-background:accumulate"
       d="M 58.550781,9.6992188 C 26.215688,9.6992187 0,35.914907 0,68.25 c 0,24.803914 15.464841,46.09646 37.259766,54.5332 a 0.25009014,0.25009014 0 1 0 0.179687,-0.46679 C 15.834378,113.95315 0.5,92.846086 0.5,68.25 0.5,36.185093 26.485874,10.199219 58.550781,10.199219 a 0.250025,0.250025 0 1 0 0,-0.5000002 z"
       id="path9390"
       inkscape:connector-curvature="0" /><path
       style="fill:#000000;fill-opacity:1;fill-rule:evenodd;stroke:#000000;stroke-width:0.40000002pt;stroke-opacity:1"
       d="m 53.55,9.949866 -2,2 7,-2 -7,-2 z"
       id="path30026"
       inkscape:connector-curvature="0" /></g><g
     id="g30070"><path
       style="color:#000000;font-style:normal;font-variant:normal;font-weight:normal;font-stretch:normal;font-size:medium;line-height:normal;font-family:sans-serif;font-variant-ligatures:normal;font-variant-position:normal;font-variant-caps:normal;font-variant-numeric:normal;font-variant-alternates:normal;font-feature-settings:normal;text-indent:0;text-align:start;text-decoration:none;text-decoration-line:none;text-decoration-style:solid;text-decoration-color:#000000;letter-spacing:normal;word-spacing:normal;text-transform:none;writing-mode:lr-tb;direction:ltr;text-orientation:mixed;dominant-baseline:auto;baseline-shift:baseline;text-anchor:start;white-space:normal;shape-padding:0;clip-rule:nonzero;display:inline;overflow:visible;visibility:visible;opacity:1;isolation:auto;mix-blend-mode:normal;color-interpolation:sRGB;color-interpolation-filters:linearRGB;solid-color:#000000;solid-opacity:1;vector-effect:none;fill:#000000;fill-opacity:1;fill-rule:nonzero;stroke:none;stroke-width:0.5;stroke-linecap:round;stroke-linejoin:round;stroke-miterlimit:10;stroke-dasharray:none;stroke-dashoffset:0;stroke-opacity:1;color-rendering:auto;image-rendering:auto;shape-rendering:auto;text-rendering:auto;enable-background:accumulate"
       d="m 81.125,14.298828 a 0.250025,0.250025 0 0 0 -0.07227,0.482422 C 101.86152,23.542845 116.5,44.25166 116.5,68.25 c 0,32.06491 -25.985874,58.05078 -58.050781,58.05078 a 0.250025,0.250025 0 1 0 0,0.5 C 90.784312,126.80078 117,100.5851 117,68.25 117,44.04834 102.2373,23.158717 81.246094,14.320312 A 0.250025,0.250025 0 0 0 81.125,14.298828 Z"
       id="path9392"
       inkscape:connector-curvature="0" /><path
       inkscape:connector-curvature="0"
       style="fill:#000000;fill-opacity:1;fill-rule:evenodd;stroke:#000000;stroke-width:0.40000002pt;stroke-opacity:1"
       d="m 63.45,126.54987 2,-2 -7,2 7,2 z"
       id="path30076" /></g><g
     aria-label="INTELLECTUAL"
     style="font-style:normal;font-variant:normal;font-weight:normal;font-stretch:normal;font-size:14.66666698px;line-height:1.25;font-family:Arial;-inkscape-font-specification:Arial;letter-spacing:0px;word-spacing:0px;fill:#000000;fill-opacity:1;stroke:none"
     id="text16790"
     transform="translate(1.2999998,-7.494338)"><path
       d="M 5.5000002,74.999741 V 64.501042 h 1.3893229 v 10.498699 z"
       id="path5777"
       inkscape:connector-curvature="0" /><path
       d="M 9.3170576,74.999741 V 64.501042 h 1.4251304 l 5.514323,8.242839 v -8.242839 h 1.332031 v 10.498699 h -1.42513 L 10.649089,66.74974 v 8.250001 z"
       id="path5779"
       inkscape:connector-curvature="0" /><path
       d="M 22.601564,74.999741 V 65.739975 H 19.14258 v -1.238933 h 8.321614 v 1.238933 h -3.473307 v 9.259766 z"
       id="path5781"
       inkscape:connector-curvature="0" /><path
       d="M 28.925132,74.999741 V 64.501042 h 7.591146 v 1.238933 h -6.201823 v 3.215495 h 5.807943 v 1.23177 h -5.807943 v 3.573568 h 6.445313 v 1.238933 z"
       id="path5783"
       inkscape:connector-curvature="0" /><path
       d="M 38.636068,74.999741 V 64.501042 h 1.389323 v 9.259766 h 5.170573 v 1.238933 z"
       id="path5785"
       inkscape:connector-curvature="0" /><path
       d="M 46.80013,74.999741 V 64.501042 h 1.389323 v 9.259766 h 5.170573 v 1.238933 z"
       id="path5787"
       inkscape:connector-curvature="0" /><path
       d="M 55.05013,74.999741 V 64.501042 h 7.591146 v 1.238933 h -6.201823 v 3.215495 h 5.807943 v 1.23177 h -5.807943 v 3.573568 h 6.445313 v 1.238933 z"
       id="path5789"
       inkscape:connector-curvature="0" /><path
       d="m 72.309245,71.318751 1.389323,0.350911 q -0.436849,1.711589 -1.575521,2.613933 -1.13151,0.895182 -2.771484,0.895182 -1.697266,0 -2.764323,-0.6875 -1.059896,-0.694661 -1.61849,-2.005208 -0.551432,-1.310547 -0.551432,-2.814454 0,-1.639974 0.623047,-2.857421 0.630208,-1.22461 1.783203,-1.854818 1.160156,-0.63737 2.549479,-0.63737 1.575521,0 2.64974,0.802083 1.074219,0.802084 1.496745,2.25586 l -1.367839,0.322265 q -0.365234,-1.145833 -1.059896,-1.668619 -0.694661,-0.522787 -1.747396,-0.522787 -1.210286,0 -2.026692,0.580078 -0.809245,0.580078 -1.138672,1.561198 -0.329427,0.973959 -0.329427,2.01237 0,1.339193 0.386718,2.341797 0.393881,0.995443 1.217448,1.489583 0.823568,0.494141 1.783203,0.494141 1.167318,0 1.976563,-0.673177 0.809245,-0.673177 1.095703,-1.998047 z"
       id="path5791"
       inkscape:connector-curvature="0" /><path
       d="M 78.088544,74.999741 V 65.739975 H 74.62956 v -1.238933 h 8.321615 v 1.238933 h -3.473308 v 9.259766 z"
       id="path5793"
       inkscape:connector-curvature="0" /><path
       d="m 91.272792,64.501042 h 1.389323 v 6.065756 q 0,1.582682 -0.358073,2.513672 -0.358073,0.930989 -1.296224,1.518229 -0.93099,0.580078 -2.449219,0.580078 -1.47526,0 -2.413411,-0.508463 -0.938151,-0.508464 -1.339193,-1.468099 -0.401042,-0.966797 -0.401042,-2.635417 v -6.065756 h 1.389323 v 6.058594 q 0,1.367839 0.250651,2.019532 0.257813,0.644531 0.873698,0.995442 0.623047,0.350912 1.518229,0.350912 1.532552,0 2.184245,-0.694662 0.651693,-0.694661 0.651693,-2.671224 z"
       id="path5795"
       inkscape:connector-curvature="0" /><path
       d="m 93.829427,74.999741 4.031901,-10.498699 h 1.496745 l 4.296877,10.498699 h -1.58268 l -1.22461,-3.179688 h -4.389977 l -1.152995,3.179688 z m 3.029297,-4.311198 h 3.559246 L 99.322266,67.78099 q -0.501302,-1.324869 -0.744792,-2.177083 -0.200521,1.009766 -0.565755,2.005208 z"
       id="path5797"
       inkscape:connector-curvature="0" /><path
       d="M 104.72201,74.999741 V 64.501042 h 1.38932 v 9.259766 h 5.17057 v 1.238933 z"
       id="path5799"
       inkscape:connector-curvature="0" /></g><g
     aria-label="PROPERTY"
     style="font-style:normal;font-weight:normal;font-size:14.66666698px;line-height:1.25;font-family:sans-serif;letter-spacing:0px;word-spacing:0px;fill:#000000;fill-opacity:1;stroke:none"
     id="text6046"
     transform="translate(-70.234069,-3.6871834)"><path
       d="M 90.934069,91.926888 V 81.428189 h 3.960287 q 1.045573,0 1.597005,0.100261 0.773438,0.128906 1.296224,0.49414 0.522787,0.358073 0.837891,1.009766 0.322265,0.651693 0.322265,1.432292 0,1.339193 -0.852213,2.270182 -0.852214,0.923828 -3.079427,0.923828 h -2.692709 v 4.26823 z m 1.389323,-5.507162 h 2.714193 q 1.346354,0 1.912109,-0.501302 0.565756,-0.501302 0.565756,-1.410807 0,-0.658855 -0.336589,-1.124349 -0.329427,-0.472657 -0.873698,-0.623047 -0.350911,-0.0931 -1.296224,-0.0931 h -2.685547 z"
       style="font-style:normal;font-variant:normal;font-weight:normal;font-stretch:normal;font-family:Arial;-inkscape-font-specification:Arial"
       id="path6048"
       inkscape:connector-curvature="0" /><path
       d="M 100.75243,91.926888 V 81.428189 h 4.65495 q 1.40364,0 2.13411,0.286459 0.73047,0.279297 1.16732,0.995442 0.43685,0.716146 0.43685,1.582683 0,1.117187 -0.72331,1.883463 -0.72331,0.766276 -2.23437,0.973959 0.55143,0.264974 0.83789,0.522786 0.60872,0.558594 1.15299,1.396485 l 1.82617,2.857422 h -1.74739 l -1.38933,-2.184245 q -0.60872,-0.945313 -1.0026,-1.446615 -0.39388,-0.501302 -0.70898,-0.701823 -0.30795,-0.200521 -0.63021,-0.279297 -0.23633,-0.05013 -0.77344,-0.05013 h -1.61133 v 4.66211 z m 1.38932,-5.865235 h 2.98633 q 0.95247,0 1.48958,-0.193359 0.53711,-0.200521 0.81641,-0.630209 0.2793,-0.436849 0.2793,-0.945312 0,-0.744792 -0.54427,-1.22461 -0.53711,-0.479817 -1.70443,-0.479817 h -3.32292 z"
       style="font-style:normal;font-variant:normal;font-weight:normal;font-stretch:normal;font-family:Arial;-inkscape-font-specification:Arial"
       id="path6050"
       inkscape:connector-curvature="0" /><path
       d="m 110.90738,86.813606 q 0,-2.613932 1.40364,-4.089193 1.40365,-1.482422 3.6237,-1.482422 1.45378,0 2.62109,0.694662 1.16732,0.694661 1.77605,1.940755 0.61588,1.238932 0.61588,2.814453 0,1.597006 -0.64453,2.857422 -0.64453,1.260417 -1.82617,1.91211 -1.18164,0.644531 -2.54948,0.644531 -1.48242,0 -2.64974,-0.716146 -1.16732,-0.716146 -1.76888,-1.955078 -0.60156,-1.238932 -0.60156,-2.621094 z m 1.43229,0.02149 q 0,1.897786 1.01693,2.993489 1.02408,1.088542 2.5638,1.088542 1.56836,0 2.57812,-1.102865 1.01693,-1.102864 1.01693,-3.129557 0,-1.281901 -0.43685,-2.234375 -0.42969,-0.959636 -1.26758,-1.482422 -0.83073,-0.529948 -1.86914,-0.529948 -1.47526,0 -2.54232,1.016927 -1.05989,1.009766 -1.05989,3.380209 z"
       style="font-style:normal;font-variant:normal;font-weight:normal;font-stretch:normal;font-family:Arial;-inkscape-font-specification:Arial"
       id="path6052"
       inkscape:connector-curvature="0" /><path
       d="M 122.73094,91.926888 V 81.428189 h 3.96029 q 1.04557,0 1.59701,0.100261 0.77343,0.128906 1.29622,0.49414 0.52279,0.358073 0.83789,1.009766 0.32227,0.651693 0.32227,1.432292 0,1.339193 -0.85222,2.270182 -0.85221,0.923828 -3.07942,0.923828 h -2.69271 v 4.26823 z m 1.38933,-5.507162 h 2.71419 q 1.34635,0 1.91211,-0.501302 0.56575,-0.501302 0.56575,-1.410807 0,-0.658855 -0.33658,-1.124349 -0.32943,-0.472657 -0.8737,-0.623047 -0.35091,-0.0931 -1.29623,-0.0931 h -2.68554 z"
       style="font-style:normal;font-variant:normal;font-weight:normal;font-stretch:normal;font-family:Arial;-inkscape-font-specification:Arial"
       id="path6054"
       inkscape:connector-curvature="0" /><path
       d="M 132.55647,91.926888 V 81.428189 h 7.59114 v 1.238933 h -6.20182 v 3.215495 h 5.80794 v 1.23177 h -5.80794 v 3.573568 h 6.44531 v 1.238933 z"
       style="font-style:normal;font-variant:normal;font-weight:normal;font-stretch:normal;font-family:Arial;-inkscape-font-specification:Arial"
       id="path6056"
       inkscape:connector-curvature="0" /><path
       d="M 142.34618,91.926888 V 81.428189 h 4.65495 q 1.40364,0 2.13411,0.286459 0.73047,0.279297 1.16732,0.995442 0.43685,0.716146 0.43685,1.582683 0,1.117187 -0.72331,1.883463 -0.72331,0.766276 -2.23437,0.973959 0.55143,0.264974 0.83789,0.522786 0.60872,0.558594 1.15299,1.396485 l 1.82617,2.857422 h -1.74739 l -1.38933,-2.184245 q -0.60872,-0.945313 -1.0026,-1.446615 -0.39388,-0.501302 -0.70898,-0.701823 -0.30795,-0.200521 -0.63021,-0.279297 -0.23633,-0.05013 -0.77344,-0.05013 h -1.61133 v 4.66211 z m 1.38932,-5.865235 h 2.98633 q 0.95247,0 1.48958,-0.193359 0.53711,-0.200521 0.81641,-0.630209 0.2793,-0.436849 0.2793,-0.945312 0,-0.744792 -0.54427,-1.22461 -0.53711,-0.479817 -1.70443,-0.479817 h -3.32292 z"
       style="font-style:normal;font-variant:normal;font-weight:normal;font-stretch:normal;font-family:Arial;-inkscape-font-specification:Arial"
       id="path6058"
       inkscape:connector-curvature="0" /><path
       d="m 155.33707,91.926888 v -9.259766 h -3.45899 v -1.238933 h 8.32162 v 1.238933 h -3.47331 v 9.259766 z"
       style="font-style:normal;font-variant:normal;font-weight:normal;font-stretch:normal;font-family:Arial;-inkscape-font-specification:Arial"
       id="path6060"
       inkscape:connector-curvature="0" /><path
       d="m 164.58967,91.926888 v -4.447266 l -4.04622,-6.051433 h 1.6901 l 2.06967,3.165365 q 0.57291,0.888021 1.06705,1.776042 0.47266,-0.823568 1.14584,-1.854818 l 2.03385,-3.086589 h 1.61849 l -4.18945,6.051433 v 4.447266 z"
       style="font-style:normal;font-variant:normal;font-weight:normal;font-stretch:normal;font-family:Arial;-inkscape-font-specification:Arial"
       id="path6062"
       inkscape:connector-curvature="0" /></g></svg>