<?xml version="1.0" encoding="UTF-8" standalone="no"?>
<!-- Created with Inkscape (http://www.inkscape.org/) -->

<svg
   xmlns:dc="http://purl.org/dc/elements/1.1/"
   xmlns:cc="http://creativecommons.org/ns#"
   xmlns:rdf="http://www.w3.org/1999/02/22-rdf-syntax-ns#"
   xmlns:svg="http://www.w3.org/2000/svg"
   xmlns="http://www.w3.org/2000/svg"
   xmlns:sodipodi="http://sodipodi.sourceforge.net/DTD/sodipodi-0.dtd"
   xmlns:inkscape="http://www.inkscape.org/namespaces/inkscape"
   width="74.742378mm"
   height="24.74489mm"
   viewBox="0 0 74.742378 24.74489"
   version="1.1"
   id="svg8"
   inkscape:version="0.92.2 (5c3e80d, 2017-08-06)"
   sodipodi:docname="modul.svg">
  <defs
     id="defs2">
    <pattern
       y="0"
       x="0"
       height="6"
       width="6"
       patternUnits="userSpaceOnUse"
       id="EMFhbasepattern" />
    <pattern
       y="0"
       x="0"
       height="6"
       width="6"
       patternUnits="userSpaceOnUse"
       id="EMFhbasepattern-8" />
  </defs>
  <sodipodi:namedview
     id="base"
     pagecolor="#ffffff"
     bordercolor="#666666"
     borderopacity="1.0"
     inkscape:pageopacity="0.0"
     inkscape:pageshadow="2"
     inkscape:zoom="0.91760029"
     inkscape:cx="210.98117"
     inkscape:cy="57.656103"
     inkscape:document-units="mm"
     inkscape:current-layer="layer1"
     showgrid="false"
     fit-margin-top="0"
     fit-margin-left="0"
     fit-margin-right="0"
     fit-margin-bottom="0"
     inkscape:window-width="1366"
     inkscape:window-height="745"
     inkscape:window-x="-8"
     inkscape:window-y="-8"
     inkscape:window-maximized="1" />
  <metadata
     id="metadata5">
    <rdf:RDF>
      <cc:Work
         rdf:about="">
        <dc:format>image/svg+xml</dc:format>
        <dc:type
           rdf:resource="http://purl.org/dc/dcmitype/StillImage" />
        <dc:title></dc:title>
      </cc:Work>
    </rdf:RDF>
  </metadata>
  <g
     inkscape:label="Layer 1"
     inkscape:groupmode="layer"
     id="layer1"
     transform="translate(-25.168891,-133.84907)">
    <path
       style="fill:#ffffff;fill-opacity:1;stroke:none;stroke-width:0.19598618;stroke-linecap:round;stroke-linejoin:round;stroke-miterlimit:10;stroke-dasharray:none;stroke-opacity:1"
       d="m 34.951803,148.39945 -3.390994,10.19451 9.676314,-14.29085 h -7.004622 l 3.613632,-10.45404 -9.89896,14.55038 z"
       id="polygon9388"
       inkscape:connector-curvature="0" />
    <path
       id="path869"
       d="m 54.112902,137.31697 -0.529163,-0.22685 c 0.320705,-0.40509 -0.481057,-0.21065 0.529163,-0.37269 1.250746,0.081 4.970917,-1.34488 12.491431,-0.59952 1.218676,0.11345 2.581669,0.956 3.639994,0.45369 v -0.9236 c -1.026254,-0.081 -2.469423,-0.50231 -3.463606,-0.63194 l -7.520515,-0.0648 h -1.47524 c -4.890741,0.19444 -14.014777,3.6782 -15.570193,9.56008 -1.026253,3.79162 1.266782,6.77308 3.944661,8.81471 11.449145,8.6851 35.373683,4.14811 35.902844,-6.65965 0.192424,-3.6944 -2.30907,-6.07631 -4.874703,-7.93972 -2.565637,-1.86341 -1.010219,0.0648 -1.94026,-2.39811 -0.256567,-0.68057 -0.769691,-1.15046 -1.362995,-1.37731 h -1.651626 c -0.849867,0.34027 -1.555417,1.23146 -1.555417,2.7546 0,3.33793 3.704136,4.01847 4.345543,1.62036 1.763873,1.19906 3.591889,3.2407 4.185194,5.39576 0.545194,1.99303 0.384844,3.14349 -0.625377,4.86106 -5.564219,9.57629 -26.875017,9.44667 -33.09668,0.0648 0.881937,-1.3449 2.533564,-2.78701 4.313473,-3.2083 0,3.03006 0.80176,3.64579 0.914006,5.0393 1.026254,-0.0162 0.897972,-0.0648 2.325107,-1.31249 3.319288,-2.94904 7.440338,-6.09252 11.529317,-7.87492 0.962114,-0.42129 2.389247,-0.66434 1.747838,-3.80781 -0.208457,-0.97223 -0.545196,-1.39352 -1.523344,-1.44213 -1.266782,-0.081 -8.161924,3.37034 -9.540951,4.1157 z"
       style="fill:#454444;fill-opacity:1;fill-rule:evenodd;stroke:none;stroke-width:0.26458332"
       inkscape:connector-curvature="0" />
    <path
       id="path871"
       d="m 58.201882,147.59 c 0,1.99304 0.897972,3.72681 1.587485,5.0393 1.186606,-0.79397 1.84405,-3.01386 3.255149,-4.99068 0.593303,-0.81018 3.271182,-4.19671 3.335324,-5.10411 -0.673479,0.32407 -1.555416,0.58332 -2.276999,0.9074 -1.298853,0.59952 -5.900959,2.86802 -5.900959,4.14809 z"
       style="fill:#454444;fill-opacity:1;fill-rule:evenodd;stroke:none;stroke-width:0.26458332"
       inkscape:connector-curvature="0" />
    <path
       id="path873"
       d="m 54.112902,137.31697 v -0.59954 c -1.01022,0.16204 -0.208458,-0.0323 -0.529163,0.37269 z"
       style="fill:#454444;fill-opacity:1;fill-rule:evenodd;stroke:none;stroke-width:0.26458332"
       inkscape:connector-curvature="0" />
    <path
       id="path875"
       d="m 73.996567,137.77066 c 4.21726,2.17128 6.63858,5.33097 6.63858,8.65269 0,6.33558 -8.659017,11.47209 -19.338468,11.47209 -10.679454,0 -19.338469,-5.13651 -19.338469,-11.47209 0,-6.33558 8.659015,-11.47209 19.338469,-11.47209 2.70995,0 5.403866,0.34026 7.873288,1.00462"
       style="fill:none;stroke:#454444;stroke-width:0.83873373px;stroke-linecap:butt;stroke-linejoin:miter;stroke-miterlimit:4;stroke-dasharray:none;stroke-opacity:1"
       inkscape:connector-curvature="0" />
  </g>
</svg>
