<?xml version="1.0" encoding="UTF-8" standalone="no"?>
<!-- Created with Inkscape (http://www.inkscape.org/) -->

<svg
   xmlns:dc="http://purl.org/dc/elements/1.1/"
   xmlns:cc="http://creativecommons.org/ns#"
   xmlns:rdf="http://www.w3.org/1999/02/22-rdf-syntax-ns#"
   xmlns:svg="http://www.w3.org/2000/svg"
   xmlns="http://www.w3.org/2000/svg"
   xmlns:sodipodi="http://sodipodi.sourceforge.net/DTD/sodipodi-0.dtd"
   xmlns:inkscape="http://www.inkscape.org/namespaces/inkscape"
   width="45.336658mm"
   height="7.5983515mm"
   viewBox="0 0 45.336659 7.5983519"
   version="1.1"
   id="svg994"
   inkscape:version="0.92.2 (5c3e80d, 2017-08-06)"
   sodipodi:docname="EMIIA LINES.SVG.svg">
  <defs
     id="defs988" />
  <sodipodi:namedview
     id="base"
     pagecolor="#ffffff"
     bordercolor="#666666"
     borderopacity="1.0"
     inkscape:pageopacity="0.0"
     inkscape:pageshadow="2"
     inkscape:zoom="2.2352653"
     inkscape:cx="155.186"
     inkscape:cy="18.60677"
     inkscape:document-units="mm"
     inkscape:current-layer="layer1"
     showgrid="false"
     showguides="false"
     fit-margin-top="0"
     fit-margin-left="0"
     fit-margin-right="0"
     fit-margin-bottom="0"
     inkscape:window-width="1366"
     inkscape:window-height="705"
     inkscape:window-x="-8"
     inkscape:window-y="-8"
     inkscape:window-maximized="1"
     inkscape:object-nodes="false"
     inkscape:snap-nodes="false"
     inkscape:snap-global="false">
    <sodipodi:guide
       position="-168.30738,100.56561"
       orientation="-0.70710678,0.70710678"
       id="guide2360"
       inkscape:locked="false" />
  </sodipodi:namedview>
  <metadata
     id="metadata991">
    <rdf:RDF>
      <cc:Work
         rdf:about="">
        <dc:format>image/svg+xml</dc:format>
        <dc:type
           rdf:resource="http://purl.org/dc/dcmitype/StillImage" />
        <dc:title></dc:title>
      </cc:Work>
    </rdf:RDF>
  </metadata>
  <g
     inkscape:label="Layer 1"
     inkscape:groupmode="layer"
     id="layer1"
     transform="translate(-156.13652,-87.813077)">
    <text
       xml:space="preserve"
       style="font-style:normal;font-weight:normal;font-size:3.88055563px;line-height:1.25;font-family:sans-serif;letter-spacing:0px;word-spacing:0px;fill:#000000;fill-opacity:1;stroke:none;stroke-width:0.26458332"
       x="190.66548"
       y="42.81908"
       id="text11555"><tspan
         sodipodi:role="line"
         id="tspan11553"
         x="190.66548"
         y="46.359428"
         style="stroke-width:0.26458332" /></text>
    <circle
       style="opacity:1;fill:none;fill-opacity:1;fill-rule:evenodd;stroke:#000000;stroke-width:0.16018488;stroke-linecap:round;stroke-linejoin:round;stroke-miterlimit:4;stroke-dasharray:none;stroke-opacity:1;paint-order:markers fill stroke"
       id="path11565"
       cx="159.1465"
       cy="90.823059"
       r="2.9298897" />
    <path
       style="fill:none;fill-opacity:1;fill-rule:evenodd;stroke:#000000;stroke-width:0.30099818;stroke-linecap:butt;stroke-linejoin:miter;stroke-miterlimit:4;stroke-dasharray:none;stroke-opacity:1"
       d="m 197.56284,88.784521 v 3.821665"
       id="path11573"
       inkscape:connector-type="polyline"
       inkscape:connector-curvature="0" />
    <path
       style="fill:none;fill-opacity:1;fill-rule:evenodd;stroke:#000000;stroke-width:0.30099818;stroke-linecap:square;stroke-linejoin:miter;stroke-miterlimit:4;stroke-dasharray:none;stroke-opacity:1"
       d="m 197.56284,88.784521 3.67979,-0.01837"
       id="path11575"
       inkscape:connector-type="polyline"
       inkscape:connector-curvature="0" />
    <path
       style="fill:none;fill-opacity:1;fill-rule:evenodd;stroke:#000000;stroke-width:0.30099818;stroke-linecap:square;stroke-linejoin:miter;stroke-miterlimit:4;stroke-dasharray:none;stroke-opacity:1"
       d="m 197.56285,92.606186 3.67978,-0.01837"
       id="path11577"
       inkscape:connector-type="polyline"
       inkscape:connector-curvature="0" />
    <path
       style="fill:none;fill-opacity:1;fill-rule:evenodd;stroke:#000000;stroke-width:0.30099818;stroke-linecap:butt;stroke-linejoin:miter;stroke-miterlimit:4;stroke-dasharray:none;stroke-opacity:1"
       d="m 197.5534,90.676986 h 3.08537"
       id="path11579"
       inkscape:connector-type="polyline"
       inkscape:connector-curvature="0" />
    <path
       style="fill:none;fill-opacity:1;fill-rule:evenodd;stroke:#000000;stroke-width:0.30099818;stroke-linecap:butt;stroke-linejoin:miter;stroke-miterlimit:4;stroke-dasharray:none;stroke-opacity:1"
       d="m 192.53386,92.755595 0.0197,-4.126054"
       id="use11602"
       inkscape:connector-type="polyline"
       inkscape:connector-curvature="0" />
    <path
       style="fill:none;fill-opacity:1;fill-rule:evenodd;stroke:#000000;stroke-width:0.30099818;stroke-linecap:square;stroke-linejoin:miter;stroke-miterlimit:4;stroke-dasharray:none;stroke-opacity:1"
       d="m 163.7519,92.708359 0.0189,-3.838212"
       id="path11581-8-7-2-8"
       inkscape:connector-type="polyline"
       inkscape:connector-curvature="0" />
    <path
       inkscape:connector-curvature="0"
       inkscape:connector-type="polyline"
       id="use11583-4-2-1-5"
       d="m 168.37708,92.708359 0.019,-3.838212"
       style="fill:none;fill-opacity:1;fill-rule:evenodd;stroke:#000000;stroke-width:0.30099818;stroke-linecap:square;stroke-linejoin:miter;stroke-miterlimit:4;stroke-dasharray:none;stroke-opacity:1" />
    <path
       style="fill:none;fill-opacity:1;fill-rule:evenodd;stroke:#000000;stroke-width:0.30099818;stroke-linecap:butt;stroke-linejoin:bevel;stroke-miterlimit:4;stroke-dasharray:none;stroke-opacity:1"
       d="m 163.82978,88.834454 2.35594,2.193451"
       id="path11587-6-1-2-4"
       inkscape:connector-type="polyline"
       inkscape:connector-curvature="0" />
    <path
       style="fill:none;fill-opacity:1;fill-rule:evenodd;stroke:#000000;stroke-width:0.30099818;stroke-linecap:butt;stroke-linejoin:miter;stroke-miterlimit:4;stroke-dasharray:none;stroke-opacity:1"
       d="m 168.34862,88.821082 -2.27405,2.100438"
       id="path11589-7-7-6-9"
       inkscape:connector-type="polyline"
       inkscape:connector-curvature="0" />
    <g
       aria-label="| e"
       transform="matrix(-0.11989704,6.5726962e-4,-6.8265462e-4,-0.11543862,119.35594,68.919419)"
       style="font-style:normal;font-weight:normal;font-size:17.74895096px;line-height:1.25;font-family:sans-serif;letter-spacing:0px;word-spacing:0px;fill:#000000;fill-opacity:1;stroke:none;stroke-width:0.3384617;stroke-miterlimit:4;stroke-dasharray:none"
       id="use10657">
      <path
         d="m -343.78524,-184.95022 v -16.98574 h 1.45541 v 16.98574 z"
         style="font-style:normal;font-variant:normal;font-weight:normal;font-stretch:normal;font-size:17.74895096px;font-family:Orbitron;-inkscape-font-specification:Orbitron;fill:#000000;fill-opacity:1;stroke:none;stroke-width:0.3384617;stroke-miterlimit:4;stroke-dasharray:none;stroke-opacity:0.98039216"
         id="path1433"
         inkscape:connector-curvature="0" />
      <path
         d="m -326.88241,-197.28574 q 0.90519,0 1.52641,0.63896 0.63896,0.62122 0.63896,1.50866 v 3.72728 h -9.03422 v 2.27187 q 0,0.28398 0.19524,0.49697 0.21299,0.19524 0.49697,0.19524 h 8.34201 v 1.45541 h -8.34201 q -0.88745,0 -1.52641,-0.62121 -0.62121,-0.63896 -0.62121,-1.52641 v -5.99915 q 0,-0.88744 0.62121,-1.50866 0.63896,-0.63896 1.52641,-0.63896 z m -6.86885,4.41949 h 7.56105 v -2.27187 q 0,-0.28398 -0.21298,-0.47922 -0.19524,-0.21299 -0.47922,-0.21299 h -6.17664 q -0.28398,0 -0.49697,0.21299 -0.19524,0.19524 -0.19524,0.47922 z"
         style="font-style:normal;font-variant:normal;font-weight:normal;font-stretch:normal;font-size:17.74895096px;font-family:Orbitron;-inkscape-font-specification:Orbitron;fill:#000000;fill-opacity:1;stroke:none;stroke-width:0.3384617;stroke-miterlimit:4;stroke-dasharray:none;stroke-opacity:0.98039216"
         id="path1435"
         inkscape:connector-curvature="0" />
    </g>
    <path
       style="fill:none;fill-opacity:1;fill-rule:evenodd;stroke:#000000;stroke-width:0.30099818;stroke-linecap:butt;stroke-linejoin:miter;stroke-miterlimit:4;stroke-dasharray:none;stroke-opacity:1"
       d="m 169.88901,92.3276 0.0209,-3.135925"
       id="use11610"
       inkscape:connector-type="polyline"
       inkscape:connector-curvature="0" />
    <path
       style="fill:none;fill-opacity:1;fill-rule:evenodd;stroke:#000000;stroke-width:0.30099818;stroke-linecap:butt;stroke-linejoin:miter;stroke-miterlimit:4;stroke-dasharray:none;stroke-opacity:1"
       d="m 170.35372,88.867812 3.48991,-4.1e-5"
       id="path11620"
       inkscape:connector-type="polyline"
       inkscape:connector-curvature="0" />
    <path
       inkscape:connector-curvature="0"
       inkscape:connector-type="polyline"
       id="use11628"
       d="m 174.2067,92.327532 0.0175,-3.135801"
       style="fill:none;fill-opacity:1;fill-rule:evenodd;stroke:#000000;stroke-width:0.30099818;stroke-linecap:butt;stroke-linejoin:miter;stroke-miterlimit:4;stroke-dasharray:none;stroke-opacity:1" />
    <path
       style="fill:none;fill-opacity:1;stroke:#000000;stroke-width:0.30099818;stroke-linecap:round;stroke-linejoin:miter;stroke-miterlimit:4;stroke-dasharray:none;stroke-opacity:1"
       d="m 169.90982,89.237163 c -0.006,-0.339759 0.1792,-0.370625 0.44396,-0.36946"
       id="path11632"
       inkscape:connector-curvature="0"
       sodipodi:nodetypes="cc" />
    <path
       style="fill:none;fill-opacity:1;stroke:#000000;stroke-width:0.30099818;stroke-linecap:round;stroke-linejoin:miter;stroke-miterlimit:4;stroke-dasharray:none;stroke-opacity:1"
       d="m 173.84363,88.867771 c 0.21194,-2.14e-4 0.36356,0.03391 0.37271,0.369503"
       id="path11634"
       inkscape:connector-curvature="0"
       sodipodi:nodetypes="cc"
       inkscape:transform-center-x="0.25453421"
       inkscape:transform-center-y="0.39208807" />
    <path
       style="fill:none;fill-opacity:1;fill-rule:evenodd;stroke:#000000;stroke-width:0.30099818;stroke-linecap:butt;stroke-linejoin:miter;stroke-miterlimit:4;stroke-dasharray:none;stroke-opacity:1"
       d="m 173.75911,92.698576 -3.51801,4.5e-5"
       id="path11620-3"
       inkscape:connector-type="polyline"
       inkscape:connector-curvature="0" />
    <path
       style="fill:none;fill-opacity:1;stroke:#000000;stroke-width:0.30099818;stroke-linecap:round;stroke-linejoin:miter;stroke-miterlimit:4;stroke-dasharray:none;stroke-opacity:1"
       d="m 174.20658,92.295564 c 0.006,0.370722 -0.18066,0.404402 -0.44756,0.403132"
       id="path11632-8"
       inkscape:connector-curvature="0"
       sodipodi:nodetypes="cc" />
    <path
       style="fill:none;fill-opacity:1;stroke:#000000;stroke-width:0.30099818;stroke-linecap:round;stroke-linejoin:miter;stroke-miterlimit:4;stroke-dasharray:none;stroke-opacity:1"
       d="m 170.24117,92.698512 c -0.19962,2.08e-4 -0.34245,-0.03306 -0.35106,-0.360128"
       id="path11634-0"
       inkscape:connector-curvature="0"
       sodipodi:nodetypes="cc"
       inkscape:transform-center-x="0.2378309"
       inkscape:transform-center-y="0.35022203" />
    <path
       style="fill:none;fill-opacity:1;fill-rule:evenodd;stroke:#000000;stroke-width:0.30099818;stroke-linecap:square;stroke-linejoin:miter;stroke-miterlimit:4;stroke-dasharray:none;stroke-opacity:1"
       d="m 175.68605,92.655611 0.0175,-3.765749"
       id="path11581-8-7-2-8-6"
       inkscape:connector-type="polyline"
       inkscape:connector-curvature="0" />
    <path
       inkscape:connector-curvature="0"
       inkscape:connector-type="polyline"
       id="use11583-4-2-1-5-5"
       d="m 179.93849,92.655611 0.0175,-3.765749"
       style="fill:none;fill-opacity:1;fill-rule:evenodd;stroke:#000000;stroke-width:0.30099818;stroke-linecap:square;stroke-linejoin:miter;stroke-miterlimit:4;stroke-dasharray:none;stroke-opacity:1" />
    <path
       style="fill:none;fill-opacity:1;fill-rule:evenodd;stroke:#000000;stroke-width:0.30099818;stroke-linecap:butt;stroke-linejoin:bevel;stroke-miterlimit:4;stroke-dasharray:none;stroke-opacity:1"
       d="m 175.73712,88.855101 4.14068,3.822154"
       id="path11587-6-1-2-4-4"
       inkscape:connector-type="polyline"
       inkscape:connector-curvature="0" />
    <path
       style="fill:none;fill-opacity:1;fill-rule:evenodd;stroke:#000000;stroke-width:0.30099818;stroke-linecap:butt;stroke-linejoin:miter;stroke-miterlimit:4;stroke-dasharray:none;stroke-opacity:1"
       d="m 196.22572,92.620784 -3.80092,4.1e-5"
       id="path11620-3-1"
       inkscape:connector-type="polyline"
       inkscape:connector-curvature="0" />
    <path
       style="fill:none;fill-opacity:1;fill-rule:evenodd;stroke:#000000;stroke-width:0.30099818;stroke-linecap:butt;stroke-linejoin:miter;stroke-miterlimit:4;stroke-dasharray:none;stroke-opacity:1"
       d="m 181.38944,92.305775 0.0208,-3.135924"
       id="use11610-6"
       inkscape:connector-type="polyline"
       inkscape:connector-curvature="0" />
    <path
       style="fill:none;fill-opacity:1;fill-rule:evenodd;stroke:#000000;stroke-width:0.30099818;stroke-linecap:butt;stroke-linejoin:miter;stroke-miterlimit:4;stroke-dasharray:none;stroke-opacity:1"
       d="m 181.85415,88.845989 3.48991,-4.1e-5"
       id="path11620-84"
       inkscape:connector-type="polyline"
       inkscape:connector-curvature="0" />
    <path
       inkscape:connector-curvature="0"
       inkscape:connector-type="polyline"
       id="use11628-5"
       d="m 185.70711,92.305709 0.0175,-3.135803"
       style="fill:none;fill-opacity:1;fill-rule:evenodd;stroke:#000000;stroke-width:0.30099818;stroke-linecap:butt;stroke-linejoin:miter;stroke-miterlimit:4;stroke-dasharray:none;stroke-opacity:1" />
    <path
       style="fill:none;fill-opacity:1;stroke:#000000;stroke-width:0.30099818;stroke-linecap:round;stroke-linejoin:miter;stroke-miterlimit:4;stroke-dasharray:none;stroke-opacity:1"
       d="m 181.41023,89.215337 c -0.006,-0.339755 0.1792,-0.370622 0.44397,-0.369457"
       id="path11632-1"
       inkscape:connector-curvature="0"
       sodipodi:nodetypes="cc" />
    <path
       style="fill:none;fill-opacity:1;stroke:#000000;stroke-width:0.30099818;stroke-linecap:round;stroke-linejoin:miter;stroke-miterlimit:4;stroke-dasharray:none;stroke-opacity:1"
       d="m 185.34406,88.845948 c 0.21195,-2.15e-4 0.36357,0.03391 0.37272,0.369503"
       id="path11634-8"
       inkscape:connector-curvature="0"
       sodipodi:nodetypes="cc"
       inkscape:transform-center-x="0.25452518"
       inkscape:transform-center-y="0.39208841" />
    <path
       style="fill:none;fill-opacity:1;fill-rule:evenodd;stroke:#000000;stroke-width:0.30099818;stroke-linecap:butt;stroke-linejoin:miter;stroke-miterlimit:4;stroke-dasharray:none;stroke-opacity:1"
       d="m 185.25953,92.676753 -3.51799,4.5e-5"
       id="path11620-3-11"
       inkscape:connector-type="polyline"
       inkscape:connector-curvature="0" />
    <path
       style="fill:none;fill-opacity:1;stroke:#000000;stroke-width:0.30099818;stroke-linecap:round;stroke-linejoin:miter;stroke-miterlimit:4;stroke-dasharray:none;stroke-opacity:1"
       d="m 185.70701,92.273742 c 0.006,0.370722 -0.18066,0.404399 -0.44757,0.403131"
       id="path11632-8-0"
       inkscape:connector-curvature="0"
       sodipodi:nodetypes="cc" />
    <path
       style="fill:none;fill-opacity:1;stroke:#000000;stroke-width:0.30099818;stroke-linecap:round;stroke-linejoin:miter;stroke-miterlimit:4;stroke-dasharray:none;stroke-opacity:1"
       d="m 181.7416,92.676687 c -0.19964,2.12e-4 -0.34245,-0.03306 -0.35105,-0.360125"
       id="path11634-0-7"
       inkscape:connector-curvature="0"
       sodipodi:nodetypes="cc"
       inkscape:transform-center-x="0.23782187"
       inkscape:transform-center-y="0.35022191" />
    <path
       style="fill:none;fill-opacity:1;fill-rule:evenodd;stroke:#000000;stroke-width:0.30099818;stroke-linecap:butt;stroke-linejoin:miter;stroke-miterlimit:4;stroke-dasharray:none;stroke-opacity:1"
       d="m 191.00175,92.620213 -3.54663,-0.01845"
       id="use11610-0"
       inkscape:connector-type="polyline"
       inkscape:connector-curvature="0" />
    <path
       style="fill:none;fill-opacity:1;fill-rule:evenodd;stroke:#000000;stroke-width:0.30099818;stroke-linecap:butt;stroke-linejoin:miter;stroke-miterlimit:4;stroke-dasharray:none;stroke-opacity:1"
       d="m 187.08883,92.209215 -4e-5,-3.086576"
       id="path11620-0"
       inkscape:connector-type="polyline"
       inkscape:connector-curvature="0" />
    <path
       inkscape:connector-curvature="0"
       inkscape:connector-type="polyline"
       id="use11628-2"
       d="m 191.00168,88.801543 -3.5465,-0.01549"
       style="fill:none;fill-opacity:1;fill-rule:evenodd;stroke:#000000;stroke-width:0.30099818;stroke-linecap:butt;stroke-linejoin:miter;stroke-miterlimit:4;stroke-dasharray:none;stroke-opacity:1" />
    <path
       style="fill:none;fill-opacity:1;stroke:#000000;stroke-width:0.30099818;stroke-linecap:round;stroke-linejoin:miter;stroke-miterlimit:4;stroke-dasharray:none;stroke-opacity:1"
       d="m 187.50656,92.601819 c -0.38424,0.0042 -0.41916,-0.158492 -0.41785,-0.392669"
       id="path11632-7"
       inkscape:connector-curvature="0"
       sodipodi:nodetypes="cc" />
    <path
       style="fill:none;fill-opacity:1;stroke:#000000;stroke-width:0.30099818;stroke-linecap:round;stroke-linejoin:miter;stroke-miterlimit:4;stroke-dasharray:none;stroke-opacity:1"
       d="m 187.08879,89.122639 c -2.4e-4,-0.187452 0.0383,-0.321546 0.41789,-0.32964"
       id="path11634-2"
       inkscape:connector-curvature="0"
       sodipodi:nodetypes="cc"
       inkscape:transform-center-x="0.25453616"
       inkscape:transform-center-y="0.39208717" />
    <g
       aria-label="SENSOR/TOUCH PANEL"
       style="font-style:normal;font-weight:normal;font-size:4.23333311px;line-height:1.25;font-family:sans-serif;letter-spacing:0px;word-spacing:0px;fill:#000000;fill-opacity:1;stroke:none;stroke-width:0.26458332"
       id="text25144"
       transform="matrix(1.113367,0,0,1.113367,-17.700734,-9.9551083)">
      <path
         d="m 171.13961,93.4524 v 0.05532 h -0.16002 V 93.4524 q 0,-0.03161 -0.0237,-0.05334 -0.0217,-0.02371 -0.0533,-0.02371 h -0.94826 q -0.0316,0 -0.0553,0.02371 -0.0217,0.02173 -0.0217,0.05334 v 0.318065 q 0,0.03161 0.0217,0.05334 0.0237,0.02173 0.0553,0.02173 h 0.94826 q 0.0988,0 0.16792,0.06914 0.0692,0.06914 0.0692,0.167922 v 0.318065 q 0,0.09878 -0.0692,0.167922 -0.0691,0.06914 -0.16792,0.06914 h -0.94826 q -0.0988,0 -0.16793,-0.06914 -0.0691,-0.06914 -0.0691,-0.167922 v -0.05532 h 0.16002 v 0.05532 q 0,0.03161 0.0217,0.05532 0.0237,0.02173 0.0553,0.02173 h 0.94826 q 0.0316,0 0.0533,-0.02173 0.0237,-0.02371 0.0237,-0.05532 v -0.318065 q 0,-0.03161 -0.0237,-0.05334 -0.0217,-0.02173 -0.0533,-0.02173 h -0.94826 q -0.0988,0 -0.16793,-0.06914 -0.0691,-0.06915 -0.0691,-0.167922 V 93.4524 q 0,-0.09878 0.0691,-0.167922 0.0692,-0.06914 0.16793,-0.06914 h 0.94826 q 0.0988,0 0.16792,0.06914 0.0692,0.06914 0.0692,0.167922 z"
         style="font-style:normal;font-variant:normal;font-weight:normal;font-stretch:normal;font-size:1.97555554px;font-family:Orbitron;-inkscape-font-specification:Orbitron;stroke-width:0.26458332"
         id="path28181"
         inkscape:connector-curvature="0" />
      <path
         d="m 172.65341,93.215333 v 0.16002 h -1.13792 v 0.470183 h 0.91468 v 0.161995 h -0.91468 v 0.470182 h 1.13792 v 0.16002 h -1.29794 v -1.4224 z"
         style="font-style:normal;font-variant:normal;font-weight:normal;font-stretch:normal;font-size:1.97555554px;font-family:Orbitron;-inkscape-font-specification:Orbitron;stroke-width:0.26458332"
         id="path28183"
         inkscape:connector-curvature="0" />
      <path
         d="m 174.12643,94.455982 v -1.240649 h 0.16002 v 1.4224 h -0.21928 l -1.0431,-1.240648 v 1.240648 h -0.16002 v -1.4224 h 0.21929 z"
         style="font-style:normal;font-variant:normal;font-weight:normal;font-stretch:normal;font-size:1.97555554px;font-family:Orbitron;-inkscape-font-specification:Orbitron;stroke-width:0.26458332"
         id="path28185"
         inkscape:connector-curvature="0" />
      <path
         d="m 175.9203,93.4524 v 0.05532 h -0.16002 V 93.4524 q 0,-0.03161 -0.0237,-0.05334 -0.0217,-0.02371 -0.0533,-0.02371 h -0.94826 q -0.0316,0 -0.0553,0.02371 -0.0217,0.02173 -0.0217,0.05334 v 0.318065 q 0,0.03161 0.0217,0.05334 0.0237,0.02173 0.0553,0.02173 h 0.94826 q 0.0988,0 0.16792,0.06914 0.0692,0.06914 0.0692,0.167922 v 0.318065 q 0,0.09878 -0.0692,0.167922 -0.0691,0.06914 -0.16792,0.06914 h -0.94826 q -0.0988,0 -0.16793,-0.06914 -0.0691,-0.06914 -0.0691,-0.167922 v -0.05532 h 0.16002 v 0.05532 q 0,0.03161 0.0217,0.05532 0.0237,0.02173 0.0553,0.02173 h 0.94826 q 0.0316,0 0.0533,-0.02173 0.0237,-0.02371 0.0237,-0.05532 v -0.318065 q 0,-0.03161 -0.0237,-0.05334 -0.0217,-0.02173 -0.0533,-0.02173 h -0.94826 q -0.0988,0 -0.16793,-0.06914 -0.0691,-0.06915 -0.0691,-0.167922 V 93.4524 q 0,-0.09878 0.0691,-0.167922 0.0692,-0.06914 0.16793,-0.06914 h 0.94826 q 0.0988,0 0.16792,0.06914 0.0692,0.06914 0.0692,0.167922 z"
         style="font-style:normal;font-variant:normal;font-weight:normal;font-stretch:normal;font-size:1.97555554px;font-family:Orbitron;-inkscape-font-specification:Orbitron;stroke-width:0.26458332"
         id="path28187"
         inkscape:connector-curvature="0" />
      <path
         d="m 176.36532,93.215333 h 0.94827 q 0.0988,0 0.16792,0.06914 0.0692,0.06914 0.0692,0.167922 v 0.948267 q 0,0.09878 -0.0692,0.167922 -0.0691,0.06914 -0.16792,0.06914 h -0.94827 q -0.0988,0 -0.16792,-0.06914 -0.0691,-0.06914 -0.0691,-0.167922 V 93.4524 q 0,-0.09878 0.0691,-0.167922 0.0692,-0.06914 0.16792,-0.06914 z m 0,1.26238 h 0.94827 q 0.0316,0 0.0533,-0.02173 0.0237,-0.02371 0.0237,-0.05532 V 93.4524 q 0,-0.03161 -0.0237,-0.05334 -0.0217,-0.02371 -0.0533,-0.02371 h -0.94827 q -0.0316,0 -0.0553,0.02371 -0.0217,0.02173 -0.0217,0.05334 v 0.948267 q 0,0.03161 0.0217,0.05532 0.0237,0.02173 0.0553,0.02173 z"
         style="font-style:normal;font-variant:normal;font-weight:normal;font-stretch:normal;font-size:1.97555554px;font-family:Orbitron;-inkscape-font-specification:Orbitron;stroke-width:0.26458332"
         id="path28189"
         inkscape:connector-curvature="0" />
      <path
         d="m 179.18864,93.454376 v 0.416842 q 0,0.09878 -0.0691,0.167922 -0.0691,0.06914 -0.16792,0.06914 h -0.21731 l 0.44648,0.529448 h -0.21139 l -0.4445,-0.529448 h -0.52154 q -0.0178,0 -0.077,-0.0079 v 0.537351 h -0.16002 v -1.420424 h 1.18533 q 0.0988,0 0.16792,0.06914 0.0691,0.06915 0.0691,0.167923 z m -1.18533,0.491913 h 0.94826 q 0.0316,0 0.0533,-0.02173 0.0217,-0.02173 0.0217,-0.05334 v -0.416842 q 0,-0.03161 -0.0217,-0.05334 -0.0217,-0.02371 -0.0533,-0.02371 h -0.94826 q -0.0316,0 -0.0553,0.02371 -0.0217,0.02173 -0.0217,0.05334 v 0.416842 q 0,0.03161 0.0217,0.05334 0.0237,0.02173 0.0553,0.02173 z"
         style="font-style:normal;font-variant:normal;font-weight:normal;font-stretch:normal;font-size:1.97555554px;font-family:Orbitron;-inkscape-font-specification:Orbitron;stroke-width:0.26458332"
         id="path28191"
         inkscape:connector-curvature="0" />
      <path
         d="m 179.29773,94.428325 0.99963,-1.212992 v 0.205458 l -0.99963,1.216942 z"
         style="font-style:normal;font-variant:normal;font-weight:normal;font-stretch:normal;font-size:1.97555554px;font-family:Orbitron;-inkscape-font-specification:Orbitron;stroke-width:0.26458332"
         id="path28193"
         inkscape:connector-curvature="0" />
      <path
         d="m 180.35561,93.215333 h 1.4224 v 0.16002 h -0.63021 v 1.26238 h -0.16002 v -1.26238 h -0.63217 z"
         style="font-style:normal;font-variant:normal;font-weight:normal;font-stretch:normal;font-size:1.97555554px;font-family:Orbitron;-inkscape-font-specification:Orbitron;stroke-width:0.26458332"
         id="path28195"
         inkscape:connector-curvature="0" />
      <path
         d="m 182.1608,93.215333 h 0.94827 q 0.0988,0 0.16792,0.06914 0.0691,0.06914 0.0691,0.167922 v 0.948267 q 0,0.09878 -0.0691,0.167922 -0.0692,0.06914 -0.16792,0.06914 h -0.94827 q -0.0988,0 -0.16792,-0.06914 -0.0692,-0.06914 -0.0692,-0.167922 V 93.4524 q 0,-0.09878 0.0692,-0.167922 0.0691,-0.06914 0.16792,-0.06914 z m 0,1.26238 h 0.94827 q 0.0316,0 0.0533,-0.02173 0.0237,-0.02371 0.0237,-0.05532 V 93.4524 q 0,-0.03161 -0.0237,-0.05334 -0.0217,-0.02371 -0.0533,-0.02371 h -0.94827 q -0.0316,0 -0.0553,0.02371 -0.0217,0.02173 -0.0217,0.05334 v 0.948267 q 0,0.03161 0.0217,0.05532 0.0237,0.02173 0.0553,0.02173 z"
         style="font-style:normal;font-variant:normal;font-weight:normal;font-stretch:normal;font-size:1.97555554px;font-family:Orbitron;-inkscape-font-specification:Orbitron;stroke-width:0.26458332"
         id="path28197"
         inkscape:connector-curvature="0" />
      <path
         d="m 184.82212,94.400667 v -1.185334 h 0.16002 v 1.185334 q 0,0.09878 -0.0691,0.167922 -0.0692,0.06914 -0.16793,0.06914 h -0.94826 q -0.0988,0 -0.16792,-0.06914 -0.0692,-0.06914 -0.0692,-0.167922 v -1.185334 h 0.16002 v 1.185334 q 0,0.03161 0.0217,0.05532 0.0237,0.02173 0.0553,0.02173 h 0.94826 q 0.0316,0 0.0533,-0.02173 0.0237,-0.02371 0.0237,-0.05532 z"
         style="font-style:normal;font-variant:normal;font-weight:normal;font-stretch:normal;font-size:1.97555554px;font-family:Orbitron;-inkscape-font-specification:Orbitron;stroke-width:0.26458332"
         id="path28199"
         inkscape:connector-curvature="0" />
      <path
         d="m 186.61815,93.375353 h -1.18138 q -0.0316,0 -0.0553,0.02371 -0.0217,0.02173 -0.0217,0.05334 v 0.948267 q 0,0.03161 0.0217,0.05532 0.0237,0.02173 0.0553,0.02173 h 1.18138 v 0.16002 h -1.18138 q -0.0988,0 -0.16793,-0.06914 -0.0691,-0.06914 -0.0691,-0.167922 V 93.4524 q 0,-0.09878 0.0691,-0.167922 0.0691,-0.06914 0.16793,-0.06914 h 1.18138 z"
         style="font-style:normal;font-variant:normal;font-weight:normal;font-stretch:normal;font-size:1.97555554px;font-family:Orbitron;-inkscape-font-specification:Orbitron;stroke-width:0.26458332"
         id="path28201"
         inkscape:connector-curvature="0" />
      <path
         d="m 188.12207,93.215333 h 0.162 v 1.4224 h -0.162 v -0.630202 h -1.13594 v 0.630202 h -0.16002 v -1.4224 h 0.16002 v 0.630203 h 1.13594 z"
         style="font-style:normal;font-variant:normal;font-weight:normal;font-stretch:normal;font-size:1.97555554px;font-family:Orbitron;-inkscape-font-specification:Orbitron;stroke-width:0.26458332"
         id="path28203"
         inkscape:connector-curvature="0" />
      <path
         d="m 189.04277,93.217309 h 1.18533 q 0.0988,0 0.16793,0.06914 0.0691,0.06915 0.0691,0.167923 v 0.416842 q 0,0.09878 -0.0691,0.167922 -0.0692,0.06914 -0.16793,0.06914 h -0.94826 q -0.0178,0 -0.0771,-0.0079 v 0.537351 h -0.16002 z m 1.26238,0.653909 v -0.416842 q 0,-0.03161 -0.0237,-0.05334 -0.0217,-0.02371 -0.0533,-0.02371 h -0.94826 q -0.0316,0 -0.0553,0.02371 -0.0217,0.02173 -0.0217,0.05334 v 0.416842 q 0,0.03161 0.0217,0.05334 0.0237,0.02173 0.0553,0.02173 h 0.94826 q 0.0316,0 0.0533,-0.02173 0.0237,-0.02173 0.0237,-0.05334 z"
         style="font-style:normal;font-variant:normal;font-weight:normal;font-stretch:normal;font-size:1.97555554px;font-family:Orbitron;-inkscape-font-specification:Orbitron;stroke-width:0.26458332"
         id="path28205"
         inkscape:connector-curvature="0" />
      <path
         d="m 190.86578,93.215333 h 0.94826 q 0.0988,0 0.16793,0.06914 0.0691,0.06914 0.0691,0.167922 v 1.185333 h -0.16002 v -0.519571 h -1.10236 v 0.519571 h -0.16002 V 93.4524 q 0,-0.09878 0.0691,-0.167922 0.0692,-0.06914 0.16793,-0.06914 z m -0.0771,0.742809 h 1.10236 V 93.4524 q 0,-0.03161 -0.0237,-0.05334 -0.0217,-0.02371 -0.0533,-0.02371 h -0.94826 q -0.0316,0 -0.0553,0.02371 -0.0217,0.02173 -0.0217,0.05334 z"
         style="font-style:normal;font-variant:normal;font-weight:normal;font-stretch:normal;font-size:1.97555554px;font-family:Orbitron;-inkscape-font-specification:Orbitron;stroke-width:0.26458332"
         id="path28207"
         inkscape:connector-curvature="0" />
      <path
         d="m 193.53858,94.455982 v -1.240649 h 0.16002 v 1.4224 h -0.21929 l -1.04309,-1.240648 v 1.240648 h -0.16002 v -1.4224 h 0.21929 z"
         style="font-style:normal;font-variant:normal;font-weight:normal;font-stretch:normal;font-size:1.97555554px;font-family:Orbitron;-inkscape-font-specification:Orbitron;stroke-width:0.26458332"
         id="path28209"
         inkscape:connector-curvature="0" />
      <path
         d="m 195.22182,93.215333 v 0.16002 h -1.13792 v 0.470183 h 0.91468 v 0.161995 h -0.91468 v 0.470182 h 1.13792 v 0.16002 h -1.29794 v -1.4224 z"
         style="font-style:normal;font-variant:normal;font-weight:normal;font-stretch:normal;font-size:1.97555554px;font-family:Orbitron;-inkscape-font-specification:Orbitron;stroke-width:0.26458332"
         id="path28211"
         inkscape:connector-curvature="0" />
      <path
         d="m 195.43444,94.637733 v -1.424375 h 0.16002 v 1.264355 h 1.26238 v 0.16002 z"
         style="font-style:normal;font-variant:normal;font-weight:normal;font-stretch:normal;font-size:1.97555554px;font-family:Orbitron;-inkscape-font-specification:Orbitron;stroke-width:0.26458332"
         id="path28213"
         inkscape:connector-curvature="0" />
    </g>
  </g>
</svg>
