<?xml version="1.0" encoding="UTF-8" standalone="no"?>
<!-- Generator: Adobe Illustrator 20.0.0, SVG Export Plug-In . SVG Version: 6.00 Build 0)  -->

<svg
   xmlns:dc="http://purl.org/dc/elements/1.1/"
   xmlns:cc="http://creativecommons.org/ns#"
   xmlns:rdf="http://www.w3.org/1999/02/22-rdf-syntax-ns#"
   xmlns:svg="http://www.w3.org/2000/svg"
   xmlns="http://www.w3.org/2000/svg"
   xmlns:sodipodi="http://sodipodi.sourceforge.net/DTD/sodipodi-0.dtd"
   xmlns:inkscape="http://www.inkscape.org/namespaces/inkscape"
   version="1.1"
   id="Layer_1"
   x="0px"
   y="0px"
   viewBox="0 0 194.22509 93.008719"
   xml:space="preserve"
   sodipodi:docname="block.svg"
   width="194.22508"
   height="93.00872"
   inkscape:version="0.92.2 (5c3e80d, 2017-08-06)"><metadata
     id="metadata9399"><rdf:RDF><cc:Work
         rdf:about=""><dc:format>image/svg+xml</dc:format><dc:type
           rdf:resource="http://purl.org/dc/dcmitype/StillImage" /><dc:title /></cc:Work></rdf:RDF></metadata><defs
     id="defs9397"><marker
       inkscape:stockid="Arrow1Lend"
       orient="auto"
       refY="0"
       refX="0"
       id="marker4370"
       style="overflow:visible"
       inkscape:isstock="true"><path
         id="path4110"
         d="M 0,0 5,-5 -12.5,0 5,5 Z"
         style="fill:#000000;fill-opacity:1;fill-rule:evenodd;stroke:#000000;stroke-width:1.00000003pt;stroke-opacity:1"
         transform="matrix(-0.8,0,0,-0.8,-10,0)"
         inkscape:connector-curvature="0" /></marker><marker
       inkscape:stockid="Arrow1Lend"
       orient="auto"
       refY="0"
       refX="0"
       id="marker14693"
       style="overflow:visible"
       inkscape:isstock="true"><path
         id="path14691"
         d="M 0,0 5,-5 -12.5,0 5,5 Z"
         style="fill:#000000;fill-opacity:1;fill-rule:evenodd;stroke:#000000;stroke-width:1.00000003pt;stroke-opacity:1"
         transform="matrix(-0.8,0,0,-0.8,-10,0)"
         inkscape:connector-curvature="0" /></marker><marker
       inkscape:stockid="Arrow1Lend"
       orient="auto"
       refY="0"
       refX="0"
       id="Arrow1Lend"
       style="overflow:visible"
       inkscape:isstock="true"><path
         id="path14156"
         d="M 0,0 5,-5 -12.5,0 5,5 Z"
         style="fill:#000000;fill-opacity:1;fill-rule:evenodd;stroke:#000000;stroke-width:1.00000003pt;stroke-opacity:1"
         transform="matrix(-0.8,0,0,-0.8,-10,0)"
         inkscape:connector-curvature="0" /></marker><marker
       inkscape:stockid="TriangleOutL"
       orient="auto"
       refY="0"
       refX="0"
       id="TriangleOutL"
       style="overflow:visible"
       inkscape:isstock="true"><path
         id="path14295"
         d="M 5.77,0 -2.88,5 V -5 Z"
         style="fill:#000000;fill-opacity:1;fill-rule:evenodd;stroke:#000000;stroke-width:1.00000003pt;stroke-opacity:1"
         transform="scale(0.8)"
         inkscape:connector-curvature="0" /></marker><marker
       inkscape:stockid="Arrow2Lend"
       orient="auto"
       refY="0"
       refX="0"
       id="Arrow2Lend"
       style="overflow:visible"
       inkscape:isstock="true"><path
         id="path14174"
         style="fill:#000000;fill-opacity:1;fill-rule:evenodd;stroke:#000000;stroke-width:0.625;stroke-linejoin:round;stroke-opacity:1"
         d="M 8.7185878,4.0337352 -2.2072895,0.01601326 8.7185884,-4.0017078 c -1.7454984,2.3720609 -1.7354408,5.6174519 -6e-7,8.035443 z"
         transform="matrix(-1.1,0,0,-1.1,-1.1,0)"
         inkscape:connector-curvature="0" /></marker><marker
       inkscape:stockid="Arrow1Lend"
       orient="auto"
       refY="0"
       refX="0"
       id="marker14693-2"
       style="overflow:visible"
       inkscape:isstock="true"><path
         id="path14691-6"
         d="M 0,0 5,-5 -12.5,0 5,5 Z"
         style="fill:#000000;fill-opacity:1;fill-rule:evenodd;stroke:#000000;stroke-width:1.00000003pt;stroke-opacity:1"
         transform="matrix(-0.8,0,0,-0.8,-10,0)"
         inkscape:connector-curvature="0" /></marker><marker
       inkscape:stockid="Arrow1Lend"
       orient="auto"
       refY="0"
       refX="0"
       id="marker4370-9"
       style="overflow:visible"
       inkscape:isstock="true"><path
         inkscape:connector-curvature="0"
         id="path4110-8"
         d="M 0,0 5,-5 -12.5,0 5,5 Z"
         style="fill:#000000;fill-opacity:1;fill-rule:evenodd;stroke:#000000;stroke-width:1.00000003pt;stroke-opacity:1"
         transform="matrix(-0.8,0,0,-0.8,-10,0)" /></marker></defs><sodipodi:namedview
     pagecolor="#ffffff"
     bordercolor="#666666"
     borderopacity="1"
     objecttolerance="10"
     gridtolerance="10"
     guidetolerance="10"
     inkscape:pageopacity="0"
     inkscape:pageshadow="2"
     inkscape:window-width="1366"
     inkscape:window-height="745"
     id="namedview9395"
     showgrid="false"
     fit-margin-top="0"
     fit-margin-left="0"
     fit-margin-right="0"
     fit-margin-bottom="0"
     inkscape:zoom="2.710083"
     inkscape:cx="100.01437"
     inkscape:cy="37.355489"
     inkscape:window-x="-8"
     inkscape:window-y="-8"
     inkscape:window-maximized="1"
     inkscape:current-layer="Layer_1" /><style
     type="text/css"
     id="style9386">
	.st0{fill:none;stroke:#000000;stroke-width:3.4676;stroke-linecap:round;stroke-linejoin:round;stroke-miterlimit:10;}
</style><text
     xml:space="preserve"
     style="font-style:normal;font-weight:normal;font-size:16px;line-height:1.25;font-family:sans-serif;letter-spacing:0px;word-spacing:0px;fill:#000000;fill-opacity:1;stroke:none"
     x="57.483593"
     y="113.36662"
     id="text5418"><tspan
       sodipodi:role="line"
       id="tspan5416"
       x="57.483593"
       y="127.9639" /></text>
<path
     id="path1455-8"
     d="m 51.883663,82.02356 c 19.140219,0 34.744389,-15.7723 34.744389,-35.118551 0,-19.32688 -15.60417,-35.09917 -34.744389,-35.09917 -19.12076,0 -34.72508,15.77229 -34.72508,35.09917 0,19.346251 15.60432,35.118551 34.72508,35.118551 z"
     style="fill:none;stroke:#c2c2c2;stroke-width:0.75476617px;stroke-linecap:butt;stroke-linejoin:miter;stroke-miterlimit:4;stroke-dasharray:none;stroke-opacity:0.93333333"
     inkscape:connector-curvature="0" /><path
     id="path1457-0"
     d="m 51.883663,48.672599 c 0.96083,0 1.74869,-0.79643 1.74869,-1.76759 0,-0.97119 -0.78786,-1.74814 -1.74869,-1.74814 -0.94159,0 -1.72946,0.77695 -1.72946,1.74814 0,0.97116 0.78787,1.76759 1.72946,1.76759 z"
     style="fill:none;stroke:#c2c2c2;stroke-width:0.75476617px;stroke-linecap:butt;stroke-linejoin:miter;stroke-miterlimit:4;stroke-dasharray:none;stroke-opacity:0.57647059"
     inkscape:connector-curvature="0" /><g
     aria-label="EMIIA"
     style="font-style:normal;font-weight:normal;font-size:11.78161526px;line-height:1.25;font-family:sans-serif;letter-spacing:0px;word-spacing:0px;fill:#c2c2c2;fill-opacity:0.89803922;stroke:none;stroke-width:1.95741785;stroke-opacity:1"
     id="text5397-3"
     transform="matrix(0.50921336,0,0,0.51254634,1.3708932,-0.23602036)"><path
       d="m 24.169664,161.26348 v 0.95431 h -6.78621 v 2.80403 h 5.454888 v 0.96609 h -5.454888 v 2.80403 h 6.78621 v 0.95431 h -7.740521 v -8.48277 z"
       style="font-style:normal;font-variant:normal;font-weight:normal;font-stretch:normal;font-family:Orbitron;-inkscape-font-specification:Orbitron;fill:#c2c2c2;fill-opacity:0.89803922;stroke:none;stroke-width:2.6582675;stroke-opacity:1"
       id="path5399-6"
       inkscape:connector-curvature="0" /><path
       d="m 29.911177,165.45774 3.522703,-4.19426 h 1.307759 v 8.48277 h -0.954311 v -7.39886 l -3.876151,4.60661 -3.876151,-4.60661 v 7.39886 h -0.954311 v -8.48277 h 1.307759 z"
       style="font-style:normal;font-variant:normal;font-weight:normal;font-stretch:normal;font-family:Orbitron;-inkscape-font-specification:Orbitron;fill:#c2c2c2;fill-opacity:0.89803922;stroke:none;stroke-width:2.6582675;stroke-opacity:1"
       id="path5401-3"
       inkscape:connector-curvature="0" /><path
       d="m 36.022704,169.74625 v -8.48277 h 0.954311 v 8.48277 z"
       style="font-style:normal;font-variant:normal;font-weight:normal;font-stretch:normal;font-family:Orbitron;-inkscape-font-specification:Orbitron;fill:#c2c2c2;fill-opacity:0.89803922;stroke:none;stroke-width:2.6582675;stroke-opacity:1"
       id="path5403-7"
       inkscape:connector-curvature="0" /><path
       d="m 38.622945,169.74625 v -8.48277 h 0.954311 v 8.48277 z"
       style="font-style:normal;font-variant:normal;font-weight:normal;font-stretch:normal;font-family:Orbitron;-inkscape-font-specification:Orbitron;fill:#c2c2c2;fill-opacity:0.89803922;stroke:none;stroke-width:2.6582675;stroke-opacity:1"
       id="path5405-28"
       inkscape:connector-curvature="0" /><path
       d="m 42.648759,161.26348 h 5.655176 q 0.589081,0 1.001437,0.41236 0.412357,0.41236 0.412357,1.00144 v 7.06897 h -0.954311 v -3.09857 h -6.574142 v 3.09857 h -0.95431 v -7.06897 q 0,-0.58908 0.412356,-1.00144 0.412357,-0.41236 1.001437,-0.41236 z m -0.459483,4.42989 h 6.574142 v -3.01609 q 0,-0.18851 -0.14138,-0.31811 -0.129597,-0.14138 -0.318103,-0.14138 h -5.655176 q -0.188505,0 -0.329885,0.14138 -0.129598,0.1296 -0.129598,0.31811 z"
       style="font-style:normal;font-variant:normal;font-weight:normal;font-stretch:normal;font-family:Orbitron;-inkscape-font-specification:Orbitron;fill:#c2c2c2;fill-opacity:0.89803922;stroke:none;stroke-width:2.6582675;stroke-opacity:1"
       id="path5407-9"
       inkscape:connector-curvature="0" /></g><path
     id="path1455-0-0"
     d="m 140.27058,80.790805 c 18.8522,0 34.22172,-15.535235 34.22172,-34.590716 0,-19.03637 -15.36952,-34.57153 -34.22172,-34.57153 -18.83333,0 -34.20284,15.53516 -34.20284,34.57153 0,19.055481 15.36951,34.590716 34.20284,34.590716 z"
     style="fill:none;stroke:#c2c2c2;stroke-width:0.755;stroke-linecap:butt;stroke-linejoin:miter;stroke-miterlimit:4;stroke-dasharray:none;stroke-opacity:1"
     inkscape:connector-curvature="0" /><path
     id="path1457-3-5"
     d="m 140.27058,47.941189 c 0.9464,0 1.72243,-0.78446 1.72243,-1.7411 0,-0.95659 -0.77603,-1.72185 -1.72243,-1.72185 -0.92747,0 -1.70355,0.76526 -1.70355,1.72185 0,0.95664 0.77608,1.7411 1.70355,1.7411 z"
     style="fill:none;stroke:#c2c2c2;stroke-width:0.75476623px;stroke-linecap:butt;stroke-linejoin:miter;stroke-miterlimit:4;stroke-dasharray:none;stroke-opacity:1"
     inkscape:connector-curvature="0" /><path
     id="path1465-9"
     d="m 156.34043,48.629909 c 1.32497,0 2.40387,-1.09059 2.40387,-2.42982 0,-1.33932 -1.0789,-2.42977 -2.40387,-2.42977 -1.32499,0 -2.40389,1.09045 -2.40389,2.42977 0,1.33923 1.0789,2.42982 2.40389,2.42982 z"
     style="fill:none;stroke:#c2c2c2;stroke-width:0.75476623px;stroke-linecap:butt;stroke-linejoin:miter;stroke-miterlimit:4;stroke-dasharray:none;stroke-opacity:1"
     inkscape:connector-curvature="0" /><path
     id="path1467-4"
     d="m 124.21961,48.629909 c 1.32498,0 2.40389,-1.09059 2.40389,-2.42982 0,-1.33932 -1.07891,-2.42977 -2.40389,-2.42977 -1.3249,0 -2.40378,1.09045 -2.40378,2.42977 0,1.33923 1.07888,2.42982 2.40378,2.42982 z"
     style="fill:none;stroke:#c2c2c2;stroke-width:0.75476623px;stroke-linecap:butt;stroke-linejoin:miter;stroke-miterlimit:4;stroke-dasharray:none;stroke-opacity:1"
     inkscape:connector-curvature="0" /><ellipse
     style="opacity:1;fill:none;fill-opacity:0.58039216;fill-rule:evenodd;stroke:#c2c2c2;stroke-width:0.07559055;stroke-linecap:round;stroke-linejoin:round;stroke-miterlimit:10.30853367;stroke-dasharray:none;stroke-dashoffset:0;stroke-opacity:1;paint-order:markers fill stroke"
     id="path5410-8"
     cx="140.17664"
     cy="46.199165"
     rx="23.459623"
     ry="23.007275" /><rect
     style="opacity:1;fill:none;fill-opacity:0.98823529;fill-rule:evenodd;stroke:#c2c2c2;stroke-width:0.98267716;stroke-linecap:round;stroke-linejoin:round;stroke-miterlimit:4;stroke-dasharray:none;stroke-dashoffset:0;stroke-opacity:1;paint-order:markers fill stroke"
     id="rect1490"
     width="193.2424"
     height="92.026047"
     x="0.49133858"
     y="0.49133858"
     rx="9.3174086"
     ry="8.117836" /><path
     id="path828-72"
     d="m 140.3633,23.651282 v 0 c 1.00726,0 1.83124,0.827572 1.83124,1.838921 v 4.735222 c 0,1.011349 -0.82416,1.838922 -1.83124,1.838922 v 0 c -1.00712,0 -1.78532,-0.828409 -1.78532,-1.838922 v -4.735222 c 0,-1.011439 0.77801,-1.838921 1.78532,-1.838921 z"
     style="fill:none;stroke:#c2c2c2;stroke-width:0.755;stroke-linecap:butt;stroke-linejoin:miter;stroke-miterlimit:4;stroke-dasharray:none;stroke-opacity:1"
     inkscape:connector-curvature="0" /><path
     id="path828-72-1"
     d="m 140.50105,60.362236 v 0 c 1.00726,0 1.83124,0.82757 1.83124,1.83892 v 4.73522 c 0,1.01135 -0.82416,1.83892 -1.83124,1.83892 v 0 c -1.00712,0 -1.78532,-0.82841 -1.78532,-1.83892 v -4.73522 c 0,-1.01144 0.77801,-1.83892 1.78532,-1.83892 z"
     style="fill:none;stroke:#c2c2c2;stroke-width:0.755;stroke-linecap:butt;stroke-linejoin:miter;stroke-miterlimit:4;stroke-dasharray:none;stroke-opacity:1"
     inkscape:connector-curvature="0" /></svg>