<?xml version="1.0" encoding="UTF-8" standalone="no"?>
<!-- Generator: Adobe Illustrator 20.0.0, SVG Export Plug-In . SVG Version: 6.00 Build 0)  -->

<svg
   xmlns:dc="http://purl.org/dc/elements/1.1/"
   xmlns:cc="http://creativecommons.org/ns#"
   xmlns:rdf="http://www.w3.org/1999/02/22-rdf-syntax-ns#"
   xmlns:svg="http://www.w3.org/2000/svg"
   xmlns="http://www.w3.org/2000/svg"
   xmlns:sodipodi="http://sodipodi.sourceforge.net/DTD/sodipodi-0.dtd"
   xmlns:inkscape="http://www.inkscape.org/namespaces/inkscape"
   version="1.1"
   id="Layer_1"
   x="0px"
   y="0px"
   viewBox="0 0 92.481943 92.868842"
   xml:space="preserve"
   sodipodi:docname="EMIIAMONOCLE3.svg"
   width="92.481941"
   height="92.868843"
   inkscape:version="0.92.2 (5c3e80d, 2017-08-06)"><metadata
     id="metadata9399"><rdf:RDF><cc:Work
         rdf:about=""><dc:format>image/svg+xml</dc:format><dc:type
           rdf:resource="http://purl.org/dc/dcmitype/StillImage" /><dc:title></dc:title></cc:Work></rdf:RDF></metadata><defs
     id="defs9397"><marker
       inkscape:stockid="Arrow1Lend"
       orient="auto"
       refY="0"
       refX="0"
       id="marker4370"
       style="overflow:visible"
       inkscape:isstock="true"><path
         id="path4110"
         d="M 0,0 5,-5 -12.5,0 5,5 Z"
         style="fill:#000000;fill-opacity:1;fill-rule:evenodd;stroke:#000000;stroke-width:1.00000003pt;stroke-opacity:1"
         transform="matrix(-0.8,0,0,-0.8,-10,0)"
         inkscape:connector-curvature="0" /></marker><marker
       inkscape:stockid="Arrow1Lend"
       orient="auto"
       refY="0"
       refX="0"
       id="marker14693"
       style="overflow:visible"
       inkscape:isstock="true"><path
         id="path14691"
         d="M 0,0 5,-5 -12.5,0 5,5 Z"
         style="fill:#000000;fill-opacity:1;fill-rule:evenodd;stroke:#000000;stroke-width:1.00000003pt;stroke-opacity:1"
         transform="matrix(-0.8,0,0,-0.8,-10,0)"
         inkscape:connector-curvature="0" /></marker><marker
       inkscape:stockid="Arrow1Lend"
       orient="auto"
       refY="0"
       refX="0"
       id="Arrow1Lend"
       style="overflow:visible"
       inkscape:isstock="true"><path
         id="path14156"
         d="M 0,0 5,-5 -12.5,0 5,5 Z"
         style="fill:#000000;fill-opacity:1;fill-rule:evenodd;stroke:#000000;stroke-width:1.00000003pt;stroke-opacity:1"
         transform="matrix(-0.8,0,0,-0.8,-10,0)"
         inkscape:connector-curvature="0" /></marker><marker
       inkscape:stockid="TriangleOutL"
       orient="auto"
       refY="0"
       refX="0"
       id="TriangleOutL"
       style="overflow:visible"
       inkscape:isstock="true"><path
         id="path14295"
         d="M 5.77,0 -2.88,5 V -5 Z"
         style="fill:#000000;fill-opacity:1;fill-rule:evenodd;stroke:#000000;stroke-width:1.00000003pt;stroke-opacity:1"
         transform="scale(0.8)"
         inkscape:connector-curvature="0" /></marker><marker
       inkscape:stockid="Arrow2Lend"
       orient="auto"
       refY="0"
       refX="0"
       id="Arrow2Lend"
       style="overflow:visible"
       inkscape:isstock="true"><path
         id="path14174"
         style="fill:#000000;fill-opacity:1;fill-rule:evenodd;stroke:#000000;stroke-width:0.625;stroke-linejoin:round;stroke-opacity:1"
         d="M 8.7185878,4.0337352 -2.2072895,0.01601326 8.7185884,-4.0017078 c -1.7454984,2.3720609 -1.7354408,5.6174519 -6e-7,8.035443 z"
         transform="matrix(-1.1,0,0,-1.1,-1.1,0)"
         inkscape:connector-curvature="0" /></marker><marker
       inkscape:stockid="Arrow1Lend"
       orient="auto"
       refY="0"
       refX="0"
       id="marker14693-2"
       style="overflow:visible"
       inkscape:isstock="true"><path
         id="path14691-6"
         d="M 0,0 5,-5 -12.5,0 5,5 Z"
         style="fill:#000000;fill-opacity:1;fill-rule:evenodd;stroke:#000000;stroke-width:1.00000003pt;stroke-opacity:1"
         transform="matrix(-0.8,0,0,-0.8,-10,0)"
         inkscape:connector-curvature="0" /></marker><marker
       inkscape:stockid="Arrow1Lend"
       orient="auto"
       refY="0"
       refX="0"
       id="marker4370-9"
       style="overflow:visible"
       inkscape:isstock="true"><path
         inkscape:connector-curvature="0"
         id="path4110-8"
         d="M 0,0 5,-5 -12.5,0 5,5 Z"
         style="fill:#000000;fill-opacity:1;fill-rule:evenodd;stroke:#000000;stroke-width:1.00000003pt;stroke-opacity:1"
         transform="matrix(-0.8,0,0,-0.8,-10,0)" /></marker></defs><sodipodi:namedview
     pagecolor="#ffffff"
     bordercolor="#666666"
     borderopacity="1"
     objecttolerance="10"
     gridtolerance="10"
     guidetolerance="10"
     inkscape:pageopacity="0"
     inkscape:pageshadow="2"
     inkscape:window-width="1366"
     inkscape:window-height="745"
     id="namedview9395"
     showgrid="false"
     fit-margin-top="0"
     fit-margin-left="0"
     fit-margin-right="0"
     fit-margin-bottom="0"
     inkscape:zoom="3.2924659"
     inkscape:cx="88.777051"
     inkscape:cy="62.705613"
     inkscape:window-x="-8"
     inkscape:window-y="-8"
     inkscape:window-maximized="1"
     inkscape:current-layer="Layer_1" /><style
     type="text/css"
     id="style9386">
	.st0{fill:none;stroke:#000000;stroke-width:3.4676;stroke-linecap:round;stroke-linejoin:round;stroke-miterlimit:10;}
</style><path
     id="path1453"
     d="M 81.929852,0.4905979 H 10.552081 c -5.5328709,0 -10.0614831,4.5477528 -10.0614831,10.1040341 V 82.27423 c 0,5.556261 4.5286122,10.104014 10.0614831,10.104014 h 71.377771 c 5.532876,0 10.061493,-4.547753 10.061493,-10.104014 V 10.594632 c 0,-5.5562813 -4.528617,-10.1040341 -10.061493,-10.1040341 z"
     style="fill:none;stroke:#4a99d9;stroke-width:0.98119581px;stroke-linecap:butt;stroke-linejoin:miter;stroke-miterlimit:4;stroke-dasharray:none;stroke-opacity:1"
     inkscape:connector-curvature="0" /><path
     id="path1455"
     d="m 46.231496,80.828072 c 18.872386,0 34.258305,-15.450973 34.258305,-34.403151 0,-18.933158 -15.385919,-34.384151 -34.258305,-34.384151 -18.853435,0 -34.239354,15.450993 -34.239354,34.384151 0,18.952178 15.385919,34.403151 34.239354,34.403151 z"
     style="fill:none;stroke:#4a99d9;stroke-width:0.75476611px;stroke-linecap:butt;stroke-linejoin:miter;stroke-miterlimit:4;stroke-dasharray:none;stroke-opacity:1"
     inkscape:connector-curvature="0" /><path
     id="path1457"
     d="m 46.231496,48.156496 c 0.947407,0 1.724282,-0.780171 1.724282,-1.731575 0,-0.951419 -0.776875,-1.712561 -1.724282,-1.712561 -0.928462,0 -1.705337,0.761142 -1.705337,1.712561 0,0.951404 0.776875,1.731575 1.705337,1.731575 z"
     style="fill:none;stroke:#4a99d9;stroke-width:0.75476611px;stroke-linecap:butt;stroke-linejoin:miter;stroke-miterlimit:4;stroke-dasharray:none;stroke-opacity:1"
     inkscape:connector-curvature="0" /><g
     aria-label="EMIIA"
     style="font-style:normal;font-weight:normal;font-size:11.78161526px;line-height:1.25;font-family:sans-serif;letter-spacing:0px;word-spacing:0px;fill:#4a99d9;fill-opacity:0.58039218;stroke:none;stroke-width:1.99163663;stroke-opacity:1"
     id="text5397"
     transform="matrix(0.50209405,0,0,0.50210522,0.24427161,0.24426613)"><path
       d="m 24.169664,161.26348 v 0.95431 h -6.78621 v 2.80403 h 5.454888 v 0.96609 h -5.454888 v 2.80403 h 6.78621 v 0.95431 h -7.740521 v -8.48277 z"
       style="font-style:normal;font-variant:normal;font-weight:normal;font-stretch:normal;font-family:Orbitron;-inkscape-font-specification:Orbitron;fill:#4a99d9;fill-opacity:0.58039218;stroke-width:2.70473814;stroke:none;stroke-opacity:1"
       id="path5399"
       inkscape:connector-curvature="0" /><path
       d="m 29.911177,165.45774 3.522703,-4.19426 h 1.307759 v 8.48277 h -0.954311 v -7.39886 l -3.876151,4.60661 -3.876151,-4.60661 v 7.39886 h -0.954311 v -8.48277 h 1.307759 z"
       style="font-style:normal;font-variant:normal;font-weight:normal;font-stretch:normal;font-family:Orbitron;-inkscape-font-specification:Orbitron;fill:#4a99d9;fill-opacity:0.58039218;stroke-width:2.70473814;stroke:none;stroke-opacity:1"
       id="path5401"
       inkscape:connector-curvature="0" /><path
       d="m 36.022704,169.74625 v -8.48277 h 0.954311 v 8.48277 z"
       style="font-style:normal;font-variant:normal;font-weight:normal;font-stretch:normal;font-family:Orbitron;-inkscape-font-specification:Orbitron;fill:#4a99d9;fill-opacity:0.58039218;stroke-width:2.70473814;stroke:none;stroke-opacity:1"
       id="path5403"
       inkscape:connector-curvature="0" /><path
       d="m 38.622945,169.74625 v -8.48277 h 0.954311 v 8.48277 z"
       style="font-style:normal;font-variant:normal;font-weight:normal;font-stretch:normal;font-family:Orbitron;-inkscape-font-specification:Orbitron;fill:#4a99d9;fill-opacity:0.58039218;stroke-width:2.70473814;stroke:none;stroke-opacity:1"
       id="path5405"
       inkscape:connector-curvature="0" /><path
       d="m 42.648759,161.26348 h 5.655176 q 0.589081,0 1.001437,0.41236 0.412357,0.41236 0.412357,1.00144 v 7.06897 h -0.954311 v -3.09857 h -6.574142 v 3.09857 h -0.95431 v -7.06897 q 0,-0.58908 0.412356,-1.00144 0.412357,-0.41236 1.001437,-0.41236 z m -0.459483,4.42989 h 6.574142 v -3.01609 q 0,-0.18851 -0.14138,-0.31811 -0.129597,-0.14138 -0.318103,-0.14138 h -5.655176 q -0.188505,0 -0.329885,0.14138 -0.129598,0.1296 -0.129598,0.31811 z"
       style="font-style:normal;font-variant:normal;font-weight:normal;font-stretch:normal;font-family:Orbitron;-inkscape-font-specification:Orbitron;fill:#4a99d9;fill-opacity:0.58039218;stroke-width:2.70473814;stroke:none;stroke-opacity:1"
       id="path5407"
       inkscape:connector-curvature="0" /></g><text
     xml:space="preserve"
     style="font-style:normal;font-weight:normal;font-size:16px;line-height:1.25;font-family:sans-serif;letter-spacing:0px;word-spacing:0px;fill:#000000;fill-opacity:1;stroke:none"
     x="58.618679"
     y="113.21833"
     id="text5418"><tspan
       sodipodi:role="line"
       id="tspan5416"
       x="58.618679"
       y="127.81561" /></text>
</svg>
