<?xml version="1.0" encoding="UTF-8" standalone="no"?>
<!-- Created with Inkscape (http://www.inkscape.org/) -->

<svg
   xmlns:dc="http://purl.org/dc/elements/1.1/"
   xmlns:cc="http://creativecommons.org/ns#"
   xmlns:rdf="http://www.w3.org/1999/02/22-rdf-syntax-ns#"
   xmlns:svg="http://www.w3.org/2000/svg"
   xmlns="http://www.w3.org/2000/svg"
   xmlns:sodipodi="http://sodipodi.sourceforge.net/DTD/sodipodi-0.dtd"
   xmlns:inkscape="http://www.inkscape.org/namespaces/inkscape"
   width="193.93329mm"
   height="60.973709mm"
   viewBox="0 0 193.93329 60.97371"
   version="1.1"
   id="svg2839"
   inkscape:version="0.92.2 (5c3e80d, 2017-08-06)"
   sodipodi:docname="fogedge1.svg">
  <defs
     id="defs2833" />
  <sodipodi:namedview
     id="base"
     pagecolor="#ffffff"
     bordercolor="#666666"
     borderopacity="1.0"
     inkscape:pageopacity="0.0"
     inkscape:pageshadow="2"
     inkscape:zoom="0.57618154"
     inkscape:cx="254.28441"
     inkscape:cy="-111.94387"
     inkscape:document-units="mm"
     inkscape:current-layer="layer1"
     showgrid="false"
     fit-margin-top="0"
     fit-margin-left="0"
     fit-margin-right="0"
     fit-margin-bottom="0"
     inkscape:window-width="1366"
     inkscape:window-height="745"
     inkscape:window-x="-8"
     inkscape:window-y="-8"
     inkscape:window-maximized="1" />
  <metadata
     id="metadata2836">
    <rdf:RDF>
      <cc:Work
         rdf:about="">
        <dc:format>image/svg+xml</dc:format>
        <dc:type
           rdf:resource="http://purl.org/dc/dcmitype/StillImage" />
        <dc:title></dc:title>
      </cc:Work>
    </rdf:RDF>
  </metadata>
  <g
     inkscape:label="Layer 1"
     inkscape:groupmode="layer"
     id="layer1"
     transform="translate(35.645791,-113.1728)">
    <path
       id="path1453"
       d="m 17.705901,113.30265 h -46.646548 c -3.615825,0 -6.57534,3.00486 -6.57534,6.67613 v 47.36173 c 0,3.67127 2.959515,6.67619 6.57534,6.67619 h 46.646548 c 3.615831,0 6.575355,-3.00492 6.575355,-6.67619 v -47.36173 c 0,-3.67127 -2.959524,-6.67613 -6.575355,-6.67613 z"
       style="fill:none;stroke:#4a99d9;stroke-width:0.25960806px;stroke-linecap:butt;stroke-linejoin:miter;stroke-miterlimit:4;stroke-dasharray:none;stroke-opacity:1"
       inkscape:connector-curvature="0" />
    <path
       id="path1455"
       d="m -5.6235604,166.385 c 12.33342,0 22.3883684,-10.20911 22.3883684,-22.73163 0,-12.5099 -10.0549484,-22.71903 -22.3883684,-22.71903 -12.3210296,0 -22.3759846,10.20913 -22.3759846,22.71903 0,12.52252 10.054955,22.73163 22.3759846,22.73163 z"
       style="fill:none;stroke:#4a99d9;stroke-width:0.19969854px;stroke-linecap:butt;stroke-linejoin:miter;stroke-miterlimit:4;stroke-dasharray:none;stroke-opacity:1"
       inkscape:connector-curvature="0" />
    <path
       id="path1457"
       d="m -5.6235604,144.79754 c 0.619146,0 1.126847,-0.51553 1.126847,-1.14417 0,-0.62862 -0.507701,-1.1315 -1.126847,-1.1315 -0.606764,0 -1.114465,0.50288 -1.114465,1.1315 0,0.62864 0.507701,1.14417 1.114465,1.14417 z"
       style="fill:none;stroke:#4a99d9;stroke-width:0.19969854px;stroke-linecap:butt;stroke-linejoin:miter;stroke-miterlimit:4;stroke-dasharray:none;stroke-opacity:1"
       inkscape:connector-curvature="0" />
    <g
       aria-label="EMIIA"
       style="font-style:normal;font-weight:normal;font-size:11.78161526px;line-height:1.25;font-family:sans-serif;letter-spacing:0px;word-spacing:0px;fill:#4a99d9;fill-opacity:0.58039216;stroke:none;stroke-width:0.80191493;stroke-opacity:1"
       id="text5397"
       transform="matrix(0.32812676,0,0,0.33176198,-35.676953,113.13989)">
      <path
         d="m 24.169664,161.26348 v 0.95431 h -6.78621 v 2.80403 h 5.454888 v 0.96609 h -5.454888 v 2.80403 h 6.78621 v 0.95431 h -7.740521 v -8.48277 z"
         style="font-style:normal;font-variant:normal;font-weight:normal;font-stretch:normal;font-family:Orbitron;-inkscape-font-specification:Orbitron;fill:#4a99d9;fill-opacity:0.58039216;stroke:none;stroke-width:1.08903909;stroke-opacity:1"
         id="path5399"
         inkscape:connector-curvature="0" />
      <path
         d="m 29.911177,165.45774 3.522703,-4.19426 h 1.307759 v 8.48277 h -0.954311 v -7.39886 l -3.876151,4.60661 -3.876151,-4.60661 v 7.39886 h -0.954311 v -8.48277 h 1.307759 z"
         style="font-style:normal;font-variant:normal;font-weight:normal;font-stretch:normal;font-family:Orbitron;-inkscape-font-specification:Orbitron;fill:#4a99d9;fill-opacity:0.58039216;stroke:none;stroke-width:1.08903909;stroke-opacity:1"
         id="path5401"
         inkscape:connector-curvature="0" />
      <path
         d="m 36.022704,169.74625 v -8.48277 h 0.954311 v 8.48277 z"
         style="font-style:normal;font-variant:normal;font-weight:normal;font-stretch:normal;font-family:Orbitron;-inkscape-font-specification:Orbitron;fill:#4a99d9;fill-opacity:0.58039216;stroke:none;stroke-width:1.08903909;stroke-opacity:1"
         id="path5403"
         inkscape:connector-curvature="0" />
      <path
         d="m 38.622945,169.74625 v -8.48277 h 0.954311 v 8.48277 z"
         style="font-style:normal;font-variant:normal;font-weight:normal;font-stretch:normal;font-family:Orbitron;-inkscape-font-specification:Orbitron;fill:#4a99d9;fill-opacity:0.58039216;stroke:none;stroke-width:1.08903909;stroke-opacity:1"
         id="path5405"
         inkscape:connector-curvature="0" />
      <path
         d="m 42.648759,161.26348 h 5.655176 q 0.589081,0 1.001437,0.41236 0.412357,0.41236 0.412357,1.00144 v 7.06897 h -0.954311 v -3.09857 h -6.574142 v 3.09857 h -0.95431 v -7.06897 q 0,-0.58908 0.412356,-1.00144 0.412357,-0.41236 1.001437,-0.41236 z m -0.459483,4.42989 h 6.574142 v -3.01609 q 0,-0.18851 -0.14138,-0.31811 -0.129597,-0.14138 -0.318103,-0.14138 h -5.655176 q -0.188505,0 -0.329885,0.14138 -0.129598,0.1296 -0.129598,0.31811 z"
         style="font-style:normal;font-variant:normal;font-weight:normal;font-stretch:normal;font-family:Orbitron;-inkscape-font-specification:Orbitron;fill:#4a99d9;fill-opacity:0.58039216;stroke:none;stroke-width:1.08903909;stroke-opacity:1"
         id="path5407"
         inkscape:connector-curvature="0" />
    </g>
    <path
       id="path1453-8"
       d="m 151.68117,113.3026 h -45.9453 c -3.56147,0 -6.476502,2.95976 -6.476502,6.5758 v 46.64985 c 0,3.61605 2.915032,6.57576 6.476502,6.57576 h 45.9453 c 3.56151,0 6.47653,-2.95971 6.47653,-6.57576 V 119.8784 c 0,-3.61604 -2.91502,-6.5758 -6.47653,-6.5758 z"
       style="fill:none;stroke:#c2c2c2;stroke-width:0.25960806px;stroke-linecap:butt;stroke-linejoin:miter;stroke-miterlimit:4;stroke-dasharray:none;stroke-opacity:1"
       inkscape:connector-curvature="0" />
    <path
       id="path1455-0"
       d="m 128.70244,165.58703 c 12.14799,0 22.05179,-10.05565 22.05179,-22.38989 0,-12.3219 -9.9038,-22.37758 -22.05179,-22.37758 -12.13582,0 -22.03962,10.05568 -22.03962,22.37758 0,12.33424 9.9038,22.38989 22.03962,22.38989 z"
       style="fill:none;stroke:#c2c2c2;stroke-width:0.19969855px;stroke-linecap:butt;stroke-linejoin:miter;stroke-miterlimit:4;stroke-dasharray:none;stroke-opacity:1"
       inkscape:connector-curvature="0" />
    <path
       id="path1457-3"
       d="m 128.70244,144.32412 c 0.60983,0 1.10991,-0.50781 1.10991,-1.12698 0,-0.61919 -0.50008,-1.11455 -1.10991,-1.11455 -0.59764,0 -1.09772,0.49536 -1.09772,1.11455 0,0.61917 0.50008,1.12698 1.09772,1.12698 z"
       style="fill:none;stroke:#c2c2c2;stroke-width:0.19969855px;stroke-linecap:butt;stroke-linejoin:miter;stroke-miterlimit:4;stroke-dasharray:none;stroke-opacity:1"
       inkscape:connector-curvature="0" />
    <path
       id="path1465"
       d="m 139.05753,144.76988 c 0.85379,0 1.54896,-0.70589 1.54896,-1.57274 0,-0.86693 -0.69517,-1.57276 -1.54896,-1.57276 -0.85379,0 -1.54901,0.70583 -1.54901,1.57276 0,0.86685 0.69522,1.57274 1.54901,1.57274 z"
       style="fill:none;stroke:#c2c2c2;stroke-width:0.19969855px;stroke-linecap:butt;stroke-linejoin:miter;stroke-miterlimit:4;stroke-dasharray:none;stroke-opacity:1"
       inkscape:connector-curvature="0" />
    <path
       id="path1467"
       d="m 118.35954,144.76988 c 0.85378,0 1.549,-0.70589 1.549,-1.57274 0,-0.86693 -0.69522,-1.57276 -1.549,-1.57276 -0.85377,0 -1.54898,0.70583 -1.54898,1.57276 0,0.86685 0.69521,1.57274 1.54898,1.57274 z"
       style="fill:none;stroke:#c2c2c2;stroke-width:0.19969855px;stroke-linecap:butt;stroke-linejoin:miter;stroke-miterlimit:4;stroke-dasharray:none;stroke-opacity:1"
       inkscape:connector-curvature="0" />
    <g
       aria-label="EMIIA"
       style="font-style:normal;font-weight:normal;font-size:11.78161526px;line-height:1.25;font-family:sans-serif;letter-spacing:0px;word-spacing:0px;fill:#c3c3c3;fill-opacity:0.58039216;stroke:none;stroke-width:0.81415343"
       id="text5397-5"
       transform="matrix(0.32319412,0,0,0.32677514,99.100813,113.14228)">
      <path
         d="m 24.169664,161.26348 v 0.95431 h -6.78621 v 2.80403 h 5.454888 v 0.96609 h -5.454888 v 2.80403 h 6.78621 v 0.95431 h -7.740521 v -8.48277 z"
         style="font-style:normal;font-variant:normal;font-weight:normal;font-stretch:normal;font-family:Orbitron;-inkscape-font-specification:Orbitron;fill:#c3c3c3;fill-opacity:0.58039216;stroke-width:1.10565948"
         id="path5399-9"
         inkscape:connector-curvature="0" />
      <path
         d="m 29.911177,165.45774 3.522703,-4.19426 h 1.307759 v 8.48277 h -0.954311 v -7.39886 l -3.876151,4.60661 -3.876151,-4.60661 v 7.39886 h -0.954311 v -8.48277 h 1.307759 z"
         style="font-style:normal;font-variant:normal;font-weight:normal;font-stretch:normal;font-family:Orbitron;-inkscape-font-specification:Orbitron;fill:#c3c3c3;fill-opacity:0.58039216;stroke-width:1.10565948"
         id="path5401-7"
         inkscape:connector-curvature="0" />
      <path
         d="m 36.022704,169.74625 v -8.48277 h 0.954311 v 8.48277 z"
         style="font-style:normal;font-variant:normal;font-weight:normal;font-stretch:normal;font-family:Orbitron;-inkscape-font-specification:Orbitron;fill:#c3c3c3;fill-opacity:0.58039216;stroke-width:1.10565948"
         id="path5403-4"
         inkscape:connector-curvature="0" />
      <path
         d="m 38.622945,169.74625 v -8.48277 h 0.954311 v 8.48277 z"
         style="font-style:normal;font-variant:normal;font-weight:normal;font-stretch:normal;font-family:Orbitron;-inkscape-font-specification:Orbitron;fill:#c3c3c3;fill-opacity:0.58039216;stroke-width:1.10565948"
         id="path5405-2"
         inkscape:connector-curvature="0" />
      <path
         d="m 42.648759,161.26348 h 5.655176 q 0.589081,0 1.001437,0.41236 0.412357,0.41236 0.412357,1.00144 v 7.06897 h -0.954311 v -3.09857 h -6.574142 v 3.09857 h -0.95431 v -7.06897 q 0,-0.58908 0.412356,-1.00144 0.412357,-0.41236 1.001437,-0.41236 z m -0.459483,4.42989 h 6.574142 v -3.01609 q 0,-0.18851 -0.14138,-0.31811 -0.129597,-0.14138 -0.318103,-0.14138 h -5.655176 q -0.188505,0 -0.329885,0.14138 -0.129598,0.1296 -0.129598,0.31811 z"
         style="font-style:normal;font-variant:normal;font-weight:normal;font-stretch:normal;font-family:Orbitron;-inkscape-font-specification:Orbitron;fill:#c3c3c3;fill-opacity:0.58039216;stroke-width:1.10565948"
         id="path5407-5"
         inkscape:connector-curvature="0" />
    </g>
    <ellipse
       style="opacity:1;fill:none;fill-opacity:0.58039216;fill-rule:evenodd;stroke:#c2c2c2;stroke-width:0.02;stroke-linecap:round;stroke-linejoin:round;stroke-miterlimit:10.30853367;stroke-dasharray:none;stroke-dashoffset:0;stroke-opacity:1;paint-order:markers fill stroke"
       id="path5410"
       cx="128.64755"
       cy="143.19653"
       rx="15.116905"
       ry="14.892194" />
    <path
       id="path1455-1"
       d="m 60.279827,166.49997 c 12.333424,0 22.388375,-10.20912 22.388375,-22.73162 0,-12.50991 -10.054951,-22.71905 -22.388375,-22.71905 -12.32104,0 -22.375991,10.20914 -22.375991,22.71905 0,12.5225 10.054951,22.73162 22.375991,22.73162 z"
       style="fill:none;stroke:#4a99d9;stroke-width:0.19969854px;stroke-linecap:butt;stroke-linejoin:miter;stroke-miterlimit:4;stroke-dasharray:none;stroke-opacity:1"
       inkscape:connector-curvature="0" />
    <path
       id="path1457-27"
       d="m 60.279827,144.91251 c 0.619147,0 1.12685,-0.51554 1.12685,-1.14416 0,-0.62863 -0.507703,-1.13151 -1.12685,-1.13151 -0.606764,0 -1.114462,0.50288 -1.114462,1.13151 0,0.62862 0.507698,1.14416 1.114462,1.14416 z"
       style="fill:none;stroke:#4a99d9;stroke-width:0.19969854px;stroke-linecap:butt;stroke-linejoin:miter;stroke-miterlimit:4;stroke-dasharray:none;stroke-opacity:1"
       inkscape:connector-curvature="0" />
    <g
       aria-label="EMIIA"
       style="font-style:normal;font-weight:normal;font-size:11.78161526px;line-height:1.25;font-family:sans-serif;letter-spacing:0px;word-spacing:0px;fill:#4a99d9;fill-opacity:0.58039216;stroke:none;stroke-width:0.80191493;stroke-opacity:1"
       id="text5397-7"
       transform="matrix(0.32812676,0,0,0.33176198,49.135086,107.42255)">
      <path
         d="m 24.169664,161.26348 v 0.95431 h -6.78621 v 2.80403 h 5.454888 v 0.96609 h -5.454888 v 2.80403 h 6.78621 v 0.95431 h -7.740521 v -8.48277 z"
         style="font-style:normal;font-variant:normal;font-weight:normal;font-stretch:normal;font-family:Orbitron;-inkscape-font-specification:Orbitron;fill:#4a99d9;fill-opacity:0.58039216;stroke:none;stroke-width:1.08903909;stroke-opacity:1"
         id="path5399-1"
         inkscape:connector-curvature="0" />
      <path
         d="m 29.911177,165.45774 3.522703,-4.19426 h 1.307759 v 8.48277 h -0.954311 v -7.39886 l -3.876151,4.60661 -3.876151,-4.60661 v 7.39886 h -0.954311 v -8.48277 h 1.307759 z"
         style="font-style:normal;font-variant:normal;font-weight:normal;font-stretch:normal;font-family:Orbitron;-inkscape-font-specification:Orbitron;fill:#4a99d9;fill-opacity:0.58039216;stroke:none;stroke-width:1.08903909;stroke-opacity:1"
         id="path5401-6"
         inkscape:connector-curvature="0" />
      <path
         d="m 36.022704,169.74625 v -8.48277 h 0.954311 v 8.48277 z"
         style="font-style:normal;font-variant:normal;font-weight:normal;font-stretch:normal;font-family:Orbitron;-inkscape-font-specification:Orbitron;fill:#4a99d9;fill-opacity:0.58039216;stroke:none;stroke-width:1.08903909;stroke-opacity:1"
         id="path5403-41"
         inkscape:connector-curvature="0" />
      <path
         d="m 38.622945,169.74625 v -8.48277 h 0.954311 v 8.48277 z"
         style="font-style:normal;font-variant:normal;font-weight:normal;font-stretch:normal;font-family:Orbitron;-inkscape-font-specification:Orbitron;fill:#4a99d9;fill-opacity:0.58039216;stroke:none;stroke-width:1.08903909;stroke-opacity:1"
         id="path5405-5"
         inkscape:connector-curvature="0" />
      <path
         d="m 42.648759,161.26348 h 5.655176 q 0.589081,0 1.001437,0.41236 0.412357,0.41236 0.412357,1.00144 v 7.06897 h -0.954311 v -3.09857 h -6.574142 v 3.09857 h -0.95431 v -7.06897 q 0,-0.58908 0.412356,-1.00144 0.412357,-0.41236 1.001437,-0.41236 z m -0.459483,4.42989 h 6.574142 v -3.01609 q 0,-0.18851 -0.14138,-0.31811 -0.129597,-0.14138 -0.318103,-0.14138 h -5.655176 q -0.188505,0 -0.329885,0.14138 -0.129598,0.1296 -0.129598,0.31811 z"
         style="font-style:normal;font-variant:normal;font-weight:normal;font-stretch:normal;font-family:Orbitron;-inkscape-font-specification:Orbitron;fill:#4a99d9;fill-opacity:0.58039216;stroke:none;stroke-width:1.08903909;stroke-opacity:1"
         id="path5407-67"
         inkscape:connector-curvature="0" />
    </g>
    <text
       xml:space="preserve"
       style="font-style:normal;font-weight:normal;font-size:20.07637215px;line-height:1.25;font-family:sans-serif;letter-spacing:0px;word-spacing:0px;fill:#4a99d9;fill-opacity:0.58039216;stroke:none;stroke-width:0.26458332"
       x="38.833607"
       y="170.42471"
       id="text1288"
       transform="scale(0.99453751,1.0054925)"><tspan
         sodipodi:role="line"
         id="tspan1286"
         x="38.833607"
         y="170.42471"
         style="font-style:normal;font-variant:normal;font-weight:normal;font-stretch:normal;font-size:5.01909304px;font-family:Orbitron;-inkscape-font-specification:Orbitron;fill:#4a99d9;fill-opacity:0.58039216;stroke-width:0.26458332">IIoT Industry 4.0</tspan></text>
    <path
       style="fill:none;fill-opacity:1;stroke:#c2c2c2;stroke-width:0.20000002;stroke-linecap:butt;stroke-linejoin:miter;stroke-miterlimit:4;stroke-dasharray:none;stroke-opacity:1"
       d="m 71.295485,136.95417 c 0,6.42545 0,6.42545 0,6.42545 h -3.662336"
       id="path1613"
       inkscape:connector-curvature="0" />
    <ellipse
       style="opacity:1;fill:none;fill-opacity:1;fill-rule:evenodd;stroke:#c2c2c2;stroke-width:0.20000002;stroke-linecap:round;stroke-linejoin:round;stroke-miterlimit:4;stroke-dasharray:none;stroke-dashoffset:0;stroke-opacity:1;paint-order:markers fill stroke"
       id="path1615"
       cx="71.332321"
       cy="136.00095"
       rx="0.97197074"
       ry="0.99587792" />
    <ellipse
       style="opacity:1;fill:#c2c2c2;fill-opacity:1;fill-rule:evenodd;stroke:#c2c2c2;stroke-width:0.20000002;stroke-linecap:round;stroke-linejoin:round;stroke-miterlimit:4;stroke-dasharray:none;stroke-dashoffset:0;stroke-opacity:1;paint-order:markers fill stroke"
       id="path1615-2"
       cx="66.462128"
       cy="143.38339"
       rx="0.97197074"
       ry="0.99587792" />
    <path
       style="fill:none;fill-opacity:1;stroke:#c2c2c2;stroke-width:0.20000002;stroke-linecap:butt;stroke-linejoin:miter;stroke-miterlimit:4;stroke-dasharray:none;stroke-opacity:1"
       d="m 66.666572,156.00667 c -6.355233,-0.0529 -6.355233,-0.0529 -6.355233,-0.0529 l 0.03019,-3.70255"
       id="path1613-2"
       inkscape:connector-curvature="0" />
    <ellipse
       style="opacity:1;fill:none;fill-opacity:1;fill-rule:evenodd;stroke:#c2c2c2;stroke-width:0.20000002;stroke-linecap:round;stroke-linejoin:round;stroke-miterlimit:4;stroke-dasharray:none;stroke-dashoffset:0;stroke-opacity:1;paint-order:markers fill stroke"
       id="path1615-3"
       cx="155.48317"
       cy="-68.879837"
       rx="0.98267651"
       ry="0.98502827"
       transform="matrix(-0.008159,0.99996671,-0.99996522,-0.00833972,0,0)" />
    <ellipse
       style="opacity:1;fill:#c2c2c2;fill-opacity:1;fill-rule:evenodd;stroke:#c2c2c2;stroke-width:0.20000002;stroke-linecap:round;stroke-linejoin:round;stroke-miterlimit:4;stroke-dasharray:none;stroke-dashoffset:0;stroke-opacity:1;paint-order:markers fill stroke"
       id="path1615-2-7"
       cx="150.55931"
       cy="-61.577808"
       rx="0.98267651"
       ry="0.98502827"
       transform="matrix(-0.008159,0.99996671,-0.99996522,-0.00833972,0,0)" />
    <ellipse
       style="opacity:1;fill:#ffffff;fill-opacity:1;fill-rule:evenodd;stroke:#c2c2c2;stroke-width:0.20000003;stroke-linecap:round;stroke-linejoin:round;stroke-miterlimit:4;stroke-dasharray:none;stroke-dashoffset:0;stroke-opacity:1;paint-order:markers fill stroke"
       id="path1615-6-7"
       cx="136.0118"
       cy="-49.856014"
       rx="0.98267698"
       ry="0.98502755"
       transform="matrix(0.00177983,0.99999842,-0.99999835,0.00181925,0,0)" />
    <ellipse
       style="opacity:1;fill:#ffffff;fill-opacity:1;fill-rule:evenodd;stroke:#c2c2c2;stroke-width:0.20000003;stroke-linecap:round;stroke-linejoin:round;stroke-miterlimit:4;stroke-dasharray:none;stroke-dashoffset:0;stroke-opacity:1;paint-order:markers fill stroke"
       id="path1615-6-5"
       cx="129.33112"
       cy="-65.985802"
       rx="0.98267698"
       ry="0.98502755"
       transform="matrix(0.00177983,0.99999842,-0.99999835,0.00181925,0,0)" />
    <ellipse
       style="opacity:1;fill:#c2c2c2;fill-opacity:1;fill-rule:evenodd;stroke:#c2c2c2;stroke-width:0.20000003;stroke-linecap:round;stroke-linejoin:round;stroke-miterlimit:4;stroke-dasharray:none;stroke-dashoffset:0;stroke-opacity:1;paint-order:markers fill stroke"
       id="path1615-6-1"
       cx="136.12502"
       cy="-60.223011"
       rx="0.98267698"
       ry="0.98502755"
       transform="matrix(0.00177983,0.99999842,-0.99999835,0.00181925,0,0)" />
    <ellipse
       style="opacity:1;fill:#ffffff;fill-opacity:1;fill-rule:evenodd;stroke:#c2c2c2;stroke-width:0.20000003;stroke-linecap:round;stroke-linejoin:round;stroke-miterlimit:4;stroke-dasharray:none;stroke-dashoffset:0;stroke-opacity:1;paint-order:markers fill stroke"
       id="path1615-6-8"
       cx="127.2145"
       cy="-60.163059"
       rx="0.98267698"
       ry="0.98502755"
       transform="matrix(0.00177983,0.99999842,-0.99999835,0.00181925,0,0)" />
    <ellipse
       style="opacity:1;fill:#c2c2c2;fill-opacity:1;fill-rule:evenodd;stroke:#c2c2c2;stroke-width:0.20000003;stroke-linecap:round;stroke-linejoin:round;stroke-miterlimit:4;stroke-dasharray:none;stroke-dashoffset:0;stroke-opacity:1;paint-order:markers fill stroke"
       id="path1615-6-9"
       cx="143.37491"
       cy="-54.817608"
       rx="0.98267698"
       ry="0.98502755"
       transform="matrix(0.00177983,0.99999842,-0.99999835,0.00181925,0,0)" />
    <ellipse
       style="opacity:1;fill:#ffffff;fill-opacity:1;fill-rule:evenodd;stroke:#c2c2c2;stroke-width:0.20000003;stroke-linecap:round;stroke-linejoin:round;stroke-miterlimit:4;stroke-dasharray:none;stroke-dashoffset:0;stroke-opacity:1;paint-order:markers fill stroke"
       id="path1615-6-3"
       cx="146.68301"
       cy="-47.106674"
       rx="0.98267698"
       ry="0.98502755"
       transform="matrix(0.00177983,0.99999842,-0.99999835,0.00181925,0,0)" />
    <ellipse
       style="opacity:1;fill:#c2c2c2;fill-opacity:1;fill-rule:evenodd;stroke:#c2c2c2;stroke-width:0.20000003;stroke-linecap:round;stroke-linejoin:round;stroke-miterlimit:4;stroke-dasharray:none;stroke-dashoffset:0;stroke-opacity:1;paint-order:markers fill stroke"
       id="path1615-6-71"
       cx="136.03908"
       cy="-54.894264"
       rx="0.98267698"
       ry="0.98502755"
       transform="matrix(0.00177983,0.99999842,-0.99999835,0.00181925,0,0)" />
    <ellipse
       style="opacity:1;fill:#ffffff;fill-opacity:1;fill-rule:evenodd;stroke:#c2c2c2;stroke-width:0.20000003;stroke-linecap:round;stroke-linejoin:round;stroke-miterlimit:4;stroke-dasharray:none;stroke-dashoffset:0;stroke-opacity:1;paint-order:markers fill stroke"
       id="path1615-6-42"
       cx="157.58566"
       cy="-54.80291"
       rx="0.98267698"
       ry="0.98502755"
       transform="matrix(0.00177983,0.99999842,-0.99999835,0.00181925,0,0)" />
    <ellipse
       style="opacity:1;fill:#c2c2c2;fill-opacity:1;fill-rule:evenodd;stroke:#c2c2c2;stroke-width:0.20000003;stroke-linecap:round;stroke-linejoin:round;stroke-miterlimit:4;stroke-dasharray:none;stroke-dashoffset:0;stroke-opacity:1;paint-order:markers fill stroke"
       id="path1615-6-0"
       cx="136.05876"
       cy="-65.916107"
       rx="0.98267698"
       ry="0.98502755"
       transform="matrix(0.00177983,0.99999842,-0.99999835,0.00181925,0,0)" />
    <ellipse
       style="opacity:1;fill:#ffffff;fill-opacity:1;fill-rule:evenodd;stroke:#c2c2c2;stroke-width:0.2;stroke-linecap:round;stroke-linejoin:round;stroke-miterlimit:4;stroke-dasharray:none;stroke-dashoffset:0;stroke-opacity:1;paint-order:markers fill stroke"
       id="path1615-6-13"
       cx="154.62625"
       cy="-74.80426"
       rx="0.98267728"
       ry="1.0214286"
       transform="matrix(0.00184558,0.9999983,-0.99999846,0.00175442,0,0)" />
    <ellipse
       style="opacity:1;fill:#c2c2c2;fill-opacity:1;fill-rule:evenodd;stroke:#c2c2c2;stroke-width:0.2;stroke-linecap:round;stroke-linejoin:round;stroke-miterlimit:4;stroke-dasharray:none;stroke-dashoffset:0;stroke-opacity:1;paint-order:markers fill stroke"
       id="path1615-6-33"
       cx="150.78983"
       cy="-66.088814"
       rx="0.98267728"
       ry="1.0214286"
       transform="matrix(0.00184558,0.9999983,-0.99999846,0.00175442,0,0)" />
    <ellipse
       style="opacity:1;fill:#c2c2c2;fill-opacity:1;fill-rule:evenodd;stroke:#c2c2c2;stroke-width:0.20000003;stroke-linecap:round;stroke-linejoin:round;stroke-miterlimit:4;stroke-dasharray:none;stroke-dashoffset:0;stroke-opacity:1;paint-order:markers fill stroke"
       id="path1615-6-09"
       cx="151.16299"
       cy="-54.862667"
       rx="0.98267698"
       ry="0.98502755"
       transform="matrix(0.00177983,0.99999842,-0.99999835,0.00181925,0,0)" />
    <path
       style="fill:none;fill-rule:evenodd;stroke:#000000;stroke-width:0.26458332px;stroke-linecap:butt;stroke-linejoin:miter;stroke-opacity:1"
       d="m 87.026926,167.37337 v 0"
       id="path1891"
       inkscape:connector-type="polyline"
       inkscape:connector-curvature="0" />
    <path
       style="fill:none;stroke:#c2c2c2;stroke-width:0.20000002;stroke-linecap:butt;stroke-linejoin:miter;stroke-miterlimit:4;stroke-dasharray:none;stroke-opacity:1"
       d="m 54.052885,143.27858 h -6.685227 v 2.52024"
       id="path1895"
       inkscape:connector-curvature="0" />
    <path
       style="fill:none;stroke:#c2c2c2;stroke-width:0.20000002;stroke-linecap:butt;stroke-linejoin:miter;stroke-miterlimit:4;stroke-dasharray:none;stroke-opacity:1"
       d="m 67.459587,150.72488 7.578067,-0.1403 v 2.94297"
       id="path1897"
       inkscape:connector-curvature="0" />
    <path
       style="fill:none;stroke:#c2c2c2;stroke-width:0.20000002;stroke-linecap:butt;stroke-linejoin:miter;stroke-miterlimit:4;stroke-dasharray:none;stroke-opacity:1"
       d="m 55.198254,152.04283 c 0,4.48059 0,4.48059 0,4.48059"
       id="path1899"
       inkscape:connector-curvature="0" />
    <path
       style="fill:#c2c2c2;fill-opacity:1;stroke:#c2c2c2;stroke-width:0.20000002;stroke-linecap:butt;stroke-linejoin:miter;stroke-miterlimit:4;stroke-dasharray:none;stroke-opacity:1"
       d="m 60.423772,135.82279 c 0,-7.78987 0,-7.78987 0,-7.78987"
       id="path1907"
       inkscape:connector-curvature="0" />
    <path
       style="fill:none;stroke:#c2c2c2;stroke-width:0.20000002;stroke-linecap:butt;stroke-linejoin:miter;stroke-miterlimit:4;stroke-dasharray:none;stroke-opacity:1"
       d="m 66.232016,130.00026 c 0,5.58925 0,5.58925 0,5.58925"
       id="path1909"
       inkscape:connector-curvature="0" />
    <path
       style="fill:none;fill-rule:evenodd;stroke:#c2c2c2;stroke-width:0.2;stroke-linecap:butt;stroke-linejoin:miter;stroke-miterlimit:4;stroke-dasharray:none;stroke-opacity:1"
       d="m 51.083024,135.92181 3.166271,0.003"
       id="path3882"
       inkscape:connector-type="polyline"
       inkscape:connector-curvature="0"
       inkscape:connection-start="#path1615-6-7" />
  </g>
</svg>
