<?xml version="1.0" encoding="UTF-8" standalone="no"?>
<!-- Created with Inkscape (http://www.inkscape.org/) -->

<svg
   xmlns:dc="http://purl.org/dc/elements/1.1/"
   xmlns:cc="http://creativecommons.org/ns#"
   xmlns:rdf="http://www.w3.org/1999/02/22-rdf-syntax-ns#"
   xmlns:svg="http://www.w3.org/2000/svg"
   xmlns="http://www.w3.org/2000/svg"
   xmlns:sodipodi="http://sodipodi.sourceforge.net/DTD/sodipodi-0.dtd"
   xmlns:inkscape="http://www.inkscape.org/namespaces/inkscape"
   width="27.390459mm"
   height="10.48382mm"
   viewBox="0 0 27.39046 10.48382"
   version="1.1"
   id="svg20953"
   inkscape:version="0.92.2 (5c3e80d, 2017-08-06)"
   sodipodi:docname="FOG88.svg"
   inkscape:export-filename="C:\Users\User1\Desktop\15 Р’Р»Р°РґРёРјРёСЂ 3Рґ РјР°РєСЃ\IoT &amp; IIoT\infografics\РЎРѕС†СЃРµС‚Рё\fog88.png"
   inkscape:export-xdpi="1182.2"
   inkscape:export-ydpi="1182.2">
  <defs
     id="defs20947" />
  <sodipodi:namedview
     id="base"
     pagecolor="#ffffff"
     bordercolor="#666666"
     borderopacity="1.0"
     inkscape:pageopacity="0.0"
     inkscape:pageshadow="2"
     inkscape:zoom="3.8938334"
     inkscape:cx="75.337759"
     inkscape:cy="29.290228"
     inkscape:document-units="mm"
     inkscape:current-layer="layer1"
     showgrid="false"
     fit-margin-top="0"
     fit-margin-left="0"
     fit-margin-right="0"
     fit-margin-bottom="0"
     inkscape:window-width="1366"
     inkscape:window-height="705"
     inkscape:window-x="-8"
     inkscape:window-y="-8"
     inkscape:window-maximized="1" />
  <metadata
     id="metadata20950">
    <rdf:RDF>
      <cc:Work
         rdf:about="">
        <dc:format>image/svg+xml</dc:format>
        <dc:type
           rdf:resource="http://purl.org/dc/dcmitype/StillImage" />
        <dc:title />
      </cc:Work>
    </rdf:RDF>
  </metadata>
  <g
     inkscape:label="Layer 1"
     inkscape:groupmode="layer"
     id="layer1"
     transform="translate(-49.304447,-137.3368)">
    <g
       transform="matrix(0.00367148,0,0,0.00367068,31.885974,128.19878)"
       style="clip-rule:evenodd;opacity:1;fill:none;fill-opacity:1;fill-rule:evenodd;stroke:#000000;stroke-width:69.73417664;stroke-miterlimit:4;stroke-dasharray:none;stroke-opacity:1;image-rendering:optimizeQuality;shape-rendering:geometricPrecision;text-rendering:geometricPrecision"
       id="РЎР»РѕР№_x0020_1-0">
      <metadata
         id="CorelCorpID_0Corel-Layer-7" />
      <path
         id="path28977"
         style="fill:none;fill-opacity:1;stroke:#000000;stroke-width:69.73417664;stroke-miterlimit:4;stroke-dasharray:none;stroke-opacity:1"
         d="m 8476.39,2543.3 c 51.71,0 404.66,13.46 599.5,40.09 223.31,30.52 490.92,81.73 680.59,128.95 4,136.23 4.07,328.43 -19.01,540.22 -35.18,322.8 -115.86,620.36 -239.81,884.42 -197.12,419.95 -485.62,724.97 -692.93,906.91 -134.38,117.93 -253.22,201.08 -328.33,249.57 -75.18,-48.53 -194.01,-131.67 -328.35,-249.57 -207.31,-181.94 -495.81,-486.96 -692.92,-906.91 -123.95,-264.06 -204.64,-561.62 -239.82,-884.42 -23.08,-211.8 -23.01,-403.99 -19,-540.22 189.66,-47.22 457.27,-98.43 680.58,-128.95 194.83,-26.63 547.79,-40.09 599.5,-40.09 z"
         inkscape:connector-curvature="0"
         sodipodi:nodetypes="sccccccsccccs" />
    </g>
    <ellipse
       style="opacity:1;fill:none;fill-opacity:1;fill-rule:evenodd;stroke:#000000;stroke-width:0.1;stroke-linecap:round;stroke-miterlimit:4;stroke-dasharray:none;stroke-opacity:1"
       id="use2245"
       cy="142.70439"
       cx="64.52652"
       rx="1.090754"
       ry="1.0725918" />
    <path
       style="fill:none;fill-rule:evenodd;stroke:#000000;stroke-width:0.1;stroke-linecap:round;stroke-linejoin:miter;stroke-miterlimit:4;stroke-dasharray:none;stroke-opacity:1"
       d="m 60.62243,144.29392 h 2.525326"
       id="path2342"
       inkscape:connector-type="polyline"
       inkscape:connector-curvature="0" />
    <path
       inkscape:connector-curvature="0"
       inkscape:connector-type="polyline"
       id="use2344"
       d="m 63.480899,144.29392 h 1.987126"
       style="fill:none;fill-rule:evenodd;stroke:#000000;stroke-width:0.1;stroke-linecap:round;stroke-linejoin:miter;stroke-miterlimit:4;stroke-dasharray:none;stroke-opacity:1" />
    <path
       style="fill:none;fill-rule:evenodd;stroke:#000000;stroke-width:0.1;stroke-linecap:round;stroke-linejoin:miter;stroke-miterlimit:4;stroke-dasharray:none;stroke-opacity:1"
       d="m 62.282364,144.70102 h 2.980699"
       id="use2348"
       inkscape:connector-type="polyline"
       inkscape:connector-curvature="0" />
    <path
       style="fill:none;fill-rule:evenodd;stroke:#000000;stroke-width:0.1;stroke-linecap:round;stroke-linejoin:miter;stroke-miterlimit:4;stroke-dasharray:none;stroke-opacity:1"
       d="m 60.911789,144.70102 h 1.028729"
       id="use2352"
       inkscape:connector-type="polyline"
       inkscape:connector-curvature="0" />
    <path
       style="opacity:1;fill:none;fill-opacity:1;fill-rule:evenodd;stroke:#000000;stroke-width:0.10001164;stroke-linecap:round;stroke-linejoin:round;stroke-miterlimit:4;stroke-dasharray:none;stroke-dashoffset:0;stroke-opacity:1;paint-order:markers fill stroke"
       id="path18131"
       sodipodi:type="arc"
       sodipodi:cx="153.23608"
       sodipodi:cy="35.842022"
       sodipodi:rx="1.2306483"
       sodipodi:ry="1.2383523"
       sodipodi:start="3.0632116"
       sodipodi:end="0.20701912"
       d="m 152.00921,35.938986 a 1.2306483,1.2383523 0 0 1 0.62949,-1.17963 1.2306483,1.2383523 0 0 1 1.32786,0.08606 1.2306483,1.2383523 0 0 1 0.4739,1.251141"
       sodipodi:open="true"
       transform="matrix(0.60944913,0.79282518,-0.8057839,0.59220968,0,0)" />
    <path
       style="opacity:1;fill:none;fill-opacity:1;fill-rule:evenodd;stroke:#000000;stroke-width:0.10008191;stroke-linecap:round;stroke-linejoin:round;stroke-miterlimit:4;stroke-dasharray:none;stroke-dashoffset:0;stroke-opacity:1;paint-order:markers fill stroke"
       id="path18131-1"
       sodipodi:type="arc"
       sodipodi:cx="26.336937"
       sodipodi:cy="154.73619"
       sodipodi:rx="1.5522053"
       sodipodi:ry="1.7031571"
       sodipodi:start="3.7170101"
       sodipodi:end="6.1327413"
       d="m 25.034691,153.80936 a 1.5522053,1.7031571 0 0 1 1.629593,-0.73802 1.5522053,1.7031571 0 0 1 1.207326,1.40959"
       sodipodi:open="true"
       transform="matrix(0.95465725,-0.29770712,0.24262331,0.97012058,0,0)" />
    <path
       style="opacity:1;fill:none;fill-opacity:1;fill-rule:evenodd;stroke:#000000;stroke-width:0.10000002;stroke-linecap:round;stroke-linejoin:round;stroke-miterlimit:4;stroke-dasharray:none;stroke-dashoffset:0;stroke-opacity:1;paint-order:markers fill stroke"
       id="path18131-6"
       sodipodi:type="arc"
       sodipodi:cx="-143.29662"
       sodipodi:cy="60.12981"
       sodipodi:rx="1.0521753"
       sodipodi:ry="1.0225292"
       sodipodi:start="3.4627824"
       sodipodi:end="6.143559"
       d="m -144.29498,59.807002 a 1.0521753,1.0225292 0 0 1 1.09375,-0.69551 1.0521753,1.0225292 0 0 1 0.94655,0.87601"
       sodipodi:open="true"
       transform="matrix(-0.00865887,-0.99996251,0.99996681,-0.00814692,0,0)" />
    <path
       inkscape:connector-curvature="0"
       inkscape:connector-type="polyline"
       id="use11497"
       d="M 64.73561,142.7034 H 64.333914"
       style="fill:none;fill-rule:evenodd;stroke:#000000;stroke-width:0.1;stroke-linecap:round;stroke-linejoin:miter;stroke-miterlimit:4;stroke-dasharray:none;stroke-opacity:1" />
    <path
       style="fill:none;fill-rule:evenodd;stroke:#000000;stroke-width:0.1;stroke-linecap:butt;stroke-linejoin:miter;stroke-miterlimit:4;stroke-dasharray:none;stroke-opacity:1"
       d="m 64.318084,142.51001 h 0.381074"
       id="path11511"
       inkscape:connector-type="polyline"
       inkscape:connector-curvature="0" />
    <path
       style="fill:none;fill-rule:evenodd;stroke:#000000;stroke-width:0.1;stroke-linecap:butt;stroke-linejoin:miter;stroke-miterlimit:4;stroke-dasharray:none;stroke-opacity:1"
       d="m 64.393519,142.90305 0.292891,0.002"
       id="path11523"
       inkscape:connector-type="polyline"
       inkscape:connector-curvature="0" />
    <path
       style="fill:none;fill-rule:evenodd;stroke:#000000;stroke-width:0.1;stroke-linecap:butt;stroke-linejoin:miter;stroke-miterlimit:4;stroke-dasharray:none;stroke-opacity:1"
       d="m 64.742126,142.57039 0.0016,0.27718"
       id="path11527"
       inkscape:connector-type="polyline"
       inkscape:connector-curvature="0" />
    <path
       style="fill:none;fill-rule:evenodd;stroke:#000000;stroke-width:0.1;stroke-linecap:butt;stroke-linejoin:miter;stroke-miterlimit:4;stroke-dasharray:none;stroke-opacity:1"
       d="m 64.334085,142.7034 -8.34e-4,0.15505"
       id="path11531"
       inkscape:connector-type="polyline"
       inkscape:connector-curvature="0" />
    <path
       style="fill:none;stroke:#000000;stroke-width:0.1;stroke-linecap:round;stroke-linejoin:miter;stroke-miterlimit:4;stroke-dasharray:none;stroke-opacity:1"
       d="m 64.333042,142.85845 c -8.34e-4,0.0269 0.01076,0.0465 0.06048,0.0446 v 0"
       id="path11551"
       inkscape:connector-curvature="0"
       sodipodi:nodetypes="ccc" />
    <path
       style="fill:none;stroke:#000000;stroke-width:0.1;stroke-linecap:round;stroke-linejoin:miter;stroke-miterlimit:4;stroke-dasharray:none;stroke-opacity:1"
       d="m 64.743716,142.84758 c 0.0031,0.0498 -0.02413,0.0581 -0.0573,0.057 v 0"
       id="path11557"
       inkscape:connector-curvature="0"
       sodipodi:nodetypes="ccc" />
    <path
       style="fill:none;stroke:#000000;stroke-width:0.1;stroke-linecap:round;stroke-linejoin:miter;stroke-miterlimit:4;stroke-dasharray:none;stroke-opacity:1"
       d="m 64.699148,142.51001 c 0.02935,-0.002 0.04541,0.0263 0.04298,0.0604"
       id="path11561"
       inkscape:connector-curvature="0"
       sodipodi:nodetypes="cc" />
    <path
       style="fill:none;fill-rule:evenodd;stroke:#000000;stroke-width:0.1;stroke-linecap:butt;stroke-linejoin:miter;stroke-miterlimit:4;stroke-dasharray:none;stroke-opacity:1"
       d="m 65.042431,142.36864 0.0031,0.75223"
       id="path11563"
       inkscape:connector-type="polyline"
       inkscape:connector-curvature="0" />
    <path
       style="fill:none;fill-rule:evenodd;stroke:#000000;stroke-width:0.1;stroke-linecap:round;stroke-linejoin:miter;stroke-miterlimit:4;stroke-dasharray:none;stroke-opacity:1"
       d="m 63.670984,145.13662 h 1.028729"
       id="use2352-4"
       inkscape:connector-type="polyline"
       inkscape:connector-curvature="0" />
    <path
       inkscape:connector-curvature="0"
       inkscape:connector-type="polyline"
       id="use2344-3"
       d="M 61.289204,145.1536 H 63.27633"
       style="fill:none;fill-rule:evenodd;stroke:#000000;stroke-width:0.1;stroke-linecap:round;stroke-linejoin:miter;stroke-miterlimit:4;stroke-dasharray:none;stroke-opacity:1" />
    <g
       aria-label="FOG/MESH"
       style="font-style:normal;font-variant:normal;font-weight:normal;font-stretch:normal;font-size:1.76388884px;line-height:1.25;font-family:Arial;-inkscape-font-specification:Arial;letter-spacing:0px;word-spacing:0px;fill:#000000;fill-opacity:1;stroke:none;stroke-width:0.26458332"
       id="text887">
      <path
         d="m 58.828665,139.69812 v -1.13636 h 0.76662 v 0.1341 h -0.616241 v 0.35191 h 0.5333 v 0.1341 h -0.5333 v 0.51625 z"
         style="font-style:normal;font-variant:normal;font-weight:normal;font-stretch:normal;font-size:1.58749998px;font-family:Arial;-inkscape-font-specification:Arial;stroke-width:0.26458332"
         id="path893" />
      <path
         d="m 59.745663,139.14467 q 0,-0.28293 0.151929,-0.44261 0.151929,-0.16046 0.392224,-0.16046 0.157355,0 0.283704,0.0752 0.126349,0.0752 0.192236,0.21007 0.06666,0.1341 0.06666,0.30463 0,0.17286 -0.06976,0.30928 -0.06976,0.13643 -0.197663,0.20697 -0.127899,0.0698 -0.275952,0.0698 -0.160455,0 -0.286804,-0.0775 -0.126349,-0.0775 -0.191461,-0.21161 -0.06511,-0.1341 -0.06511,-0.2837 z m 0.15503,0.002 q 0,0.20541 0.110071,0.32401 0.110845,0.11782 0.277502,0.11782 0.169757,0 0.279053,-0.11937 0.11007,-0.11937 0.11007,-0.33874 0,-0.13875 -0.04728,-0.24184 -0.04651,-0.10387 -0.137201,-0.16046 -0.08992,-0.0574 -0.202314,-0.0574 -0.15968,0 -0.275177,0.11007 -0.114721,0.1093 -0.114721,0.36587 z"
         style="font-style:normal;font-variant:normal;font-weight:normal;font-stretch:normal;font-size:1.58749998px;font-family:Arial;-inkscape-font-specification:Arial;stroke-width:0.26458332"
         id="path895" />
      <path
         d="m 61.557181,139.25241 v -0.13332 l 0.481366,-7.8e-4 v 0.42168 q -0.110846,0.0884 -0.228668,0.13333 -0.117823,0.0442 -0.241846,0.0442 -0.167432,0 -0.304633,-0.0713 -0.136425,-0.0721 -0.206189,-0.20774 -0.06976,-0.13565 -0.06976,-0.30309 0,-0.16588 0.06899,-0.30928 0.06976,-0.14418 0.199988,-0.21394 0.130225,-0.0698 0.299982,-0.0698 0.123248,0 0.222467,0.0403 0.09999,0.0395 0.156579,0.11085 0.05659,0.0713 0.08604,0.18604 l -0.135651,0.0372 q -0.02558,-0.0868 -0.06356,-0.13642 -0.03798,-0.0496 -0.108521,-0.0791 -0.07054,-0.0302 -0.156579,-0.0302 -0.103095,0 -0.178284,0.0318 -0.07519,0.031 -0.121698,0.0822 -0.04573,0.0512 -0.07131,0.11239 -0.04341,0.10542 -0.04341,0.22867 0,0.15193 0.05194,0.25425 0.05271,0.10232 0.152704,0.15193 0.09999,0.0496 0.21239,0.0496 0.09767,0 0.190686,-0.0372 0.09302,-0.038 0.141077,-0.0806 v -0.21162 z"
         style="font-style:normal;font-variant:normal;font-weight:normal;font-stretch:normal;font-size:1.58749998px;font-family:Arial;-inkscape-font-specification:Arial;stroke-width:0.26458332"
         id="path897" />
      <path
         d="m 62.13699,139.7175 0.329438,-1.17512 h 0.111621 l -0.328662,1.17512 z"
         style="font-style:normal;font-variant:normal;font-weight:normal;font-stretch:normal;font-size:1.58749998px;font-family:Arial;-inkscape-font-specification:Arial;stroke-width:0.26458332"
         id="path899" />
      <path
         d="m 62.695096,139.69812 v -1.13636 h 0.226343 l 0.268975,0.8046 q 0.03721,0.11239 0.05426,0.1682 0.01938,-0.062 0.06046,-0.18216 l 0.272077,-0.79064 h 0.202313 v 1.13636 h -0.144953 v -0.9511 l -0.330212,0.9511 H 63.16871 l -0.328662,-0.96738 v 0.96738 z"
         style="font-style:normal;font-variant:normal;font-weight:normal;font-stretch:normal;font-size:1.58749998px;font-family:Arial;-inkscape-font-specification:Arial;stroke-width:0.26458332"
         id="path901" />
      <path
         d="m 64.026797,139.69812 v -1.13636 h 0.821656 v 0.1341 h -0.671277 v 0.34804 h 0.628644 v 0.13332 h -0.628644 v 0.3868 h 0.697632 v 0.1341 z"
         style="font-style:normal;font-variant:normal;font-weight:normal;font-stretch:normal;font-size:1.58749998px;font-family:Arial;-inkscape-font-specification:Arial;stroke-width:0.26458332"
         id="path903" />
      <path
         d="m 65.032938,139.33303 0.141851,-0.0124 q 0.01008,0.0853 0.04651,0.14031 0.03721,0.0543 0.114722,0.0884 0.07751,0.0333 0.174408,0.0333 0.08604,0 0.151929,-0.0256 0.06589,-0.0256 0.09767,-0.0698 0.03256,-0.045 0.03256,-0.0977 0,-0.0535 -0.03101,-0.093 -0.03101,-0.0403 -0.102319,-0.0674 -0.04573,-0.0178 -0.202313,-0.055 -0.15658,-0.038 -0.219367,-0.0713 -0.08139,-0.0426 -0.121698,-0.10542 -0.03953,-0.0636 -0.03953,-0.14185 0,-0.0861 0.04883,-0.16046 0.04883,-0.0752 0.142627,-0.11395 0.09379,-0.0387 0.208514,-0.0387 0.126349,0 0.222467,0.0411 0.09689,0.0403 0.148829,0.11937 0.05193,0.0791 0.05581,0.17906 l -0.144177,0.0109 q -0.01163,-0.10774 -0.07906,-0.16278 -0.06666,-0.055 -0.197662,-0.055 -0.136426,0 -0.199213,0.0504 -0.06201,0.0496 -0.06201,0.12015 0,0.0612 0.04418,0.10077 0.04341,0.0395 0.226342,0.0814 0.18371,0.0411 0.251923,0.0721 0.09922,0.0457 0.146503,0.11627 0.04728,0.0698 0.04728,0.16123 0,0.0907 -0.05194,0.17131 -0.05194,0.0798 -0.149604,0.1248 -0.09689,0.0442 -0.218591,0.0442 -0.154254,0 -0.258899,-0.045 -0.103869,-0.045 -0.163556,-0.13488 -0.05891,-0.0907 -0.06201,-0.20463 z"
         style="font-style:normal;font-variant:normal;font-weight:normal;font-stretch:normal;font-size:1.58749998px;font-family:Arial;-inkscape-font-specification:Arial;stroke-width:0.26458332"
         id="path905" />
      <path
         d="m 66.149149,139.69812 v -1.13636 h 0.150378 v 0.46663 h 0.590662 v -0.46663 h 0.150378 v 1.13636 h -0.150378 v -0.53563 h -0.590662 v 0.53563 z"
         style="font-style:normal;font-variant:normal;font-weight:normal;font-stretch:normal;font-size:1.58749998px;font-family:Arial;-inkscape-font-specification:Arial;stroke-width:0.26458332"
         id="path907" />
    </g>
    <text
       xml:space="preserve"
       style="font-style:normal;font-weight:normal;font-size:4.23333311px;line-height:1.25;font-family:sans-serif;letter-spacing:0px;word-spacing:0px;fill:#000000;fill-opacity:1;stroke:none;stroke-width:0.26458332"
       x="70.045975"
       y="142.4696"
       id="text891"><tspan
         sodipodi:role="line"
         id="tspan889"
         x="70.045975"
         y="146.3318"
         style="stroke-width:0.26458332" /></text>
  </g>
</svg>
