<?xml version="1.0" encoding="UTF-8" standalone="no"?>
<!-- Created with Inkscape (http://www.inkscape.org/) -->

<svg
   xmlns:dc="http://purl.org/dc/elements/1.1/"
   xmlns:cc="http://creativecommons.org/ns#"
   xmlns:rdf="http://www.w3.org/1999/02/22-rdf-syntax-ns#"
   xmlns:svg="http://www.w3.org/2000/svg"
   xmlns="http://www.w3.org/2000/svg"
   xmlns:sodipodi="http://sodipodi.sourceforge.net/DTD/sodipodi-0.dtd"
   xmlns:inkscape="http://www.inkscape.org/namespaces/inkscape"
   width="30.28344"
   height="25.28344"
   viewBox="0 0 8.0124925 6.6895761"
   version="1.1"
   id="svg8"
   inkscape:version="0.92.2 (5c3e80d, 2017-08-06)"
   sodipodi:docname="iconmenu3.svg">
  <defs
     id="defs2" />
  <sodipodi:namedview
     id="base"
     pagecolor="#ffffff"
     bordercolor="#666666"
     borderopacity="1.0"
     inkscape:pageopacity="0.0"
     inkscape:pageshadow="2"
     inkscape:zoom="6.51875"
     inkscape:cx="23.771375"
     inkscape:cy="6.784277"
     inkscape:document-units="mm"
     inkscape:current-layer="layer1"
     showgrid="false"
     fit-margin-top="0"
     fit-margin-left="0"
     fit-margin-right="0"
     fit-margin-bottom="0"
     units="px"
     inkscape:window-width="1366"
     inkscape:window-height="745"
     inkscape:window-x="-8"
     inkscape:window-y="-8"
     inkscape:window-maximized="1" />
  <metadata
     id="metadata5">
    <rdf:RDF>
      <cc:Work
         rdf:about="">
        <dc:format>image/svg+xml</dc:format>
        <dc:type
           rdf:resource="http://purl.org/dc/dcmitype/StillImage" />
        <dc:title></dc:title>
      </cc:Work>
    </rdf:RDF>
  </metadata>
  <g
     inkscape:label="Layer 1"
     inkscape:groupmode="layer"
     id="layer1"
     transform="translate(-31.84289,-114.63315)">
    <text
       xml:space="preserve"
       style="font-style:normal;font-variant:normal;font-weight:normal;font-stretch:normal;font-size:4.23333311px;line-height:1.25;font-family:Arial;-inkscape-font-specification:Arial;letter-spacing:0px;word-spacing:0px;fill:#000000;fill-opacity:1;stroke:none;stroke-width:0.26458332"
       x="26.647619"
       y="121.4039"
       id="text824"><tspan
         sodipodi:role="line"
         id="tspan822"
         x="26.647619"
         y="125.21709"
         style="font-style:normal;font-variant:normal;font-weight:normal;font-stretch:normal;font-family:Arial;-inkscape-font-specification:Arial;stroke-width:0.26458332" /></text>
    <g
       aria-label="MENU"
       style="font-style:normal;font-weight:normal;font-size:2.11666656px;line-height:1.25;font-family:sans-serif;letter-spacing:0px;word-spacing:0px;fill:#000000;fill-opacity:1;stroke:none;stroke-width:0.26458332"
       id="text828">
      <path
         d="m 33.784947,119.00922 h -0.272852 v -1.76803 l -0.570508,1.20303 h -0.162608 l -0.566374,-1.20303 v 1.76803 h -0.254937 v -2.0519 h 0.37207 l 0.547081,1.14239 0.529167,-1.14239 h 0.378961 z"
         style="font-size:2.82222223px;stroke-width:0.26458332"
         id="path1389"
         inkscape:connector-curvature="0" />
      <path
         d="m 35.690773,119.00922 h -1.351855 v -2.0519 h 1.351855 v 0.24253 h -1.079004 v 0.56224 h 1.079004 v 0.24254 h -1.079004 v 0.76205 h 1.079004 z"
         style="font-size:2.82222223px;stroke-width:0.26458332"
         id="path1391"
         inkscape:connector-curvature="0" />
      <path
         d="m 37.690307,119.00922 h -0.337619 l -0.972895,-1.83555 v 1.83555 h -0.254937 v -2.0519 h 0.423057 l 0.887457,1.67569 v -1.67569 h 0.254937 z"
         style="font-size:2.82222223px;stroke-width:0.26458332"
         id="path1393"
         inkscape:connector-curvature="0" />
      <path
         d="m 39.780791,118.18515 q 0,0.22324 -0.04961,0.38998 -0.04823,0.16537 -0.159853,0.27561 -0.106109,0.10473 -0.248047,0.15296 -0.141938,0.0482 -0.330729,0.0482 -0.192925,0 -0.336241,-0.051 -0.143316,-0.051 -0.241157,-0.15021 -0.111621,-0.113 -0.16123,-0.27285 -0.04823,-0.15985 -0.04823,-0.39274 v -1.22783 h 0.272852 v 1.24161 q 0,0.16674 0.02205,0.26321 0.02343,0.0965 0.07717,0.17501 0.06063,0.0896 0.163986,0.13504 0.104731,0.0455 0.250803,0.0455 0.14745,0 0.250803,-0.0441 0.103353,-0.0455 0.165365,-0.13642 0.05374,-0.0786 0.07579,-0.17915 0.02343,-0.10197 0.02343,-0.25218 v -1.2485 h 0.272852 z"
         style="font-size:2.82222223px;stroke-width:0.26458332"
         id="path1395"
         inkscape:connector-curvature="0" />
    </g>
  </g>
</svg>
