<?xml version="1.0" encoding="UTF-8" standalone="no"?>
<!-- Created with Inkscape (http://www.inkscape.org/) -->

<svg
   xmlns:dc="http://purl.org/dc/elements/1.1/"
   xmlns:cc="http://creativecommons.org/ns#"
   xmlns:rdf="http://www.w3.org/1999/02/22-rdf-syntax-ns#"
   xmlns:svg="http://www.w3.org/2000/svg"
   xmlns="http://www.w3.org/2000/svg"
   xmlns:sodipodi="http://sodipodi.sourceforge.net/DTD/sodipodi-0.dtd"
   xmlns:inkscape="http://www.inkscape.org/namespaces/inkscape"
   width="25.28344"
   height="25.28344"
   viewBox="0 0 6.689576 6.6895761"
   version="1.1"
   id="svg8"
   inkscape:version="0.92.2 (5c3e80d, 2017-08-06)"
   sodipodi:docname="iconmenu3.svg">
  <defs
     id="defs2" />
  <sodipodi:namedview
     id="base"
     pagecolor="#ffffff"
     bordercolor="#666666"
     borderopacity="1.0"
     inkscape:pageopacity="0.0"
     inkscape:pageshadow="2"
     inkscape:zoom="6.51875"
     inkscape:cx="23.771375"
     inkscape:cy="6.784277"
     inkscape:document-units="mm"
     inkscape:current-layer="layer1"
     showgrid="false"
     fit-margin-top="0"
     fit-margin-left="0"
     fit-margin-right="0"
     fit-margin-bottom="0"
     units="px"
     inkscape:window-width="1366"
     inkscape:window-height="745"
     inkscape:window-x="-8"
     inkscape:window-y="-8"
     inkscape:window-maximized="1" />
  <metadata
     id="metadata5">
    <rdf:RDF>
      <cc:Work
         rdf:about="">
        <dc:format>image/svg+xml</dc:format>
        <dc:type
           rdf:resource="http://purl.org/dc/dcmitype/StillImage" />
        <dc:title></dc:title>
      </cc:Work>
    </rdf:RDF>
  </metadata>
  <g
     inkscape:label="Layer 1"
     inkscape:groupmode="layer"
     id="layer1"
     transform="translate(-31.84289,-114.63315)">
    <text
       xml:space="preserve"
       style="font-style:normal;font-variant:normal;font-weight:normal;font-stretch:normal;font-size:4.23333311px;line-height:1.25;font-family:Arial;-inkscape-font-specification:Arial;letter-spacing:0px;word-spacing:0px;fill:#000000;fill-opacity:1;stroke:none;stroke-width:0.26458332"
       x="26.647619"
       y="121.4039"
       id="text824"><tspan
         sodipodi:role="line"
         id="tspan822"
         x="26.647619"
         y="125.21709"
         style="font-style:normal;font-variant:normal;font-weight:normal;font-stretch:normal;font-family:Arial;-inkscape-font-specification:Arial;stroke-width:0.26458332" /></text>
    <g
       aria-label="MENU"
       style="font-style:normal;font-weight:normal;font-size:2.11666656px;line-height:1.25;font-family:sans-serif;letter-spacing:0px;word-spacing:0px;fill:#000000;fill-opacity:1;stroke:none;stroke-width:0.26458332"
       id="text828">
      <path
         d="m 33.582406,118.76569 h -0.204639 v -1.32601 l -0.42788,0.90227 H 32.82793 l -0.42478,-0.90227 v 1.32601 h -0.191203 v -1.53892 H 32.491 l 0.410311,0.85679 0.396875,-0.85679 h 0.28422 z"
         style="font-size:2.11666656px;stroke-width:0.26458332"
         id="path1380"
         inkscape:connector-curvature="0" />
      <path
         d="m 35.011776,118.76569 h -1.013891 v -1.53892 h 1.013891 v 0.1819 h -0.809253 v 0.42168 h 0.809253 v 0.1819 h -0.809253 v 0.57154 h 0.809253 z"
         style="font-size:2.11666656px;stroke-width:0.26458332"
         id="path1382"
         inkscape:connector-curvature="0" />
      <path
         d="m 36.511426,118.76569 h -0.253214 l -0.729672,-1.37666 v 1.37666 h -0.191202 v -1.53892 h 0.317293 l 0.665592,1.25677 v -1.25677 h 0.191203 z"
         style="font-size:2.11666656px;stroke-width:0.26458332"
         id="path1384"
         inkscape:connector-curvature="0" />
      <path
         d="m 38.079289,118.14764 q 0,0.16744 -0.03721,0.29249 -0.03617,0.12403 -0.119889,0.20671 -0.07958,0.0786 -0.186035,0.11472 -0.106454,0.0362 -0.248047,0.0362 -0.144694,0 -0.252181,-0.0382 -0.107487,-0.0382 -0.180868,-0.11265 -0.08372,-0.0847 -0.120923,-0.20464 -0.03617,-0.11989 -0.03617,-0.29456 v -0.92087 h 0.204639 v 0.93121 q 0,0.12506 0.01654,0.1974 0.01757,0.0724 0.05788,0.13126 0.04547,0.0672 0.12299,0.10129 0.07855,0.0341 0.188102,0.0341 0.110587,0 0.188102,-0.0331 0.07752,-0.0341 0.124023,-0.10232 0.04031,-0.0589 0.05684,-0.13436 0.01757,-0.0765 0.01757,-0.18913 v -0.93638 h 0.204639 z"
         style="font-size:2.11666656px;stroke-width:0.26458332"
         id="path1386"
         inkscape:connector-curvature="0" />
    </g>
  </g>
</svg>
