<?xml version="1.0" encoding="UTF-8" standalone="no"?>
<!-- Created with Inkscape (http://www.inkscape.org/) -->

<svg
   xmlns:dc="http://purl.org/dc/elements/1.1/"
   xmlns:cc="http://creativecommons.org/ns#"
   xmlns:rdf="http://www.w3.org/1999/02/22-rdf-syntax-ns#"
   xmlns:svg="http://www.w3.org/2000/svg"
   xmlns="http://www.w3.org/2000/svg"
   xmlns:sodipodi="http://sodipodi.sourceforge.net/DTD/sodipodi-0.dtd"
   xmlns:inkscape="http://www.inkscape.org/namespaces/inkscape"
   width="27.390459mm"
   height="10.48382mm"
   viewBox="0 0 27.39046 10.48382"
   version="1.1"
   id="svg20953"
   inkscape:version="0.92.2 (5c3e80d, 2017-08-06)"
   sodipodi:docname="messenger.svg"
   inkscape:export-filename="C:\Users\User1\Desktop\15 Р’Р»Р°РґРёРјРёСЂ 3Рґ РјР°РєСЃ\IoT &amp; IIoT\infografics\РЎРѕС†СЃРµС‚Рё\fog88.png"
   inkscape:export-xdpi="1182.2"
   inkscape:export-ydpi="1182.2">
  <defs
     id="defs20947" />
  <sodipodi:namedview
     id="base"
     pagecolor="#ffffff"
     bordercolor="#666666"
     borderopacity="1.0"
     inkscape:pageopacity="0.0"
     inkscape:pageshadow="2"
     inkscape:zoom="4.2284597"
     inkscape:cx="53.69775"
     inkscape:cy="20.45058"
     inkscape:document-units="mm"
     inkscape:current-layer="layer1"
     showgrid="false"
     fit-margin-top="0"
     fit-margin-left="0"
     fit-margin-right="0"
     fit-margin-bottom="0"
     inkscape:window-width="1366"
     inkscape:window-height="705"
     inkscape:window-x="-8"
     inkscape:window-y="-8"
     inkscape:window-maximized="1" />
  <metadata
     id="metadata20950">
    <rdf:RDF>
      <cc:Work
         rdf:about="">
        <dc:format>image/svg+xml</dc:format>
        <dc:type
           rdf:resource="http://purl.org/dc/dcmitype/StillImage" />
        <dc:title></dc:title>
      </cc:Work>
    </rdf:RDF>
  </metadata>
  <g
     inkscape:label="Layer 1"
     inkscape:groupmode="layer"
     id="layer1"
     transform="translate(-49.304447,-137.3368)">
    <text
       xml:space="preserve"
       style="font-style:normal;font-weight:normal;font-size:4.23333311px;line-height:1.25;font-family:sans-serif;letter-spacing:0px;word-spacing:0px;fill:#000000;fill-opacity:1;stroke:none;stroke-width:0.26458332"
       x="70.045975"
       y="142.4696"
       id="text891"><tspan
         sodipodi:role="line"
         id="tspan889"
         x="70.045975"
         y="146.3318"
         style="stroke-width:0.26458332" /></text>
    <path
       style="clip-rule:evenodd;fill:none;fill-rule:evenodd;stroke:#000000;stroke-width:0.15;stroke-miterlimit:22.92560005;stroke-dasharray:none;image-rendering:optimizeQuality;shape-rendering:geometricPrecision;text-rendering:geometricPrecision"
       inkscape:connector-curvature="0"
       id="path822"
       d="m 60.060854,143.68222 c 0.259087,-0.0604 1.911541,-1.10912 2.183091,-1.17239 l 1.172383,1.25322 1.819242,-1.94052 c 0.192477,-0.25221 0.41556,-0.40223 0.606414,-0.68725 -0.196249,0.0458 -0.354537,0.17576 -0.539136,0.2694 l -1.563067,0.86259 c -0.15466,0 -0.960712,-0.97652 -1.253271,-1.17243 l -2.133336,2.23284 c -0.0848,0.0857 -0.230532,0.26229 -0.29232,0.35454 z"
       class="fil0 str0" />
    <polygon
       transform="matrix(0.00477491,0,0,0.00477491,26.222964,118.09155)"
       style="clip-rule:evenodd;fill:#000000;fill-rule:evenodd;stroke-width:2.09427905;image-rendering:optimizeQuality;shape-rendering:geometricPrecision;text-rendering:geometricPrecision"
       id="polygon824"
       points="8298.74,4816.12 8297.33,4826 8305.8,4826 "
       class="fil1" />
    <polygon
       transform="matrix(0.00477491,0,0,0.00477491,26.222964,118.09155)"
       style="clip-rule:evenodd;fill:#000000;fill-rule:evenodd;stroke-width:2.09427905;image-rendering:optimizeQuality;shape-rendering:geometricPrecision;text-rendering:geometricPrecision"
       id="polygon826"
       points="7085.19,5369.28 7086.6,5359.4 7078.14,5359.4 "
       class="fil1" />
    <path
       style="color:#000000;font-style:normal;font-variant:normal;font-weight:normal;font-stretch:normal;font-size:medium;line-height:normal;font-family:sans-serif;font-variant-ligatures:normal;font-variant-position:normal;font-variant-caps:normal;font-variant-numeric:normal;font-variant-alternates:normal;font-feature-settings:normal;text-indent:0;text-align:start;text-decoration:none;text-decoration-line:none;text-decoration-style:solid;text-decoration-color:#000000;letter-spacing:normal;word-spacing:normal;text-transform:none;writing-mode:lr-tb;direction:ltr;text-orientation:mixed;dominant-baseline:auto;baseline-shift:baseline;text-anchor:start;white-space:normal;shape-padding:0;clip-rule:nonzero;display:inline;overflow:visible;visibility:visible;opacity:1;isolation:auto;mix-blend-mode:normal;color-interpolation:sRGB;color-interpolation-filters:linearRGB;solid-color:#000000;solid-opacity:1;vector-effect:none;fill:#000000;fill-opacity:1;fill-rule:nonzero;stroke:#000000;stroke-width:0.15000001;stroke-linecap:butt;stroke-linejoin:miter;stroke-miterlimit:4;stroke-dasharray:none;stroke-dashoffset:0;stroke-opacity:1;color-rendering:auto;image-rendering:auto;shape-rendering:auto;text-rendering:auto;enable-background:accumulate"
       d="m 63.022772,137.57415 c -0.963835,-0.002 -1.922093,0.28372 -2.778925,0.80967 -0.442818,0.27182 -0.866991,0.67279 -1.179188,1.09671 v 0 c -0.515681,0.7003 -0.924085,1.57048 -0.924085,2.56631 0,0.8356 0.165534,1.61657 0.5262,2.22206 0.301581,0.50634 0.656166,1.01627 1.131318,1.35015 v 1.96178 l 1.487806,-0.76327 0.0019,-8.6e-4 c 0.180921,-0.11035 0.295189,-0.16452 0.378151,-0.18498 0.08296,-0.0205 0.136318,-0.0117 0.218154,0.0121 0.163669,0.0477 0.416931,0.15785 1.047095,0.15785 1.132356,0 2.17189,-0.3703 3.027452,-0.99931 1.724249,-1.26754 2.351523,-3.59676 1.393035,-5.55295 v 0 c -0.06817,-0.13906 -0.12711,-0.25131 -0.201638,-0.37755 v 0 c -0.502753,-0.85123 -1.290779,-1.4792 -2.171736,-1.87542 -0.63399,-0.28513 -1.296066,-0.42079 -1.955532,-0.42199 z m -0.001,0.1231 c 0.643428,8.6e-4 1.289065,0.13372 1.907531,0.41184 0.862077,0.38773 1.629327,1.00075 2.116796,1.82611 0.07273,0.12319 0.129726,0.23168 0.197068,0.36906 0.931892,1.90192 0.322939,4.16381 -1.355505,5.39767 -0.836095,0.6147 -1.850055,0.97594 -2.956464,0.97594 -0.616709,0 -0.834831,-0.10103 -1.013773,-0.15309 -0.08947,-0.0261 -0.175231,-0.0392 -0.280032,-0.0133 -0.104296,0.0257 -0.225971,0.0858 -0.409459,0.19762 l -1.308559,0.6713 v -1.82631 l -0.02691,-0.0183 c -0.463236,-0.31585 -0.81792,-0.82035 -1.121992,-1.33086 -0.345161,-0.57947 -0.508622,-1.33909 -0.508622,-2.15803 0,-0.96142 0.394646,-1.80615 0.899839,-2.49221 v 0 c 0.302524,-0.41079 0.717885,-0.803 1.144766,-1.06503 0.839241,-0.51515 1.774918,-0.79406 2.715311,-0.79235 z"
       id="path820"
       inkscape:connector-curvature="0"
       sodipodi:nodetypes="csccscccccccscccccccccccccscccccccsccscc" />
  </g>
</svg>
