<?xml version="1.0" encoding="UTF-8" standalone="no"?>
<!-- Created with Inkscape (http://www.inkscape.org/) -->

<svg
   xmlns:dc="http://purl.org/dc/elements/1.1/"
   xmlns:cc="http://creativecommons.org/ns#"
   xmlns:rdf="http://www.w3.org/1999/02/22-rdf-syntax-ns#"
   xmlns:svg="http://www.w3.org/2000/svg"
   xmlns="http://www.w3.org/2000/svg"
   xmlns:sodipodi="http://sodipodi.sourceforge.net/DTD/sodipodi-0.dtd"
   xmlns:inkscape="http://www.inkscape.org/namespaces/inkscape"
   width="27.390459mm"
   height="12.48382mm"
   viewBox="0 0 27.39046 12.48382"
   version="1.1"
   id="svg20953"
   inkscape:version="0.92.2 (5c3e80d, 2017-08-06)"
   sodipodi:docname="messenger.svg"
   inkscape:export-filename="C:\Users\User1\Desktop\15 Р’Р»Р°РґРёРјРёСЂ 3Рґ РјР°РєСЃ\IoT &amp; IIoT\infografics\РЎРѕС†СЃРµС‚Рё\fog88.png"
   inkscape:export-xdpi="1182.2"
   inkscape:export-ydpi="1182.2">
  <defs
     id="defs20947" />
  <sodipodi:namedview
     id="base"
     pagecolor="#ffffff"
     bordercolor="#666666"
     borderopacity="1.0"
     inkscape:pageopacity="0.0"
     inkscape:pageshadow="2"
     inkscape:zoom="8.4569193"
     inkscape:cx="54.471258"
     inkscape:cy="19.948218"
     inkscape:document-units="mm"
     inkscape:current-layer="layer1"
     showgrid="false"
     fit-margin-top="0"
     fit-margin-left="0"
     fit-margin-right="0"
     fit-margin-bottom="0"
     inkscape:window-width="1366"
     inkscape:window-height="705"
     inkscape:window-x="-8"
     inkscape:window-y="-8"
     inkscape:window-maximized="1" />
  <metadata
     id="metadata20950">
    <rdf:RDF>
      <cc:Work
         rdf:about="">
        <dc:format>image/svg+xml</dc:format>
        <dc:type
           rdf:resource="http://purl.org/dc/dcmitype/StillImage" />
        <dc:title></dc:title>
      </cc:Work>
    </rdf:RDF>
  </metadata>
  <g
     inkscape:label="Layer 1"
     inkscape:groupmode="layer"
     id="layer1"
     transform="translate(-49.304447,-135.3368)">
    <path
       style="clip-rule:evenodd;fill:none;fill-rule:evenodd;stroke:#000000;stroke-width:0.25389996;stroke-miterlimit:22.92560005;image-rendering:optimizeQuality;shape-rendering:geometricPrecision;text-rendering:geometricPrecision"
       inkscape:connector-curvature="0"
       id="path822"
       d="m 59.749207,142.93198 c 0.309308,-0.0721 2.282069,-1.32411 2.606254,-1.39964 l 1.399636,1.49615 2.171878,-2.31667 c 0.229786,-0.3011 0.496111,-0.48021 0.723959,-0.82047 -0.234289,0.0546 -0.42326,0.20983 -0.64364,0.32162 l -1.866048,1.02979 c -0.184638,0 -1.146933,-1.16581 -1.496201,-1.3997 l -2.546855,2.66566 c -0.10124,0.10226 -0.275219,0.31312 -0.348983,0.42326 z"
       class="fil0 str0" />
    <polygon
       transform="matrix(0.00570047,0,0,0.00570047,19.352275,112.38089)"
       style="clip-rule:evenodd;fill:#000000;fill-rule:evenodd;stroke-width:1.75424206;image-rendering:optimizeQuality;shape-rendering:geometricPrecision;text-rendering:geometricPrecision"
       id="polygon824"
       points="8298.74,4816.12 8297.33,4826 8305.8,4826 "
       class="fil1" />
    <polygon
       transform="matrix(0.00570047,0,0,0.00570047,19.352275,112.38089)"
       style="clip-rule:evenodd;fill:#000000;fill-rule:evenodd;stroke-width:1.75424206;image-rendering:optimizeQuality;shape-rendering:geometricPrecision;text-rendering:geometricPrecision"
       id="polygon826"
       points="7085.19,5369.28 7086.6,5359.4 7078.14,5359.4 "
       class="fil1" />
    <path
       style="color:#000000;font-style:normal;font-variant:normal;font-weight:normal;font-stretch:normal;font-size:medium;line-height:normal;font-family:sans-serif;font-variant-ligatures:normal;font-variant-position:normal;font-variant-caps:normal;font-variant-numeric:normal;font-variant-alternates:normal;font-feature-settings:normal;text-indent:0;text-align:start;text-decoration:none;text-decoration-line:none;text-decoration-style:solid;text-decoration-color:#000000;letter-spacing:normal;word-spacing:normal;text-transform:none;writing-mode:lr-tb;direction:ltr;text-orientation:mixed;dominant-baseline:auto;baseline-shift:baseline;text-anchor:start;white-space:normal;shape-padding:0;clip-rule:nonzero;display:inline;overflow:visible;visibility:visible;opacity:1;isolation:auto;mix-blend-mode:normal;color-interpolation:sRGB;color-interpolation-filters:linearRGB;solid-color:#000000;solid-opacity:1;vector-effect:none;fill:#000000;fill-opacity:1;fill-rule:nonzero;stroke:#000000;stroke-width:0.11;stroke-linecap:butt;stroke-linejoin:miter;stroke-miterlimit:4;stroke-dasharray:none;stroke-dashoffset:0;stroke-opacity:1;color-rendering:auto;image-rendering:auto;shape-rendering:auto;text-rendering:auto;enable-background:accumulate"
       d="m 63.285254,135.85395 c -1.150662,-0.002 -2.294665,0.33265 -3.317583,0.94931 -0.528653,0.31869 -1.035046,0.7888 -1.407758,1.28583 v 0 c -0.61564,0.82106 -1.103208,1.84131 -1.103208,3.00886 0,0.97971 0.197621,1.89535 0.628198,2.60527 0.360038,0.59365 0.783355,1.19151 1.350609,1.58298 v 2.30008 l 1.776197,-0.8949 0.0023,-0.001 c 0.215991,-0.12937 0.352408,-0.19288 0.451451,-0.21687 0.09904,-0.024 0.162742,-0.0137 0.26044,0.0142 0.195395,0.0558 0.497749,0.18507 1.250061,0.18507 1.351849,0 2.592884,-0.43415 3.614285,-1.17163 2.058473,-1.48613 2.807335,-4.21702 1.663056,-6.51055 v 0 c -0.08138,-0.16305 -0.151748,-0.29466 -0.240722,-0.44266 v 0 c -0.600206,-0.99804 -1.54098,-1.7343 -2.5927,-2.19885 -0.756881,-0.33429 -1.547291,-0.49335 -2.334586,-0.49475 z m -0.0012,0.14433 c 0.768148,0.001 1.538933,0.15677 2.277282,0.48287 1.029179,0.45459 1.945152,1.17332 2.52711,2.14102 0.08683,0.14443 0.15487,0.27162 0.235266,0.4327 1.112527,2.22991 0.385538,4.88185 -1.618252,6.3285 -0.998161,0.7207 -2.208664,1.14423 -3.529536,1.14423 -0.73625,0 -0.996653,-0.11845 -1.21028,-0.17948 -0.106814,-0.0305 -0.209197,-0.046 -0.334313,-0.0157 -0.124513,0.0302 -0.269772,0.10064 -0.488826,0.2317 l -1.562207,0.78707 v -2.14121 l -0.03212,-0.0215 c -0.553029,-0.37032 -0.976464,-0.9618 -1.339476,-1.56036 -0.412066,-0.6794 -0.607211,-1.57001 -0.607211,-2.53017 0,-1.12722 0.471141,-2.11764 1.07426,-2.92201 v 0 c 0.361165,-0.48162 0.857038,-0.94146 1.366664,-1.24868 1.001917,-0.604 2.118963,-0.931 3.241639,-0.92899 z"
       id="path820"
       inkscape:connector-curvature="0"
       sodipodi:nodetypes="csccscccccccscccccccccccccscccccccsccscc" />
    <ellipse
       style="opacity:1;fill:none;fill-opacity:1;fill-rule:evenodd;stroke:#000000;stroke-width:0.10999999;stroke-linecap:round;stroke-linejoin:round;stroke-miterlimit:4;stroke-dasharray:none;stroke-dashoffset:0;stroke-opacity:1;paint-order:markers fill stroke"
       id="path1524"
       cx="68.399773"
       cy="136.84023"
       rx="1.2256697"
       ry="1.194618" />
    <g
       aria-label="1"
       style="font-style:normal;font-weight:normal;font-size:1.41111112px;line-height:1.25;font-family:sans-serif;letter-spacing:0px;word-spacing:0px;fill:#000000;fill-opacity:1;stroke:none;stroke-width:0.26458332"
       id="text1528">
      <path
         d="m 68.49087,137.33229 h -0.124023 v -0.7903 q -0.04479,0.0427 -0.117822,0.0854 -0.07235,0.0427 -0.130225,0.0641 v -0.11989 q 0.104042,-0.0489 0.181901,-0.11851 0.07786,-0.0696 0.110243,-0.13505 h 0.07993 z"
         style="font-style:normal;font-variant:normal;font-weight:normal;font-stretch:normal;font-size:1.41111112px;font-family:Arial;-inkscape-font-specification:Arial;stroke-width:0.26458332"
         id="path1530" />
    </g>
  </g>
</svg>
