<?xml version="1.0" encoding="UTF-8" standalone="no"?>
<!-- Created with Inkscape (http://www.inkscape.org/) -->

<svg
   xmlns:dc="http://purl.org/dc/elements/1.1/"
   xmlns:cc="http://creativecommons.org/ns#"
   xmlns:rdf="http://www.w3.org/1999/02/22-rdf-syntax-ns#"
   xmlns:svg="http://www.w3.org/2000/svg"
   xmlns="http://www.w3.org/2000/svg"
   xmlns:sodipodi="http://sodipodi.sourceforge.net/DTD/sodipodi-0.dtd"
   xmlns:inkscape="http://www.inkscape.org/namespaces/inkscape"
   width="43.453556mm"
   height="43.453556mm"
   viewBox="0 0 43.453559 43.453557"
   version="1.1"
   id="svg20953"
   inkscape:version="0.92.2 (5c3e80d, 2017-08-06)"
   sodipodi:docname="PANEL VECTOR.svg"
   inkscape:export-filename="C:\Users\User1\Desktop\15 Р’Р»Р°РґРёРјРёСЂ 3Рґ РјР°РєСЃ\IoT &amp; IIoT\infografics\РЎРѕС†СЃРµС‚Рё\fog88.png"
   inkscape:export-xdpi="1182.2"
   inkscape:export-ydpi="1182.2">
  <defs
     id="defs20947">
    <marker
       style="overflow:visible"
       id="marker12376-8"
       overflow="visible"
       orient="auto">
      <path
         style="fill-rule:evenodd;stroke:#000000;stroke-width:1.00000003pt"
         inkscape:connector-curvature="0"
         transform="matrix(0.2,0,0,0.2,1.48,0.2)"
         d="m -2.5,-1 c 0,2.76 -2.24,5 -5,5 -2.76,0 -5,-2.24 -5,-5 0,-2.76 2.24,-5 5,-5 2.76,0 5,2.24 5,5 z"
         id="path4014" />
    </marker>
    <marker
       style="overflow:visible"
       id="marker15649"
       overflow="visible"
       orient="auto">
      <path
         style="fill-rule:evenodd;stroke:#000000;stroke-width:1.00000003pt"
         inkscape:connector-curvature="0"
         transform="matrix(0.4,0,0,0.4,2.96,0.4)"
         d="m -2.5,-1 c 0,2.76 -2.24,5 -5,5 -2.76,0 -5,-2.24 -5,-5 0,-2.76 2.24,-5 5,-5 2.76,0 5,2.24 5,5 z"
         id="path4017" />
    </marker>
    <marker
       style="overflow:visible"
       id="DotM"
       overflow="visible"
       orient="auto">
      <path
         style="fill-rule:evenodd;stroke:#000000;stroke-width:1.00000003pt"
         inkscape:connector-curvature="0"
         transform="matrix(0.4,0,0,0.4,2.96,0.4)"
         d="m -2.5,-1 c 0,2.76 -2.24,5 -5,5 -2.76,0 -5,-2.24 -5,-5 0,-2.76 2.24,-5 5,-5 2.76,0 5,2.24 5,5 z"
         id="path4032" />
    </marker>
    <marker
       style="overflow:visible"
       id="marker1667"
       overflow="visible"
       orient="auto">
      <path
         style="fill-rule:evenodd;stroke:#000000;stroke-width:1.00000003pt"
         inkscape:connector-curvature="0"
         transform="matrix(0.4,0,0,0.4,2.96,0.4)"
         d="m -2.5,-1 c 0,2.76 -2.24,5 -5,5 -2.76,0 -5,-2.24 -5,-5 0,-2.76 2.24,-5 5,-5 2.76,0 5,2.24 5,5 z"
         id="path1665" />
    </marker>
    <marker
       style="overflow:visible"
       id="marker15147"
       overflow="visible"
       orient="auto">
      <path
         style="fill-rule:evenodd;stroke:#000000;stroke-width:1.00000003pt"
         inkscape:connector-curvature="0"
         transform="matrix(0.4,0,0,0.4,2.96,0.4)"
         d="m -2.5,-1 c 0,2.76 -2.24,5 -5,5 -2.76,0 -5,-2.24 -5,-5 0,-2.76 2.24,-5 5,-5 2.76,0 5,2.24 5,5 z"
         id="path4023" />
    </marker>
    <marker
       style="overflow:visible"
       id="marker15253-0"
       overflow="visible"
       orient="auto">
      <path
         style="fill-rule:evenodd;stroke:#000000;stroke-width:1.00000003pt"
         inkscape:connector-curvature="0"
         transform="matrix(0.4,0,0,0.4,2.96,0.4)"
         d="m -2.5,-1 c 0,2.76 -2.24,5 -5,5 -2.76,0 -5,-2.24 -5,-5 0,-2.76 2.24,-5 5,-5 2.76,0 5,2.24 5,5 z"
         id="path4026" />
    </marker>
    <marker
       style="overflow:visible"
       id="marker1675"
       overflow="visible"
       orient="auto">
      <path
         style="fill-rule:evenodd;stroke:#000000;stroke-width:1.00000003pt"
         inkscape:connector-curvature="0"
         transform="matrix(0.4,0,0,0.4,2.96,0.4)"
         d="m -2.5,-1 c 0,2.76 -2.24,5 -5,5 -2.76,0 -5,-2.24 -5,-5 0,-2.76 2.24,-5 5,-5 2.76,0 5,2.24 5,5 z"
         id="path1673" />
    </marker>
    <marker
       style="overflow:visible"
       id="marker1679"
       overflow="visible"
       orient="auto">
      <path
         style="fill-rule:evenodd;stroke:#000000;stroke-width:1.00000003pt"
         inkscape:connector-curvature="0"
         transform="matrix(0.4,0,0,0.4,2.96,0.4)"
         d="m -2.5,-1 c 0,2.76 -2.24,5 -5,5 -2.76,0 -5,-2.24 -5,-5 0,-2.76 2.24,-5 5,-5 2.76,0 5,2.24 5,5 z"
         id="path1677" />
    </marker>
    <marker
       style="overflow:visible"
       id="marker1683"
       overflow="visible"
       orient="auto">
      <path
         style="fill-rule:evenodd;stroke:#000000;stroke-width:1.00000003pt"
         inkscape:connector-curvature="0"
         transform="matrix(0.4,0,0,0.4,2.96,0.4)"
         d="m -2.5,-1 c 0,2.76 -2.24,5 -5,5 -2.76,0 -5,-2.24 -5,-5 0,-2.76 2.24,-5 5,-5 2.76,0 5,2.24 5,5 z"
         id="path1681" />
    </marker>
    <marker
       style="overflow:visible"
       id="marker1687"
       overflow="visible"
       orient="auto">
      <path
         style="fill-rule:evenodd;stroke:#000000;stroke-width:1.00000003pt"
         inkscape:connector-curvature="0"
         transform="matrix(0.4,0,0,0.4,2.96,0.4)"
         d="m -2.5,-1 c 0,2.76 -2.24,5 -5,5 -2.76,0 -5,-2.24 -5,-5 0,-2.76 2.24,-5 5,-5 2.76,0 5,2.24 5,5 z"
         id="path1685" />
    </marker>
    <marker
       style="overflow:visible"
       id="marker12196-5"
       overflow="visible"
       orient="auto">
      <path
         style="fill-rule:evenodd;stroke:#000000;stroke-width:1.00000003pt"
         inkscape:connector-curvature="0"
         transform="matrix(0.2,0,0,0.2,1.48,0.2)"
         d="m -2.5,-1 c 0,2.76 -2.24,5 -5,5 -2.76,0 -5,-2.24 -5,-5 0,-2.76 2.24,-5 5,-5 2.76,0 5,2.24 5,5 z"
         id="path4041" />
    </marker>
    <marker
       style="overflow:visible"
       id="marker15383"
       overflow="visible"
       orient="auto">
      <path
         style="fill-rule:evenodd;stroke:#000000;stroke-width:1.00000003pt"
         inkscape:connector-curvature="0"
         transform="matrix(0.4,0,0,0.4,2.96,0.4)"
         d="m -2.5,-1 c 0,2.76 -2.24,5 -5,5 -2.76,0 -5,-2.24 -5,-5 0,-2.76 2.24,-5 5,-5 2.76,0 5,2.24 5,5 z"
         id="path4044" />
    </marker>
  </defs>
  <sodipodi:namedview
     id="base"
     pagecolor="#ffffff"
     bordercolor="#666666"
     borderopacity="1.0"
     inkscape:pageopacity="0.0"
     inkscape:pageshadow="2"
     inkscape:zoom="1.057115"
     inkscape:cx="75.731172"
     inkscape:cy="9.8617321"
     inkscape:document-units="mm"
     inkscape:current-layer="layer1"
     showgrid="false"
     fit-margin-top="0"
     fit-margin-left="0"
     fit-margin-right="0"
     fit-margin-bottom="0"
     inkscape:window-width="1366"
     inkscape:window-height="705"
     inkscape:window-x="-8"
     inkscape:window-y="-8"
     inkscape:window-maximized="1" />
  <metadata
     id="metadata20950">
    <rdf:RDF>
      <cc:Work
         rdf:about="">
        <dc:format>image/svg+xml</dc:format>
        <dc:type
           rdf:resource="http://purl.org/dc/dcmitype/StillImage" />
        <dc:title></dc:title>
      </cc:Work>
    </rdf:RDF>
  </metadata>
  <g
     inkscape:label="Layer 1"
     inkscape:groupmode="layer"
     id="layer1"
     transform="translate(-50.969453,-111.10755)">
    <text
       xml:space="preserve"
       style="font-style:normal;font-weight:normal;font-size:4.23333311px;line-height:1.25;font-family:sans-serif;letter-spacing:0px;word-spacing:0px;fill:#000000;fill-opacity:1;stroke:none;stroke-width:0.26458332"
       x="70.045975"
       y="142.4696"
       id="text891"><tspan
         sodipodi:role="line"
         id="tspan889"
         x="70.045975"
         y="146.3318"
         style="stroke-width:0.26458332" /></text>
    <rect
       style="opacity:1;fill:none;fill-opacity:1;fill-rule:evenodd;stroke:#c5c5c5;stroke-width:0.15000002;stroke-linecap:round;stroke-linejoin:round;stroke-miterlimit:22.92560005;stroke-dasharray:none;stroke-dashoffset:0;stroke-opacity:1;paint-order:markers fill stroke"
       id="rect2010"
       width="43.303555"
       height="43.303555"
       x="51.044453"
       y="111.18255"
       ry="4.9801707" />
    <circle
       style="opacity:1;fill:none;fill-opacity:1;fill-rule:evenodd;stroke:#c6c6c6;stroke-width:0.15000002;stroke-linecap:round;stroke-linejoin:round;stroke-miterlimit:22.92560005;stroke-dasharray:none;stroke-dashoffset:0;stroke-opacity:0.6627451;paint-order:markers fill stroke"
       id="path2027"
       cx="72.29425"
       cy="132.69028"
       r="15.107162" />
    <circle
       style="opacity:1;fill:none;fill-opacity:1;fill-rule:evenodd;stroke:#c6c6c6;stroke-width:0.09999995;stroke-linecap:round;stroke-linejoin:round;stroke-miterlimit:22.92560005;stroke-dasharray:none;stroke-dashoffset:0;stroke-opacity:0.62745098;paint-order:markers fill stroke"
       id="path2055"
       cx="72.513138"
       cy="132.92674"
       r="0.81807727" />
    <g
       aria-label="EMIIA"
       style="font-style:normal;font-weight:normal;font-size:4.23333311px;line-height:1.25;font-family:sans-serif;letter-spacing:0px;word-spacing:0px;fill:#c6c6c6;fill-opacity:0.43921569;stroke:none;stroke-width:0.12128287"
       id="text2074"
       transform="matrix(2.1815393,0,0,2.1815393,-55.832622,-175.36158)">
      <path
         d="m 51.934936,148.80504 v 0.1143 h -0.8128 v 0.33585 h 0.653344 v 0.11571 h -0.653344 v 0.33584 h 0.8128 v 0.1143 h -0.9271 v -1.016 z"
         style="font-style:normal;font-variant:normal;font-weight:normal;font-stretch:normal;font-size:1.41111112px;font-family:Orbitron;-inkscape-font-specification:Orbitron;fill:#c6c6c6;fill-opacity:0.43921569;stroke-width:0.12128287"
         id="path2080"
         inkscape:connector-curvature="0" />
      <path
         d="m 52.62261,149.3074 0.421922,-0.50236 h 0.156633 v 1.016 h -0.1143 v -0.88617 l -0.464255,0.55174 -0.464256,-0.55174 v 0.88617 h -0.1143 v -1.016 h 0.156633 z"
         style="font-style:normal;font-variant:normal;font-weight:normal;font-stretch:normal;font-size:1.41111112px;font-family:Orbitron;-inkscape-font-specification:Orbitron;fill:#c6c6c6;fill-opacity:0.43921569;stroke-width:0.12128287"
         id="path2082"
         inkscape:connector-curvature="0" />
      <path
         d="m 53.354601,149.82104 v -1.016 h 0.1143 v 1.016 z"
         style="font-style:normal;font-variant:normal;font-weight:normal;font-stretch:normal;font-size:1.41111112px;font-family:Orbitron;-inkscape-font-specification:Orbitron;fill:#c6c6c6;fill-opacity:0.43921569;stroke-width:0.12128287"
         id="path2084"
         inkscape:connector-curvature="0" />
      <path
         d="m 53.666038,149.82104 v -1.016 h 0.1143 v 1.016 z"
         style="font-style:normal;font-variant:normal;font-weight:normal;font-stretch:normal;font-size:1.41111112px;font-family:Orbitron;-inkscape-font-specification:Orbitron;fill:#c6c6c6;fill-opacity:0.43921569;stroke-width:0.12128287"
         id="path2086"
         inkscape:connector-curvature="0" />
      <path
         d="m 54.148219,148.80504 h 0.677333 q 0.07056,0 0.119945,0.0494 0.04939,0.0494 0.04939,0.11995 v 0.84666 h -0.1143 v -0.37112 h -0.7874 v 0.37112 h -0.1143 v -0.84666 q 0,-0.0706 0.04939,-0.11995 0.04939,-0.0494 0.119944,-0.0494 z m -0.05503,0.53058 h 0.7874 v -0.36124 q 0,-0.0226 -0.01693,-0.0381 -0.01552,-0.0169 -0.0381,-0.0169 h -0.677333 q -0.02258,0 -0.03951,0.0169 -0.01552,0.0155 -0.01552,0.0381 z"
         style="font-style:normal;font-variant:normal;font-weight:normal;font-stretch:normal;font-size:1.41111112px;font-family:Orbitron;-inkscape-font-specification:Orbitron;fill:#c6c6c6;fill-opacity:0.43921569;stroke-width:0.12128287"
         id="path2088"
         inkscape:connector-curvature="0" />
    </g>
  </g>
</svg>
