<?xml version="1.0" encoding="UTF-8" standalone="no"?>
<!-- Created with Inkscape (http://www.inkscape.org/) -->

<svg
   xmlns:dc="http://purl.org/dc/elements/1.1/"
   xmlns:cc="http://creativecommons.org/ns#"
   xmlns:rdf="http://www.w3.org/1999/02/22-rdf-syntax-ns#"
   xmlns:svg="http://www.w3.org/2000/svg"
   xmlns="http://www.w3.org/2000/svg"
   xmlns:sodipodi="http://sodipodi.sourceforge.net/DTD/sodipodi-0.dtd"
   xmlns:inkscape="http://www.inkscape.org/namespaces/inkscape"
   width="9.1453705mm"
   height="8.9137039mm"
   viewBox="0 0 9.1453705 8.913704"
   version="1.1"
   id="svg15604"
   inkscape:version="0.92.2 (5c3e80d, 2017-08-06)"
   sodipodi:docname="setting2.svg">
  <defs
     id="defs15598">
    <pattern
       y="0"
       x="0"
       height="6"
       width="6"
       patternUnits="userSpaceOnUse"
       id="EMFhbasepattern" />
    <pattern
       y="0"
       x="0"
       height="6"
       width="6"
       patternUnits="userSpaceOnUse"
       id="EMFhbasepattern-3" />
  </defs>
  <sodipodi:namedview
     id="base"
     pagecolor="#ffffff"
     bordercolor="#666666"
     borderopacity="1.0"
     inkscape:pageopacity="0.0"
     inkscape:pageshadow="2"
     inkscape:zoom="3.5856883"
     inkscape:cx="14.653305"
     inkscape:cy="-4.9633005"
     inkscape:document-units="mm"
     inkscape:current-layer="layer1"
     showgrid="false"
     fit-margin-top="0"
     fit-margin-left="0"
     fit-margin-right="0"
     fit-margin-bottom="0"
     inkscape:window-width="1366"
     inkscape:window-height="745"
     inkscape:window-x="-8"
     inkscape:window-y="-8"
     inkscape:window-maximized="1" />
  <metadata
     id="metadata15601">
    <rdf:RDF>
      <cc:Work
         rdf:about="">
        <dc:format>image/svg+xml</dc:format>
        <dc:type
           rdf:resource="http://purl.org/dc/dcmitype/StillImage" />
        <dc:title></dc:title>
      </cc:Work>
    </rdf:RDF>
  </metadata>
  <g
     inkscape:label="Layer 1"
     inkscape:groupmode="layer"
     id="layer1"
     transform="translate(-32.413811,-100.00754)">
    <flowRoot
       xml:space="preserve"
       id="flowRoot2089"
       style="font-style:normal;font-weight:normal;font-size:16px;line-height:1.25;font-family:sans-serif;letter-spacing:0px;word-spacing:0px;fill:#000000;fill-opacity:1;stroke:none"
       transform="matrix(0.26458333,0,0,0.26458333,33.118872,99.557964)"><flowRegion
         id="flowRegion2091"><rect
           id="rect2093"
           width="5.0199566"
           height="17.988178"
           x="26.354773"
           y="31.879519" /></flowRegion><flowPara
         id="flowPara2095"></flowPara></flowRoot>    <text
       xml:space="preserve"
       style="font-style:normal;font-weight:normal;font-size:4.23333311px;line-height:1.25;font-family:sans-serif;letter-spacing:0px;word-spacing:0px;fill:#000000;fill-opacity:1;stroke:none;stroke-width:0.26458332"
       x="45.699848"
       y="111.12878"
       id="text2099"><tspan
         sodipodi:role="line"
         id="tspan2097"
         x="45.699848"
         y="114.99097"
         style="stroke-width:0.26458332" /></text>
    <path
       id="path2072"
       d="m 36.620244,103.44689 c -0.03744,0.018 -0.07758,0.0323 -0.117644,0.051 -0.187199,0.0939 -0.165801,0.10465 -0.307546,0.20152 l -0.165801,-0.0992 c -0.08557,-0.0484 -0.114987,-0.0834 -0.213943,-0.0834 -0.144403,0 -0.203245,0.13433 -0.26743,0.25512 -0.120341,0.22283 -0.304871,0.41096 -0.02674,0.58015 0.04014,0.0226 0.07489,0.0403 0.112331,0.0618 l 0.114987,0.0698 c -0.0028,0.051 -0.02406,0.12363 -0.02406,0.26591 0,0.0966 0.0213,0.17998 0.02406,0.22828 l -0.227316,0.13176 c -0.04279,0.0241 -0.06687,0.0348 -0.09895,0.0779 -0.09629,0.12905 -0.02944,0.22554 0.02674,0.32768 l 0.195218,0.33838 c 0.07219,0.0887 0.1765,0.11807 0.2808,0.0644 0.03478,-0.016 0.05882,-0.0324 0.09093,-0.051 0.0321,-0.018 0.160442,-0.0967 0.187198,-0.10464 0.06954,0.0485 0.08023,0.0726 0.18988,0.137 0.05616,0.0348 0.157782,0.0914 0.227317,0.10736 0,0.0992 -0.01342,0.23367 0.02129,0.29813 0.03478,0.0618 0.101608,0.12077 0.197898,0.12077 h 0.454631 c 0.09093,0 0.163141,-0.0618 0.195218,-0.12362 0.03744,-0.0727 0.02406,-0.18778 0.02406,-0.29544 0.149744,-0.0348 0.312896,-0.1718 0.417194,-0.24442 l 0.26208,0.1504 c 0.09093,0.0538 0.197898,0.0376 0.26743,-0.0294 0.04548,-0.0432 0.211269,-0.35453 0.25406,-0.42435 0.06687,-0.11278 0.05083,-0.23637 -0.04548,-0.31427 l -0.280799,-0.1666 0.0213,-0.24977 -0.0213,-0.2525 c 0.02407,-0.004 0.17382,-0.0968 0.208597,-0.11793 0.02673,-0.016 0.04548,-0.0243 0.06951,-0.0432 0.08826,-0.0672 0.117644,-0.19879 0.05082,-0.30885 -0.04012,-0.0672 -0.205917,-0.37333 -0.243357,-0.41631 -0.08023,-0.0807 -0.189879,-0.0966 -0.283478,-0.0432 -0.02941,0.016 -0.05349,0.0323 -0.08557,0.051 l -0.173822,0.10194 c -0.016,-0.014 -0.02129,-0.0205 -0.04012,-0.0348 -0.08023,-0.0644 -0.294167,-0.20152 -0.377069,-0.20947 0,-0.17719 0.04012,-0.42705 -0.264761,-0.42705 h -0.363701 c -0.168481,0 -0.26743,0.0887 -0.264757,0.24442 v 0.17459 z"
       style="clip-rule:evenodd;fill:none;fill-opacity:1;fill-rule:evenodd;stroke:#606060;stroke-width:0.23999995;stroke-miterlimit:4;stroke-dasharray:none;stroke-opacity:1;image-rendering:optimizeQuality;shape-rendering:geometricPrecision;text-rendering:geometricPrecision"
       inkscape:connector-curvature="0"
       sodipodi:nodetypes="ccccsccccsccsccccccccsscccccccccccccccccccssccc" />
    <path
       style="clip-rule:evenodd;fill:none;fill-rule:evenodd;stroke:#000000;stroke-width:0.17999999;stroke-linecap:butt;stroke-linejoin:miter;stroke-miterlimit:4;stroke-dasharray:none;stroke-opacity:1;image-rendering:optimizeQuality;shape-rendering:geometricPrecision;text-rendering:geometricPrecision"
       d="m 36.640568,103.52877 c -0.003,-0.25293 -0.003,-0.25293 -0.003,-0.25293 h 0.0081"
       id="path2101"
       inkscape:connector-curvature="0" />
    <ellipse
       style="clip-rule:evenodd;opacity:1;fill:none;fill-opacity:0.99607843;fill-rule:evenodd;stroke:#606060;stroke-width:0.19999999;stroke-linecap:round;stroke-linejoin:round;stroke-miterlimit:22.92560005;stroke-dasharray:none;stroke-dashoffset:0;stroke-opacity:1;paint-order:markers fill stroke;image-rendering:optimizeQuality;shape-rendering:geometricPrecision;text-rendering:geometricPrecision"
       id="path931-0"
       cx="37.031525"
       cy="104.76476"
       rx="0.55194288"
       ry="0.53770691" />
    <ellipse
       style="clip-rule:evenodd;opacity:1;fill:none;fill-opacity:0.99607843;fill-rule:evenodd;stroke:#606060;stroke-width:0.02999998;stroke-linecap:round;stroke-linejoin:round;stroke-miterlimit:22.92560005;stroke-dasharray:none;stroke-dashoffset:0;stroke-opacity:1;paint-order:markers fill stroke;image-rendering:optimizeQuality;shape-rendering:geometricPrecision;text-rendering:geometricPrecision"
       id="path931-08"
       cx="37.025604"
       cy="104.5476"
       rx="4.5016136"
       ry="4.3872004" />
  </g>
</svg>
