<?xml version="1.0" encoding="UTF-8" standalone="no"?>
<!-- Created with Inkscape (http://www.inkscape.org/) -->

<svg
   xmlns:dc="http://purl.org/dc/elements/1.1/"
   xmlns:cc="http://creativecommons.org/ns#"
   xmlns:rdf="http://www.w3.org/1999/02/22-rdf-syntax-ns#"
   xmlns:svg="http://www.w3.org/2000/svg"
   xmlns="http://www.w3.org/2000/svg"
   xmlns:sodipodi="http://sodipodi.sourceforge.net/DTD/sodipodi-0.dtd"
   xmlns:inkscape="http://www.inkscape.org/namespaces/inkscape"
   width="152.15834"
   height="37.312988"
   viewBox="0 0 40.25856 9.8723947"
   version="1.1"
   id="svg15604"
   inkscape:version="0.92.2 (5c3e80d, 2017-08-06)"
   sodipodi:docname="smyslova3.svg">
  <defs
     id="defs15598" />
  <sodipodi:namedview
     id="base"
     pagecolor="#ffffff"
     bordercolor="#666666"
     borderopacity="1.0"
     inkscape:pageopacity="0.0"
     inkscape:pageshadow="2"
     inkscape:zoom="5.0055772"
     inkscape:cx="78.371481"
     inkscape:cy="28.784922"
     inkscape:document-units="mm"
     inkscape:current-layer="layer1"
     showgrid="false"
     fit-margin-top="0"
     fit-margin-left="0"
     fit-margin-right="0"
     fit-margin-bottom="0"
     inkscape:window-width="1366"
     inkscape:window-height="745"
     inkscape:window-x="-8"
     inkscape:window-y="-8"
     inkscape:window-maximized="1"
     units="px" />
  <metadata
     id="metadata15601">
    <rdf:RDF>
      <cc:Work
         rdf:about="">
        <dc:format>image/svg+xml</dc:format>
        <dc:type
           rdf:resource="http://purl.org/dc/dcmitype/StillImage" />
        <dc:title></dc:title>
      </cc:Work>
    </rdf:RDF>
  </metadata>
  <g
     inkscape:label="Layer 1"
     inkscape:groupmode="layer"
     id="layer1"
     transform="translate(-7.4525952,-101.20933)">
    <rect
       style="clip-rule:evenodd;opacity:1;fill:none;fill-opacity:1;fill-rule:evenodd;stroke:#cc9933;stroke-width:0.12761413;stroke-linecap:round;stroke-linejoin:round;stroke-miterlimit:4;stroke-dasharray:none;stroke-dashoffset:0;stroke-opacity:1;paint-order:markers fill stroke;image-rendering:optimizeQuality;shape-rendering:geometricPrecision;text-rendering:geometricPrecision"
       id="rect39235-9"
       width="40.130947"
       height="9.7447805"
       x="7.5164022"
       y="101.27314"
       rx="1.9042637"
       ry="2.3064387" />
    <g
       aria-label="ПОДРОБНЕЕ"
       style="font-style:normal;font-weight:normal;font-size:4.23333311px;line-height:1.25;font-family:sans-serif;letter-spacing:0px;word-spacing:0px;fill:#cc9933;fill-opacity:1;stroke:none;stroke-width:0.26458332"
       id="text17109"
       transform="translate(0,0.15857312)">
      <path
         d="M 16.404737,107.48799 H 15.99546 v -2.71404 h -1.535824 v 2.71404 h -0.409277 v -3.07785 h 2.354378 z"
         style="fill:#cc9933;fill-opacity:1;stroke-width:0.26458332"
         id="path17111"
         inkscape:connector-curvature="0" />
      <path
         d="m 19.528061,104.76361 q 0.188102,0.20671 0.287321,0.50643 0.101285,0.29972 0.101285,0.68006 0,0.38034 -0.103352,0.68213 -0.101286,0.29972 -0.285254,0.50023 -0.19017,0.20877 -0.450619,0.31419 -0.258382,0.10542 -0.591178,0.10542 -0.324528,0 -0.591179,-0.10749 -0.264583,-0.10748 -0.450618,-0.31212 -0.186035,-0.20464 -0.287321,-0.5023 -0.09922,-0.29765 -0.09922,-0.68006 0,-0.3762 0.09922,-0.67386 0.09922,-0.29972 0.289388,-0.51263 0.181901,-0.20257 0.450618,-0.31006 0.270785,-0.10749 0.589112,-0.10749 0.330729,0 0.593245,0.10956 0.264584,0.10749 0.448552,0.30799 z m -0.03721,1.18649 q 0,-0.59945 -0.268718,-0.92397 -0.268717,-0.3266 -0.733805,-0.3266 -0.469222,0 -0.73794,0.3266 -0.26665,0.32452 -0.26665,0.92397 0,0.60565 0.272852,0.92811 0.272851,0.32039 0.731738,0.32039 0.458887,0 0.729671,-0.32039 0.272852,-0.32246 0.272852,-0.92811 z"
         style="fill:#cc9933;fill-opacity:1;stroke-width:0.26458332"
         id="path17113"
         inkscape:connector-curvature="0" />
      <path
         d="m 23.12474,108.18459 h -0.388607 v -0.70487 h -2.174544 v 0.70487 h -0.388607 v -1.0604 h 0.248047 q 0.268718,-0.44235 0.427881,-1.15342 0.161231,-0.71313 0.161231,-1.56063 h 1.823144 v 2.71405 h 0.291455 z m -0.700732,-1.0604 v -2.35851 h -1.029395 q -0.02894,0.73794 -0.181901,1.35185 -0.152962,0.61185 -0.396875,1.00666 z"
         style="fill:#cc9933;fill-opacity:1;stroke-width:0.26458332"
         id="path17115"
         inkscape:connector-curvature="0" />
      <path
         d="m 25.737501,105.34032 q 0,0.20464 -0.07235,0.38034 -0.07028,0.17363 -0.198438,0.30179 -0.159163,0.15916 -0.376204,0.23978 -0.217041,0.0785 -0.54777,0.0785 h -0.409277 v 1.14722 h -0.409278 v -3.07785 h 0.835091 q 0.276986,0 0.469222,0.0476 0.192237,0.0455 0.341065,0.14469 0.1757,0.11782 0.270784,0.29352 0.09715,0.1757 0.09715,0.44442 z m -0.425814,0.0103 q 0,-0.15916 -0.05581,-0.27698 -0.05581,-0.11782 -0.169499,-0.19224 -0.09922,-0.0641 -0.227376,-0.0909 -0.126091,-0.0289 -0.320394,-0.0289 h -0.405143 v 1.2299 h 0.345198 q 0.248047,0 0.403076,-0.0434 0.15503,-0.0455 0.252181,-0.14262 0.09715,-0.0992 0.136426,-0.20878 0.04134,-0.10955 0.04134,-0.24598 z"
         style="fill:#cc9933;fill-opacity:1;stroke-width:0.26458332"
         id="path17117"
         inkscape:connector-curvature="0" />
      <path
         d="m 28.573503,104.76361 q 0.188102,0.20671 0.287321,0.50643 0.101285,0.29972 0.101285,0.68006 0,0.38034 -0.103352,0.68213 -0.101286,0.29972 -0.285254,0.50023 -0.19017,0.20877 -0.450619,0.31419 -0.258382,0.10542 -0.591178,0.10542 -0.324528,0 -0.591178,-0.10749 -0.264584,-0.10748 -0.450619,-0.31212 -0.186035,-0.20464 -0.287321,-0.5023 -0.09922,-0.29765 -0.09922,-0.68006 0,-0.3762 0.09922,-0.67386 0.09922,-0.29972 0.289388,-0.51263 0.181901,-0.20257 0.450619,-0.31006 0.270784,-0.10749 0.589111,-0.10749 0.330729,0 0.593245,0.10956 0.264584,0.10749 0.448552,0.30799 z m -0.03721,1.18649 q 0,-0.59945 -0.268718,-0.92397 -0.268717,-0.3266 -0.733805,-0.3266 -0.469222,0 -0.737939,0.3266 -0.266651,0.32452 -0.266651,0.92397 0,0.60565 0.272852,0.92811 0.272851,0.32039 0.731738,0.32039 0.458887,0 0.729671,-0.32039 0.272852,-0.32246 0.272852,-0.92811 z"
         style="fill:#cc9933;fill-opacity:1;stroke-width:0.26458332"
         id="path17119"
         inkscape:connector-curvature="0" />
      <path
         d="m 31.934538,106.53508 q 0,0.22324 -0.08888,0.40514 -0.08682,0.1819 -0.233577,0.29559 -0.173633,0.13643 -0.372071,0.1943 -0.198437,0.0579 -0.51263,0.0579 h -1.116211 v -3.07785 h 2.060856 v 0.36381 h -1.651578 v 0.84335 h 0.719336 q 0.314192,0 0.51263,0.0372 0.198437,0.0351 0.374137,0.17157 0.157096,0.12195 0.231511,0.30179 0.07648,0.17983 0.07648,0.40721 z m -0.427881,0.008 q 0,-0.15503 -0.05168,-0.27286 -0.05168,-0.11782 -0.16123,-0.19016 -0.113688,-0.0765 -0.262516,-0.093 -0.148828,-0.0165 -0.419613,-0.0165 H 30.02044 v 1.16789 h 0.580843 q 0.274918,0 0.421679,-0.0269 0.148829,-0.0269 0.26045,-0.10336 0.115755,-0.0806 0.169498,-0.1881 0.05374,-0.10955 0.05374,-0.27698 z"
         style="fill:#cc9933;fill-opacity:1;stroke-width:0.26458332"
         id="path17121"
         inkscape:connector-curvature="0" />
      <path
         d="m 34.867693,107.48799 h -0.409278 v -1.50688 h -1.535823 v 1.50688 h -0.409277 v -3.07785 h 0.409277 v 1.20716 h 1.535823 v -1.20716 h 0.409278 z"
         style="fill:#cc9933;fill-opacity:1;stroke-width:0.26458332"
         id="path17123"
         inkscape:connector-curvature="0" />
      <path
         d="m 37.724365,107.48799 h -2.027783 v -3.07785 h 2.027783 v 0.36381 h -1.618506 v 0.84335 h 1.618506 v 0.36381 h -1.618506 v 1.14308 h 1.618506 z"
         style="fill:#cc9933;fill-opacity:1;stroke-width:0.26458332"
         id="path17125"
         inkscape:connector-curvature="0" />
      <path
         d="m 40.403271,107.48799 h -2.027783 v -3.07785 h 2.027783 v 0.36381 h -1.618506 v 0.84335 h 1.618506 v 0.36381 h -1.618506 v 1.14308 h 1.618506 z"
         style="fill:#cc9933;fill-opacity:1;stroke-width:0.26458332"
         id="path17127"
         inkscape:connector-curvature="0" />
    </g>
  </g>
</svg>
