<?xml version="1.0" encoding="UTF-8" standalone="no"?>
<!-- Created with Inkscape (http://www.inkscape.org/) -->

<svg
   xmlns:dc="http://purl.org/dc/elements/1.1/"
   xmlns:cc="http://creativecommons.org/ns#"
   xmlns:rdf="http://www.w3.org/1999/02/22-rdf-syntax-ns#"
   xmlns:svg="http://www.w3.org/2000/svg"
   xmlns="http://www.w3.org/2000/svg"
   xmlns:sodipodi="http://sodipodi.sourceforge.net/DTD/sodipodi-0.dtd"
   xmlns:inkscape="http://www.inkscape.org/namespaces/inkscape"
   width="126.90359"
   height="31.119896"
   viewBox="0 0 33.576573 8.2338057"
   version="1.1"
   id="svg15604"
   inkscape:version="0.92.2 (5c3e80d, 2017-08-06)"
   sodipodi:docname="smyslova3.svg">
  <defs
     id="defs15598" />
  <sodipodi:namedview
     id="base"
     pagecolor="#ffffff"
     bordercolor="#666666"
     borderopacity="1.0"
     inkscape:pageopacity="0.0"
     inkscape:pageshadow="2"
     inkscape:zoom="1.7697388"
     inkscape:cx="78.371481"
     inkscape:cy="3.2417853"
     inkscape:document-units="mm"
     inkscape:current-layer="layer1"
     showgrid="false"
     fit-margin-top="0"
     fit-margin-left="0"
     fit-margin-right="0"
     fit-margin-bottom="0"
     inkscape:window-width="1366"
     inkscape:window-height="745"
     inkscape:window-x="-8"
     inkscape:window-y="-8"
     inkscape:window-maximized="1"
     units="px" />
  <metadata
     id="metadata15601">
    <rdf:RDF>
      <cc:Work
         rdf:about="">
        <dc:format>image/svg+xml</dc:format>
        <dc:type
           rdf:resource="http://purl.org/dc/dcmitype/StillImage" />
        <dc:title></dc:title>
      </cc:Work>
    </rdf:RDF>
  </metadata>
  <g
     inkscape:label="Layer 1"
     inkscape:groupmode="layer"
     id="layer1"
     transform="translate(-7.4525952,-101.20933)">
    <rect
       style="clip-rule:evenodd;opacity:1;fill:none;fill-opacity:1;fill-rule:evenodd;stroke:#cc9933;stroke-width:0.12761413;stroke-linecap:round;stroke-linejoin:round;stroke-miterlimit:4;stroke-dasharray:none;stroke-dashoffset:0;stroke-opacity:1;paint-order:markers fill stroke;image-rendering:optimizeQuality;shape-rendering:geometricPrecision;text-rendering:geometricPrecision"
       id="rect39235-9"
       width="33.448959"
       height="8.1061916"
       x="7.5164022"
       y="101.27314"
       rx="1.1025718"
       ry="1.3909771" />
    <g
       transform="translate(-4.8268275,-8.3121478)"
       aria-label="ПОДРОБНЕЕ"
       style="font-style:normal;font-weight:normal;font-size:4.23333311px;line-height:1.25;font-family:sans-serif;letter-spacing:0px;word-spacing:0px;fill:#cc9933;fill-opacity:1;stroke:none;stroke-width:0.26458332"
       id="text830-7">
      <path
         inkscape:connector-curvature="0"
         d="m 20.720258,114.96054 h -0.211873 v -2.32716 h -1.419379 v 2.32716 h -0.211874 v -2.50803 h 1.843126 z"
         style="font-style:normal;font-variant:normal;font-weight:300;font-stretch:normal;font-size:3.52777767px;font-family:Roboto;-inkscape-font-specification:'Roboto Light';fill:#cc9933;fill-opacity:1;stroke-width:0.26458332"
         id="path863" />
      <path
         inkscape:connector-curvature="0"
         d="m 23.21623,113.84261 q 0,0.26355 -0.0689,0.47714 -0.0689,0.21188 -0.19637,0.36174 -0.125746,0.14986 -0.306614,0.23254 -0.180867,0.081 -0.403076,0.081 -0.220486,0 -0.401354,-0.081 -0.179144,-0.0827 -0.308336,-0.23254 -0.129191,-0.14986 -0.199815,-0.36174 -0.07062,-0.21359 -0.07062,-0.47714 v -0.26872 q 0,-0.26355 0.07062,-0.47715 0.07062,-0.21359 0.198093,-0.36345 0.127468,-0.15159 0.306613,-0.23255 0.180868,-0.0827 0.401354,-0.0827 0.222209,0 0.403076,0.0827 0.180868,0.081 0.308336,0.23255 0.129191,0.14986 0.198093,0.36345 0.0689,0.2136 0.0689,0.47715 z m -0.211873,-0.27217 q 0,-0.2222 -0.05168,-0.40135 -0.05168,-0.17914 -0.149861,-0.30317 -0.09819,-0.12574 -0.241157,-0.19292 -0.142971,-0.0689 -0.323839,-0.0689 -0.177422,0 -0.320394,0.0689 -0.141249,0.0672 -0.241157,0.19292 -0.09819,0.12403 -0.151584,0.30317 -0.05168,0.17915 -0.05168,0.40135 v 0.27217 q 0,0.22393 0.0534,0.40307 0.0534,0.17915 0.153307,0.30489 0.09991,0.12575 0.241156,0.19293 0.142972,0.0672 0.320394,0.0672 0.18259,0 0.323839,-0.0672 0.142972,-0.0672 0.239434,-0.19293 0.09819,-0.12574 0.148139,-0.30489 0.05168,-0.17914 0.05168,-0.40307 z"
         style="font-style:normal;font-variant:normal;font-weight:300;font-stretch:normal;font-size:3.52777767px;font-family:Roboto;-inkscape-font-specification:'Roboto Light';fill:#cc9933;fill-opacity:1;stroke-width:0.26458332"
         id="path865" />
      <path
         inkscape:connector-curvature="0"
         d="m 25.819,115.5686 h -0.211874 v -0.60806 h -1.891357 v 0.60806 h -0.211873 v -0.7872 h 0.167087 q 0.02756,-0.0293 0.0689,-0.081 0.04134,-0.0517 0.08785,-0.13264 0.04651,-0.0827 0.09474,-0.19465 0.04823,-0.11369 0.08785,-0.26183 0.04134,-0.14986 0.07062,-0.33761 0.02928,-0.18776 0.03962,-0.41858 l 0.04651,-0.90262 h 1.386651 v 2.32889 h 0.266995 z m -1.484836,-2.21347 q -0.01378,0.26182 -0.0534,0.48231 -0.0379,0.22049 -0.09474,0.39963 -0.05684,0.17915 -0.125746,0.31523 -0.0689,0.13608 -0.142971,0.2291 h 1.424547 v -2.14802 h -0.971517 z"
         style="font-style:normal;font-variant:normal;font-weight:300;font-stretch:normal;font-size:3.52777767px;font-family:Roboto;-inkscape-font-specification:'Roboto Light';fill:#cc9933;fill-opacity:1;stroke-width:0.26458332"
         id="path867" />
      <path
         inkscape:connector-curvature="0"
         d="m 26.466678,113.93907 v 1.02147 h -0.211874 v -2.50803 h 0.854384 q 0.206706,0 0.363458,0.0551 0.158474,0.0551 0.265272,0.15503 0.106798,0.0982 0.160197,0.23599 0.05512,0.13781 0.05512,0.30317 0,0.17398 -0.05512,0.31178 -0.0534,0.13608 -0.160197,0.23082 -0.105075,0.0947 -0.26355,0.1447 -0.158474,0.0499 -0.36518,0.0499 z m 0,-0.17914 h 0.64251 q 0.167087,0 0.287666,-0.0413 0.120578,-0.0431 0.19637,-0.11713 0.07579,-0.0758 0.111966,-0.17742 0.03617,-0.10163 0.03617,-0.21877 0,-0.11541 -0.03617,-0.21876 -0.03617,-0.10507 -0.111966,-0.18259 -0.07579,-0.0792 -0.19637,-0.12402 -0.120579,-0.0465 -0.287666,-0.0465 h -0.64251 z"
         style="font-style:normal;font-variant:normal;font-weight:300;font-stretch:normal;font-size:3.52777767px;font-family:Roboto;-inkscape-font-specification:'Roboto Light';fill:#cc9933;fill-opacity:1;stroke-width:0.26458332"
         id="path869" />
      <path
         inkscape:connector-curvature="0"
         d="m 30.278676,113.84261 q 0,0.26355 -0.0689,0.47714 -0.0689,0.21188 -0.19637,0.36174 -0.125746,0.14986 -0.306614,0.23254 -0.180867,0.081 -0.403076,0.081 -0.220486,0 -0.401354,-0.081 -0.179145,-0.0827 -0.308336,-0.23254 -0.129191,-0.14986 -0.199815,-0.36174 -0.07062,-0.21359 -0.07062,-0.47714 v -0.26872 q 0,-0.26355 0.07062,-0.47715 0.07062,-0.21359 0.198093,-0.36345 0.127468,-0.15159 0.306613,-0.23255 0.180868,-0.0827 0.401354,-0.0827 0.222209,0 0.403076,0.0827 0.180868,0.081 0.308336,0.23255 0.129191,0.14986 0.198093,0.36345 0.0689,0.2136 0.0689,0.47715 z m -0.211873,-0.27217 q 0,-0.2222 -0.05168,-0.40135 -0.05168,-0.17914 -0.149861,-0.30317 -0.09819,-0.12574 -0.241157,-0.19292 -0.142972,-0.0689 -0.323839,-0.0689 -0.177423,0 -0.320394,0.0689 -0.141249,0.0672 -0.241157,0.19292 -0.09818,0.12403 -0.151584,0.30317 -0.05168,0.17915 -0.05168,0.40135 v 0.27217 q 0,0.22393 0.0534,0.40307 0.0534,0.17915 0.153306,0.30489 0.09991,0.12575 0.241157,0.19293 0.142972,0.0672 0.320394,0.0672 0.18259,0 0.323839,-0.0672 0.142971,-0.0672 0.239434,-0.19293 0.09818,-0.12574 0.148139,-0.30489 0.05168,-0.17914 0.05168,-0.40307 z"
         style="font-style:normal;font-variant:normal;font-weight:300;font-stretch:normal;font-size:3.52777767px;font-family:Roboto;-inkscape-font-specification:'Roboto Light';fill:#cc9933;fill-opacity:1;stroke-width:0.26458332"
         id="path871" />
      <path
         inkscape:connector-curvature="0"
         d="m 32.31645,112.63338 h -1.298801 v 0.90778 h 0.620117 q 0.20326,0 0.35829,0.0517 0.156752,0.0517 0.261827,0.14469 0.105075,0.093 0.158474,0.22393 0.0534,0.12919 0.0534,0.28595 0,0.15847 -0.0534,0.28938 -0.0534,0.13092 -0.158474,0.22566 -0.105075,0.093 -0.261827,0.14641 -0.15503,0.0517 -0.35829,0.0517 h -0.833713 v -2.50803 h 1.512397 z m -1.298801,1.08865 v 1.05937 h 0.620117 q 0.165364,0 0.282498,-0.0431 0.117133,-0.0448 0.191202,-0.11885 0.07579,-0.0741 0.110243,-0.17054 0.03445,-0.0982 0.03445,-0.20498 0,-0.10335 -0.03445,-0.19809 -0.03445,-0.0947 -0.110243,-0.16709 -0.07407,-0.0724 -0.191202,-0.11369 -0.117134,-0.0431 -0.282498,-0.0431 z"
         style="font-style:normal;font-variant:normal;font-weight:300;font-stretch:normal;font-size:3.52777767px;font-family:Roboto;-inkscape-font-specification:'Roboto Light';fill:#cc9933;fill-opacity:1;stroke-width:0.26458332"
         id="path873" />
      <path
         inkscape:connector-curvature="0"
         d="m 34.88649,114.96054 h -0.213595 v -1.20234 h -1.43316 v 1.20234 h -0.211874 v -2.50803 h 0.211874 v 1.12655 h 1.43316 v -1.12655 h 0.213595 z"
         style="font-style:normal;font-variant:normal;font-weight:300;font-stretch:normal;font-size:3.52777767px;font-family:Roboto;-inkscape-font-specification:'Roboto Light';fill:#cc9933;fill-opacity:1;stroke-width:0.26458332"
         id="path875" />
      <path
         inkscape:connector-curvature="0"
         d="m 36.907039,113.7582 h -1.173055 v 1.0232 h 1.348755 v 0.17914 h -1.560628 v -2.50803 h 1.552015 v 0.18087 h -1.340142 v 0.94568 h 1.173055 z"
         style="font-style:normal;font-variant:normal;font-weight:300;font-stretch:normal;font-size:3.52777767px;font-family:Roboto;-inkscape-font-specification:'Roboto Light';fill:#cc9933;fill-opacity:1;stroke-width:0.26458332"
         id="path877" />
      <path
         inkscape:connector-curvature="0"
         d="m 38.912084,113.7582 h -1.173055 v 1.0232 h 1.348755 v 0.17914 h -1.560628 v -2.50803 h 1.552015 v 0.18087 h -1.340142 v 0.94568 h 1.173055 z"
         style="font-style:normal;font-variant:normal;font-weight:300;font-stretch:normal;font-size:3.52777767px;font-family:Roboto;-inkscape-font-specification:'Roboto Light';fill:#cc9933;fill-opacity:1;stroke-width:0.26458332"
         id="path879" />
    </g>
  </g>
</svg>
