<?xml version="1.0" encoding="UTF-8" standalone="no"?>
<!-- Created with Inkscape (http://www.inkscape.org/) -->

<svg
   xmlns:dc="http://purl.org/dc/elements/1.1/"
   xmlns:cc="http://creativecommons.org/ns#"
   xmlns:rdf="http://www.w3.org/1999/02/22-rdf-syntax-ns#"
   xmlns:svg="http://www.w3.org/2000/svg"
   xmlns="http://www.w3.org/2000/svg"
   xmlns:sodipodi="http://sodipodi.sourceforge.net/DTD/sodipodi-0.dtd"
   xmlns:inkscape="http://www.inkscape.org/namespaces/inkscape"
   width="126.90359"
   height="31.119896"
   viewBox="0 0 33.576573 8.2338057"
   version="1.1"
   id="svg15604"
   inkscape:version="0.92.2 (5c3e80d, 2017-08-06)"
   sodipodi:docname="smyslova4.svg">
  <defs
     id="defs15598" />
  <sodipodi:namedview
     id="base"
     pagecolor="#ffffff"
     bordercolor="#666666"
     borderopacity="1.0"
     inkscape:pageopacity="0.0"
     inkscape:pageshadow="2"
     inkscape:zoom="5.8268047"
     inkscape:cx="64.427303"
     inkscape:cy="3.2417853"
     inkscape:document-units="mm"
     inkscape:current-layer="layer1"
     showgrid="false"
     fit-margin-top="0"
     fit-margin-left="0"
     fit-margin-right="0"
     fit-margin-bottom="0"
     inkscape:window-width="1366"
     inkscape:window-height="745"
     inkscape:window-x="-8"
     inkscape:window-y="-8"
     inkscape:window-maximized="1"
     units="px" />
  <metadata
     id="metadata15601">
    <rdf:RDF>
      <cc:Work
         rdf:about="">
        <dc:format>image/svg+xml</dc:format>
        <dc:type
           rdf:resource="http://purl.org/dc/dcmitype/StillImage" />
        <dc:title />
      </cc:Work>
    </rdf:RDF>
  </metadata>
  <g
     inkscape:label="Layer 1"
     inkscape:groupmode="layer"
     id="layer1"
     transform="translate(-7.4525952,-101.20933)">
    <rect
       style="clip-rule:evenodd;opacity:1;fill:none;fill-opacity:1;fill-rule:evenodd;stroke:#cc9933;stroke-width:0.12761413;stroke-linecap:round;stroke-linejoin:round;stroke-miterlimit:4;stroke-dasharray:none;stroke-dashoffset:0;stroke-opacity:1;paint-order:markers fill stroke;image-rendering:optimizeQuality;shape-rendering:geometricPrecision;text-rendering:geometricPrecision"
       id="rect39235-9"
       width="33.448959"
       height="8.1061916"
       x="7.5164022"
       y="101.27314"
       rx="1.1025718"
       ry="1.3909771" />
    <g
       aria-label="КУПИТЬ"
       style="font-style:normal;font-weight:normal;font-size:4.23333311px;line-height:1.25;font-family:sans-serif;letter-spacing:0px;word-spacing:0px;fill:#cc9933;fill-opacity:1;stroke:none;stroke-width:0.26458332"
       id="text830"
       transform="translate(0,-0.18163185)">
      <path
         d="m 18.272377,105.62374 h -0.34451 v 1.1765 h -0.211873 v -2.50803 h 0.211873 v 1.15066 h 0.334174 l 0.969795,-1.15066 h 0.266995 l -1.030084,1.23334 1.105876,1.27469 h -0.26355 z"
         style="font-style:normal;font-variant:normal;font-weight:300;font-stretch:normal;font-size:3.52777767px;font-family:Roboto;-inkscape-font-specification:'Roboto Light';fill:#cc9933;fill-opacity:1;stroke-width:0.26458332"
         id="path850"
         inkscape:connector-curvature="0" />
      <path
         d="m 20.797632,105.89935 0.713134,-1.60714 h 0.24977 l -0.959459,2.07739 q -0.03445,0.0741 -0.08096,0.15675 -0.04651,0.081 -0.117133,0.14987 -0.0689,0.0689 -0.16881,0.11541 -0.09991,0.0448 -0.242879,0.0448 -0.01895,0 -0.04306,-0.002 -0.02239,-0.002 -0.04651,-0.005 -0.02239,-0.002 -0.04306,-0.005 -0.01895,-0.003 -0.02928,-0.007 l 0.01895,-0.17226 q 0.01034,0.003 0.02756,0.005 0.01895,0.002 0.03962,0.003 0.02067,0.002 0.04134,0.003 0.02067,0 0.03617,0 0.08268,0 0.144694,-0.0276 0.06201,-0.0293 0.108521,-0.0758 0.04823,-0.0465 0.08441,-0.1068 0.03617,-0.0603 0.06718,-0.12403 l 0.08957,-0.18603 -0.949124,-1.84485 h 0.242879 z"
         style="font-style:normal;font-variant:normal;font-weight:300;font-stretch:normal;font-size:3.52777767px;font-family:Roboto;-inkscape-font-specification:'Roboto Light';fill:#cc9933;fill-opacity:1;stroke-width:0.26458332"
         id="path852"
         inkscape:connector-curvature="0" />
      <path
         d="M 24.023964,106.80024 H 23.81209 v -2.32716 h -1.419379 v 2.32716 h -0.211873 v -2.50803 h 1.843126 z"
         style="font-style:normal;font-variant:normal;font-weight:300;font-stretch:normal;font-size:3.52777767px;font-family:Roboto;-inkscape-font-specification:'Roboto Light';fill:#cc9933;fill-opacity:1;stroke-width:0.26458332"
         id="path854"
         inkscape:connector-curvature="0" />
      <path
         d="m 26.314952,104.29221 h 0.211873 v 2.50803 h -0.211873 v -2.14629 l -1.427992,2.14629 h -0.213596 v -2.50803 h 0.213596 v 2.14457 z"
         style="font-style:normal;font-variant:normal;font-weight:300;font-stretch:normal;font-size:3.52777767px;font-family:Roboto;-inkscape-font-specification:'Roboto Light';fill:#cc9933;fill-opacity:1;stroke-width:0.26458332"
         id="path856"
         inkscape:connector-curvature="0" />
      <path
         d="m 28.828149,104.47308 h -0.859551 v 2.32716 h -0.211873 v -2.32716 h -0.857829 v -0.18087 h 1.929253 z"
         style="font-style:normal;font-variant:normal;font-weight:300;font-stretch:normal;font-size:3.52777767px;font-family:Roboto;-inkscape-font-specification:'Roboto Light';fill:#cc9933;fill-opacity:1;stroke-width:0.26458332"
         id="path858"
         inkscape:connector-curvature="0" />
      <path
         d="m 29.463769,105.38086 h 0.620117 q 0.203261,0 0.35829,0.0517 0.156752,0.0517 0.261827,0.14469 0.105076,0.093 0.158475,0.22393 0.0534,0.12919 0.0534,0.28594 0,0.15848 -0.0534,0.28939 -0.0534,0.13092 -0.158475,0.22566 -0.105075,0.093 -0.261827,0.14641 -0.155029,0.0517 -0.35829,0.0517 h -0.831991 v -2.50803 h 0.211874 z m 0,0.18087 v 1.05936 h 0.620117 q 0.165365,0 0.282498,-0.0431 0.117133,-0.0448 0.191203,-0.11885 0.07579,-0.0741 0.110243,-0.17054 0.03445,-0.0982 0.03445,-0.20498 0,-0.10335 -0.03445,-0.19809 -0.03445,-0.0947 -0.110243,-0.16709 -0.07407,-0.0724 -0.191203,-0.11369 -0.117133,-0.0431 -0.282498,-0.0431 z"
         style="font-style:normal;font-variant:normal;font-weight:300;font-stretch:normal;font-size:3.52777767px;font-family:Roboto;-inkscape-font-specification:'Roboto Light';fill:#cc9933;fill-opacity:1;stroke-width:0.26458332"
         id="path860"
         inkscape:connector-curvature="0" />
    </g>
  </g>
</svg>
